<?xml version="1.0" encoding="UTF-8"?>
<svg width="1199px" height="592px" viewBox="0 0 1199 592" version="1.1" xmlns="http://www.w3.org/2000/svg" xmlns:xlink="http://www.w3.org/1999/xlink">
    <title>adler</title>
    <g id="adler" stroke="none" stroke-width="1" fill="none" fill-rule="evenodd">
        <g id="adler_logo_melanin" transform="translate(0.000000, 247.000000)" fill="#ffffff" fill-rule="nonzero">
            <g id="Group-15">
                <path d="M17.3067962,68.8897692 C17.3067962,74.2150039 16.6411502,77.5432337 7.9877521,77.5432337 L0,77.5432337 L0,98.1781933 L13.9785662,98.1781933 C21.3006723,98.1781933 31.2853625,97.512614 37.2761765,90.190508 C41.9356986,84.8652733 41.9356986,77.5432337 41.9356986,72.2180655 L41.9356986,2.3251681 L17.3067962,2.3251681 L17.3067962,68.8897692 Z" id="Fill-1"></path>
                <path d="M105.172069,0.993876058 C93.8560872,0.993876058 82.5401051,4.32210612 73.886707,11.6442122 C62.5707248,20.9632563 56.5799108,34.9418226 57.2455566,49.5860347 C57.2455566,62.8988882 61.905079,75.5462289 70.5584771,84.8652733 C79.877521,94.1843176 91.8591494,99.5094188 105.172069,98.8438395 C116.488052,98.8438395 127.804034,95.5156096 136.457432,88.1935031 C147.773414,78.8744593 153.764228,64.2302467 153.098582,49.5860347 C153.098582,23.6258404 135.791786,0.993876058 105.172069,0.993876058 Z M120.481928,72.217999 C116.488052,76.2118752 111.162883,78.8744593 105.837716,78.8744593 C91.1935031,78.8744593 83.8713971,66.2271851 83.8713971,49.5860347 C83.8713971,33.6105305 91.1935031,22.2945483 105.837716,21.6289024 C121.147573,21.6289024 127.804034,34.2761765 127.804034,50.2517475 C127.138388,58.2394328 125.807096,66.8928308 120.481928,72.217999 Z" id="Fill-3"></path>
                <polygon id="Fill-4" points="226.985289 59.5707248 192.371697 2.3251681 169.074086 2.3251681 169.074086 97.5125475 191.706051 97.5125475 191.706051 40.9326366 226.319643 97.5125475 250.2829 97.5125475 250.2829 2.3251681 226.985289 2.3251681"></polygon>
                <path d="M292.218598,2.3251681 L257.605006,97.512614 L281.568262,97.512614 L286.227784,84.8652733 L321.507023,84.8652733 L326.166545,97.512614 L352.126739,97.512614 L316.181854,2.3251681 L292.218598,2.3251681 Z M292.884244,67.5584771 L304.200227,33.6105305 L315.516209,67.5584771 L292.884244,67.5584771 Z" id="Fill-5"></path>
                <polygon id="Fill-6" points="340.810757 22.2945483 366.105305 22.2945483 366.105305 97.5125475 390.734208 97.5125475 390.734208 22.2945483 416.028756 22.2945483 416.028756 2.3251681 340.810757 2.3251681"></polygon>
                <polygon id="Fill-7" points="481.262065 34.9418226 449.976702 34.9418226 449.976702 2.3251681 425.3478 2.3251681 425.3478 97.5125475 449.976702 97.5125475 449.976702 56.2424949 481.262065 56.2424949 481.262065 97.5125475 505.890969 97.5125475 505.890969 2.3251681 481.262065 2.3251681"></polygon>
                <path d="M548.492313,2.3251681 L513.878718,97.512614 L537.841976,97.512614 L541.835851,84.8652733 L577.115089,84.8652733 L581.774612,97.512614 L607.734805,97.512614 L572.455566,2.3251681 L548.492313,2.3251681 Z M548.492313,67.5584771 L559.808294,33.6105305 L571.124275,67.5584771 L548.492313,67.5584771 Z" id="Fill-8"></path>
                <polygon id="Fill-9" points="674.965055 59.5707248 639.685817 2.3251681 616.388202 2.3251681 616.388202 97.5125475 639.685817 97.5125475 639.685817 40.9326366 673.633764 97.5125475 697.597017 97.5125475 697.597017 2.3251681 674.965055 2.3251681"></polygon>
                <path d="M779.471475,2.3251681 L744.857884,97.512614 L768.821142,97.512614 L773.480665,84.8652733 L808.759904,84.8652733 L813.419422,97.512614 L839.379619,97.512614 L803.434733,2.3251681 L779.471475,2.3251681 Z M779.471475,67.5584771 L790.78746,33.6105305 L802.103441,67.5584771 L779.471475,67.5584771 Z" id="Fill-10"></path>
                <path d="M866.671104,2.3251681 L847.367369,2.3251681 L847.367369,97.512614 L872.661918,97.512614 C889.30307,97.512614 899.287759,97.512614 907.941157,94.1843841 C919.257137,89.5248617 927.910535,80.2058178 930.573123,68.2241229 C931.904414,62.2333089 933.235706,56.9082072 932.570058,50.9173933 C932.570058,33.6105305 926.579243,21.6289024 919.922786,14.9724423 C907.275513,2.99081407 890.634361,2.99081407 866.671104,2.3251681 Z M905.944217,61.5676631 C901.950342,76.2118087 891.300005,76.877521 880.649672,76.877521 L870.664978,76.877521 L870.664978,23.6258404 L880.649672,23.6258404 C887.971778,23.6258404 899.953402,24.2914864 904.612925,38.2700526 C905.944217,42.9295747 906.609865,46.9234506 906.609865,51.582973 C907.275513,54.9112029 906.609865,58.2394328 905.944217,61.5676631 Z" id="Fill-11"></path>
                <polygon id="Fill-12" points="973.174467 2.3251681 948.545561 2.3251681 948.545561 97.5125475 1013.11322 97.5125475 1013.11322 76.2118752 973.174467 76.2118752"></polygon>
                <polygon id="Fill-13" points="1049.05811 55.5768487 1086.33429 55.5768487 1086.33429 36.9387606 1049.05811 36.9387606 1049.05811 21.6289024 1096.31898 21.6289024 1096.31898 2.3251681 1024.42921 2.3251681 1024.42921 97.5125475 1100.31285 97.5125475 1100.31285 77.5431672 1049.05811 77.5431672"></polygon>
                <path d="M1178.85908,61.5676631 C1190.84071,57.573787 1198.82846,46.2578048 1198.16282,34.2761765 C1198.16282,25.6227784 1194.83459,16.9693803 1188.17813,10.9785662 C1178.85908,2.99081407 1165.54616,2.99081407 1154.89583,2.99081407 L1117.61965,2.99081407 L1117.61965,98.1781933 L1141.58291,98.1781933 L1141.58291,66.2271851 L1154.23018,66.2271851 L1171.53698,98.1781933 L1198.16282,98.1781933 L1178.85908,61.5676631 Z M1166.87746,44.9265127 C1163.54922,46.2578048 1159.55535,46.2578048 1150.2363,46.2578048 L1142.24855,46.2578048 L1142.24855,22.2945483 L1151.5676,22.2945483 C1157.55841,22.2945483 1164.88052,22.2945483 1168.20875,24.9571324 C1171.53698,26.9540704 1172.86827,30.9479465 1172.86827,34.2761765 C1172.86827,38.9356986 1170.87133,42.9295747 1166.87746,44.9265127 Z" id="Fill-14"></path>
            </g>
        </g>
    </g>
</svg>