<?xml version="1.0" encoding="UTF-8"?>
<svg width="1200px" height="500px" viewBox="0 0 1200 500" version="1.1" xmlns="http://www.w3.org/2000/svg" xmlns:xlink="http://www.w3.org/1999/xlink">
    <title>Greats Copy</title>
    <g id="Greats-Copy" stroke="none" stroke-width="1" fill="none" fill-rule="evenodd">
        <g id="Group-9" transform="translate(207.000000, 148.000000)" fill="#2D2B3A">
            <polygon id="Fill-3" points="743.2782 199.063125 786.016802 199.063125 786.016802 157.128745 743.2782 157.128745"></polygon>
            <path d="M675.819375,70.0323 C673.098825,50.705475 654.573675,35.994975 633.346875,35.994975 C594.95625,35.994975 580.5177,68.676225 580.5177,102.69675 C580.5177,135.1008 594.95625,167.77365 633.346875,167.77365 C659.481375,167.77365 674.171925,149.797125 677.443725,124.211775 L718.826325,124.211775 C714.464625,172.665075 680.979075,203.693625 633.346875,203.693625 C573.1782,203.693625 537.795825,158.784075 537.795825,102.69675 C537.795825,44.9961 573.1782,0.06975 633.346875,0.06975 C676.088175,0.06975 712.019175,25.116975 717.195675,70.0323 L675.819375,70.0323" id="Fill-4"></path>
            <polygon id="Fill-5" points="451.534125 199.063125 494.272727 199.063125 494.272727 157.128745 451.534125 157.128745"></polygon>
            <path d="M296.582475,4.69185 L384.24435,4.69185 C432.69765,4.69185 451.49265,35.44845 451.49265,67.03455 C451.49265,98.618025 432.69765,129.3888 384.24435,129.3888 L339.31275,129.3888 L339.31275,199.068375 L296.582475,199.068375 L296.582475,4.69185 Z M339.31275,96.1668 L372.5484,96.1668 C392.410725,96.1668 410.115825,91.80195 410.115825,67.03455 C410.115825,42.272925 392.410725,37.9023 372.5484,37.9023 L339.31275,37.9023 L339.31275,96.1668 L339.31275,96.1668 Z" id="Fill-6"></path>
            <polygon id="Fill-7" points="212.988248 199.063125 255.737843 199.063125 255.737843 157.128745 212.988248 157.128745"></polygon>
            <path d="M73.7726325,4.686075 L0,199.063125 L43.276485,199.063125 L58.53288,155.794725 L131.221335,155.794725 L145.90653,199.063125 L190.294913,199.063125 L117.614805,4.686075 L73.7726325,4.686075 Z M95.0129775,52.593375 L95.5508925,52.593375 L120.057735,123.926175 L69.69102,123.926175 L95.0129775,52.593375 L95.0129775,52.593375 Z" id="Fill-8"></path>
        </g>
    </g>
</svg>