<?xml version="1.0" encoding="UTF-8"?>
<svg width="1080px" height="858px" viewBox="0 0 1080 858" version="1.1" xmlns="http://www.w3.org/2000/svg" xmlns:xlink="http://www.w3.org/1999/xlink">
    <title>carhartt wip copy</title>
    <defs>
        <path d="M902.720196,190.62152 C911.360196,190.62152 918.400176,192.540518 924.159817,196.378514 L920.319877,200.536352 C914.560236,197.657882 908.479836,196.058672 902.399976,196.058672 C898.239816,196.058672 895.359996,196.698356 893.120075,197.33804 C890.880155,198.297512 889.920035,199.57688 889.920035,201.176036 C889.920035,202.775192 891.199835,204.05456 893.440296,205.014032 C895.039776,205.653716 897.920136,205.973558 901.439856,206.2934 C906.879816,206.613242 910.400076,206.933084 912.319776,207.252926 C917.440056,207.892556 920.959777,209.171924 923.200237,211.090922 C925.440157,213.00992 926.719957,215.568603 926.719957,218.766969 C926.719957,222.924807 924.800257,226.123173 921.279997,228.681801 C917.440056,230.920695 912.319776,232.200009 905.279796,232.200009 C895.039776,232.200009 887.359895,229.961169 881.600255,225.483489 L885.119975,220.685967 C891.199835,224.523963 897.920136,226.442961 905.279796,226.442961 C910.079856,226.442961 913.600116,225.803331 916.160256,224.523963 C918.719857,223.244649 919.679977,221.645439 919.679977,219.406599 C919.679977,216.847917 918.079956,215.248761 914.879916,214.289289 C913.279896,213.969447 908.800056,213.329762 901.120176,213.00992 C894.720096,212.690078 889.920035,211.730606 887.359895,210.451238 C884.159855,208.852082 882.880055,206.2934 882.880055,202.775192 C882.880055,198.937196 884.480075,196.058672 887.999795,193.819832 C891.520055,191.580992 896.320116,190.62152 902.720196,190.62152 Z M852.480214,190.62152 C861.120214,190.62152 868.160194,192.540518 873.919835,196.378514 L870.079895,200.536352 C864.320254,197.657882 858.239854,196.058672 852.159994,196.058672 C847.999834,196.058672 845.120014,196.698356 842.880093,197.33804 C840.640173,198.297512 839.680053,199.57688 839.680053,201.176036 C839.680053,202.775192 840.959853,204.05456 843.199774,205.014032 C844.799794,205.653716 847.680154,205.973558 851.199874,206.2934 C856.639834,206.613242 860.160094,206.933084 862.079794,207.252926 C867.200074,207.892556 870.719795,209.171924 872.960255,211.090922 C875.200175,213.00992 876.479975,215.568603 876.479975,218.766969 C876.479975,222.924807 874.560275,226.123173 871.040015,228.681801 C867.200074,230.920695 862.079794,232.200009 855.039814,232.200009 C844.799794,232.200009 837.119913,229.961169 831.360273,225.483489 L834.879993,220.685967 C840.959853,224.523963 847.680154,226.442961 855.039814,226.442961 C859.839874,226.442961 863.360134,225.803331 865.920274,224.523963 C868.479875,223.244649 869.439995,221.645439 869.439995,219.406599 C869.439995,216.847917 867.839974,215.248761 864.639934,214.289289 C863.039914,213.969447 858.560074,213.329762 850.880194,213.00992 C844.480114,212.690078 839.680053,211.730606 837.119913,210.451238 C833.919873,208.852082 832.640073,206.2934 832.640073,202.775192 C832.640073,198.937196 834.240093,196.058672 837.759813,193.819832 C841.280073,191.580992 846.080134,190.62152 852.480214,190.62152 Z M694.079848,189.981836 C702.719848,189.981836 710.080048,193.180148 715.520008,199.57688 L709.440148,202.775192 C705.279988,198.297512 700.160248,196.058672 693.439948,196.058672 C688.320207,196.058672 684.160047,197.33804 680.639787,199.896722 C676.799847,202.775192 674.559927,206.613242 674.559927,211.090922 C674.559927,215.568603 676.159947,219.086811 679.680207,221.965281 C683.199927,224.843805 687.679767,226.123173 693.120268,226.123173 C701.760268,226.123173 707.519908,222.604965 710.080048,215.888445 L691.520247,215.888445 L691.520247,209.811554 L718.080149,209.811554 L718.080149,210.451238 L719.040269,210.451238 C719.040269,216.847917 716.799808,222.285123 712.000288,226.123173 C707.519908,229.961169 701.119828,232.200009 693.760168,232.200009 C686.720187,232.200009 680.960007,230.281011 676.159947,226.762803 C670.719987,222.604965 668.159847,217.487601 668.159847,211.090922 C668.159847,204.694244 670.719987,199.57688 676.159947,195.419042 C680.960007,191.900834 686.720187,189.981836 694.079848,189.981836 Z M633.599845,189.661994 C640.639825,189.661994 646.400006,191.580992 650.879846,195.0992 C656.640026,199.257038 659.200166,204.694244 659.200166,211.090922 C659.200166,217.487601 656.640026,222.924807 651.200066,226.762803 C646.400006,230.281011 640.639825,231.880167 633.599845,231.880167 C626.559865,231.880167 620.800225,229.961169 616.000164,226.442961 C610.560204,222.285123 608.000064,217.167759 608.000064,210.77108 C608.000064,204.374402 610.560204,199.257038 616.000164,195.0992 C620.800225,191.580992 626.559865,189.661994 633.599845,189.661994 Z M247.360024,189.661994 C254.400004,189.661994 260.160022,191.580992 264.640025,195.0992 C270.079985,199.257038 272.960021,204.694244 272.960021,211.090922 C272.960021,217.487601 270.399989,222.924807 264.960029,226.762803 C260.160022,230.281011 254.400004,231.880167 247.360024,231.880167 C240.31999,231.880167 234.560025,229.961169 229.760027,226.442961 C224.320005,222.285123 221.760027,217.167759 221.760027,210.77108 C221.760027,204.374402 224.320005,199.257038 229.760027,195.0992 C234.560025,191.580992 240.31999,189.661994 247.360024,189.661994 Z M825.600093,191.26115 L825.600093,197.33804 L792.319891,197.33804 L792.319891,207.252926 L815.360072,207.252926 L815.360072,213.329762 L792.319891,213.329762 L792.319891,224.843805 L827.200113,224.843805 L827.200113,230.920695 L785.600131,230.920695 L785.600131,191.26115 L825.600093,191.26115 Z M315.200011,191.26115 C319.360009,191.26115 322.559995,192.540518 325.120027,194.779358 C327.360001,197.018198 328.640017,199.896722 328.640017,203.734718 C328.640017,207.252926 327.680005,209.811554 325.760035,211.730606 C323.840011,213.649604 321.600037,214.928919 318.399997,215.248761 L329.280025,230.920695 L321.600037,230.920695 L310.720008,215.888445 L290.560026,215.888445 L290.560026,230.920695 L283.839995,230.920695 L283.839995,191.26115 L315.200011,191.26115 Z M345.920018,191.26115 L345.920018,211.730606 L373.759989,191.26115 L383.360001,191.26115 L362.880014,206.2934 L385.600029,230.920695 L376.960029,230.920695 L357.760004,210.131396 L345.920018,218.766969 L345.920018,230.920695 L339.519991,230.920695 L339.519991,191.26115 L345.920018,191.26115 Z M415.360025,191.26115 L415.360025,230.920695 L408.639994,230.920695 L408.639994,191.26115 L415.360025,191.26115 Z M436.160015,191.26115 L466.560019,223.884333 L466.560019,191.26115 L472.960045,191.26115 L472.960045,230.920695 L464.959998,230.920695 L434.559995,198.297512 L434.559995,230.920695 L427.840019,230.920695 L427.840019,191.26115 L436.160015,191.26115 Z M534.400005,191.26115 C538.560003,191.26115 541.759882,192.540518 543.999802,194.779358 C546.240262,197.018198 547.520062,199.896722 547.520062,203.734718 C547.520062,207.572714 546.240262,210.77108 543.680122,212.690078 C541.119982,214.928919 537.600045,215.888445 532.800039,215.888445 L509.120012,215.888445 L509.120012,230.920695 L502.400036,230.920695 L502.400036,191.26115 L534.400005,191.26115 Z M585.920003,191.26115 C590.080163,191.26115 593.280204,192.540518 595.839804,194.779358 C598.080264,197.018198 599.360064,199.896722 599.360064,203.734718 C599.360064,207.252926 598.399944,209.811554 596.480244,211.730606 C594.560004,213.649604 592.320084,214.928919 589.120043,215.248761 L599.999964,230.920695 L592.320084,230.920695 L581.440163,215.888445 L561.279802,215.888445 L561.279802,230.920695 L554.560042,230.920695 L554.560042,191.26115 L585.920003,191.26115 Z M761.28015,191.26115 C765.43977,191.26115 768.639811,192.540518 771.199951,194.779358 C773.439871,197.018198 774.720211,199.896722 774.720211,203.734718 C774.720211,207.252926 773.760091,209.811554 771.839851,211.730606 C769.920151,213.649604 767.680231,214.928919 764.48019,215.248761 L775.360111,230.920695 L767.680231,230.920695 L756.79977,215.888445 L736.639949,215.888445 L736.639949,230.920695 L729.920189,230.920695 L729.920189,191.26115 L761.28015,191.26115 Z M160.640016,191.26115 L170.560033,224.523963 L180.479995,191.26115 L188.799992,191.26115 L198.720008,224.523963 L208.960028,191.26115 L216.320013,191.26115 L203.20001,230.920695 L194.56001,230.920695 L184.636807,197.667008 L174.720031,230.920695 L166.399981,230.920695 L153.280032,191.26115 L160.640016,191.26115 Z M247.04002,196.058672 C241.600006,196.058672 237.120003,197.33804 233.600013,200.21651 C230.080023,203.095034 228.480003,206.613242 228.480003,211.090922 C228.480003,215.568603 230.080023,219.086811 233.600013,221.965281 C237.120003,224.843805 241.600006,226.123173 247.360024,226.123173 C253.119988,226.123173 257.59999,224.843805 260.80003,221.965281 C264.320021,219.086811 265.919987,215.568603 265.919987,211.090922 C265.919987,206.2934 264.000016,202.775192 259.840018,199.896722 C256.320028,197.33804 252.16003,196.058672 247.04002,196.058672 Z M633.599845,196.058672 C628.159885,196.058672 623.680045,197.33804 620.159785,200.21651 C616.640065,203.095034 615.040044,206.613242 615.040044,211.090922 C615.040044,215.568603 616.640065,219.086811 620.159785,221.965281 C623.680045,224.843805 628.159885,226.123173 633.599845,226.123173 C639.360025,226.123173 643.839866,224.843805 647.039906,221.965281 C650.560166,219.086811 652.479866,215.568603 652.479866,211.090922 C652.479866,206.2934 650.560166,202.775192 646.400006,199.896722 C642.880286,197.33804 638.720125,196.058672 633.599845,196.058672 Z M313.919994,197.33804 L290.88003,197.33804 L290.88003,209.811554 L314.560002,209.811554 C319.680013,209.811554 322.239991,207.892556 322.239991,203.734718 C322.239991,199.257038 319.360009,197.33804 313.919994,197.33804 Z M759.99981,197.33804 L736.960169,197.33804 L736.960169,209.811554 L760.64025,209.811554 C765.75999,209.811554 768.320131,207.892556 768.320131,203.734718 C768.320131,199.257038 765.43977,197.33804 759.99981,197.33804 Z M532.800039,197.33804 L509.440016,197.33804 L509.440016,209.811554 L533.120043,209.811554 C538.239999,209.811554 540.799761,207.892556 540.799761,203.734718 C540.799761,199.257038 538.239999,197.33804 532.800039,197.33804 Z M584.640203,197.33804 L561.600022,197.33804 L561.600022,209.811554 L585.280103,209.811554 C590.399843,209.811554 592.959984,207.892556 592.959984,203.734718 C592.959984,199.257038 590.080163,197.33804 584.640203,197.33804 Z M279.359993,46.6959619 L279.359993,127.614047 C279.359993,127.614047 280.320005,142.326456 265.600037,142.326456 L159.895418,142.323224 C157.826606,142.246247 125.760011,140.459022 125.760011,103.626544 C125.760011,103.626544 125.760011,66.2056226 160.320012,65.8859426 L234.880029,65.8859426 C234.880029,65.8859426 242.560018,66.2056226 242.560018,78.6790831 C242.560018,90.105111 235.400552,90.4991123 234.906796,90.5126981 L173.760011,90.5131836 C173.760011,90.5131836 159.039996,89.2339235 159.039996,103.946224 C159.039996,103.946224 159.039996,117.379319 173.760011,117.379319 L240.180292,117.375225 C241.5237,117.328146 249.920002,116.739652 249.920002,109.383484 L249.920002,55.6513222 C249.920002,55.6513222 251.520022,49.894382 245.119996,49.894382 L155.57089,49.8911792 C154.012808,49.8335834 146.207997,48.9986839 145.919994,38.0602815 C145.919994,26.9434314 154.571036,26.2615751 155.16766,26.2277692 L260.480026,26.226181 C260.480026,26.226181 279.359993,24.946921 279.359993,46.6959619 Z M1019.84026,0 C1032.22699,0 1032.92645,10.4836424 1032.95869,11.1600065 L1032.9601,25.906501 L1069.88239,25.9060305 C1071.03869,25.9185013 1080.00004,26.3915604 1080.00004,38.0602815 C1080.00004,49.4863095 1070.75257,50.1783238 1070.11481,50.2124626 L1032.9601,50.214062 L1032.9601,130.492571 C1032.9601,130.492571 1032.63988,142.326456 1019.84026,142.326456 C1007.45301,142.326456 1006.75353,131.243733 1006.72129,130.528719 L1006.71988,50.533742 L992.320239,50.533742 C992.320239,50.533742 984.960039,50.214062 984.960039,38.3799615 C984.960039,26.5464011 992.000019,26.226181 992.000019,26.226181 L1006.71988,26.5464011 L1006.71988,11.1942004 C1006.71988,11.1942004 1006.71988,0 1019.84026,0 Z M110.08003,25.906501 C110.08003,25.906501 118.400027,26.5464011 118.400027,37.4209215 C118.400027,49.361186 111.152386,50.1572036 110.186033,50.2102714 L45.6169101,50.2140093 C42.7514936,50.2924818 27.5484469,51.8824762 27.2020596,76.7731968 L27.2000009,87.6349835 C27.2000009,87.6349835 29.440002,116.100005 47.6800039,117.379319 L110.39998,117.379319 C110.39998,117.379319 118.400027,117.699161 118.400027,129.852887 C118.400027,141.601489 110.924428,141.993109 110.426055,142.006163 L40.640002,142.006614 C40.640002,142.96614 -1.166427e-11,138.48846 -1.166427e-11,81.5578232 C-1.166427e-11,24.307561 40.640002,26.226181 40.640002,26.226181 L110.08003,25.906501 Z M450.560034,0 C464.51,0 465.246252,9.3049392 465.278645,9.88649789 L465.280002,131.771885 C465.280002,131.771885 464.959998,142.006614 450.560034,142.006614 C435.975766,142.006614 435.533818,132.382774 435.520426,131.799511 L435.520007,9.91494039 C435.520007,9.91494039 435.520007,0 450.560034,0 Z M912.319776,0 C924.707026,0 925.406509,10.4836424 925.438747,11.1600065 L925.440157,26.226181 L959.040038,26.226181 C959.040038,26.226181 966.719918,26.5464011 966.719918,38.0602815 C966.719918,49.1771316 959.859072,49.8589879 959.385908,49.8927938 L925.440157,49.894382 L925.440157,130.172729 C925.440157,130.172729 925.119937,142.006614 912.319776,142.006614 C899.933045,142.006614 899.233583,130.923891 899.201345,130.208877 L899.199936,50.214062 L884.700104,50.2100753 C883.820103,50.1562556 877.440095,49.3758702 877.440095,38.0602815 C877.440095,26.226181 884.480075,25.906501 884.480075,25.906501 L899.199936,26.226181 L899.199936,11.1942004 C899.199936,11.1942004 899.199936,0 912.319776,0 Z M726.399929,46.3762818 L726.399929,127.294205 C726.399929,127.294205 727.039829,142.006614 712.319968,142.006614 L606.720264,142.006614 C606.720264,142.006614 572.479943,141.047088 572.479943,103.626544 C572.479943,103.626544 572.479943,66.2056226 607.039944,65.8859426 L681.599907,65.8859426 C681.599907,65.8859426 689.279787,66.2056226 689.279787,78.6790831 C689.279787,90.105111 682.120424,90.4991123 681.626675,90.5126981 L620.159785,90.5131836 C620.159785,90.5131836 605.439924,89.2339235 605.439924,103.946224 C605.439924,103.946224 605.439924,117.379319 620.159785,117.379319 L686.580268,117.375225 C687.923648,117.328146 696.319768,116.739652 696.319768,109.383484 L696.319768,55.6513222 C696.319768,55.6513222 697.919788,49.894382 691.520247,49.894382 L601.987855,49.8914793 C600.474705,49.8364446 592.670754,49.0069529 592.959984,37.7406015 C592.959984,26.62323 601.610924,25.9418592 602.207543,25.9080873 L707.519908,25.906501 C707.519908,25.906501 726.399929,24.627241 726.399929,46.3762818 Z M315.520015,25.906501 C329.280025,25.906501 330.240037,35.5017614 330.240037,35.5017614 L330.240037,130.172729 C330.240037,130.172729 330.240037,141.686772 316.160023,141.686772 C301.44,141.686772 301.119996,130.172729 301.119996,130.172729 L301.119996,35.8214414 L300.799992,35.8214414 C300.799992,35.8214414 301.760004,25.906501 315.520015,25.906501 Z M762.24027,25.906501 C776.000011,25.906501 776.960131,35.5017614 776.960131,35.5017614 L776.960131,130.172729 C776.960131,130.172729 776.960131,141.686772 762.88017,141.686772 C748.15977,141.686772 747.84009,130.172729 747.84009,130.172729 L747.84009,35.8214414 L747.51987,35.8214414 C747.51987,35.8214414 748.47999,25.906501 762.24027,25.906501 Z M370.880007,25.586821 C391.679998,25.586821 416.320037,32.3033413 416.959991,63.9667825 C416.959991,63.9667825 416.320037,80.5982432 411.52003,86.3551834 C411.52003,86.3551834 411.200026,86.9950835 410.880022,86.9950835 C408.959998,86.6754034 393.600022,81.8775033 387.840003,78.9993031 C387.199995,78.6790831 387.519999,78.0397231 387.519999,78.0397231 C387.519999,78.0397231 393.600022,63.3274225 385.280025,52.7725821 C377.280033,42.5379617 348.479996,45.0964818 342.720032,48.2949019 C342.720032,48.2949019 342.080024,48.6151219 341.76002,47.6555419 C340.547373,46.4436113 337.324334,35.4717234 336.988425,32.416527 L336.960013,31.9836613 L336.960013,31.9836613 C336.960013,31.3437612 337.600021,31.0240812 337.600021,31.0240812 C337.600021,31.0240812 350.080016,25.586821 370.880007,25.586821 Z M817.599992,25.586821 C838.400253,25.586821 863.039914,32.3033413 863.679814,63.9667825 C863.679814,63.9667825 863.039914,80.5982432 858.239854,86.3551834 C858.239854,86.3551834 857.920174,86.9950835 857.599954,86.9950835 C855.680254,86.6754034 840.319953,81.8775033 834.559773,78.9993031 C833.919873,78.6790831 834.240093,78.0397231 834.240093,78.0397231 C834.240093,78.0397231 840.319953,63.3274225 832.000173,52.7725821 C824.000073,42.5379617 795.200252,45.0964818 789.440071,48.2949019 C789.440071,48.2949019 788.800171,48.6151219 788.479951,47.6555419 C787.267511,46.4436113 784.04424,35.4717234 783.708306,32.416527 L783.679891,31.9836613 L783.679891,31.9836613 C783.679891,31.3437612 784.319791,31.0240812 784.319791,31.0240812 C784.319791,31.0240812 796.800272,25.586821 817.599992,25.586821 Z M470.075419,33.9174013 L470.080009,33.9022813 C470.080009,33.9022813 469.760005,33.5826013 472.000033,32.3033413 C472.000033,32.3033413 478.400005,27.5059811 506.560034,26.226181 C535.040013,26.226181 562.560142,35.8214414 562.560142,80.2785632 C562.560142,80.2785632 560.320222,112.901584 550.080202,137.528933 C550.080202,137.528933 549.439762,141.047088 545.280142,141.047088 L521.280003,141.047088 C521.280003,141.047088 515.520038,142.326456 517.760013,137.209091 C520.000041,132.091727 533.120043,101.387704 533.120043,84.1163433 C533.120043,67.4848827 528.320037,48.2949019 495.360002,48.2949019 L495.181493,48.296462 C493.718304,48.3159627 483.567431,48.5792219 476.160031,52.1332221 C476.160031,52.1332221 472.640041,54.0518421 472.000033,50.853962 C471.100021,48.4548432 469.637503,39.3096264 469.985555,34.7497593 L470.060974,34.0259484 L470.064619,33.9714013 L470.064619,34.0038014 L470.070019,33.9498013 L470.075419,33.9174013 Z" id="path-1"></path>
    </defs>
    <g id="carhartt-wip-copy" stroke="none" stroke-width="1" fill="none" fill-rule="evenodd">
        <g id="Fill-1-Clipped" transform="translate(0.000000, 313.000000)">
            <mask id="mask-2" fill="white">
                <use xlink:href="#path-1"></use>
            </mask>
            <use id="path-1" fill="#2D2B3A" xlink:href="#path-1"></use>
        </g>
    </g>
</svg>