<?xml version="1.0" encoding="UTF-8"?>
<svg width="1200px" height="500px" viewBox="0 0 1200 500" version="1.1" xmlns="http://www.w3.org/2000/svg" xmlns:xlink="http://www.w3.org/1999/xlink">
    <title>Dia and Co</title>
    <g id="Dia-and-Co." stroke="none" stroke-width="1" fill="none" fill-rule="evenodd">
        <g id="dia_logo_melanin" transform="translate(0.000000, 122.000000)" fill="#ffffff" fill-rule="nonzero">
            <g id="Group-4">
                <path d="M606.220625,175.776062 C604.5525,177.238312 603.35125,178.364875 602.190625,179.455375 C600.71,180.841062 599.313125,182.152375 597.135625,183.977437 C592.916875,187.514812 588.71375,191.207687 584.648125,194.781187 C578.565625,200.125562 572.273125,205.65475 565.81,210.762625 C565.151875,211.280812 564.4825,211.814812 563.795,212.360062 C554.52125,219.736812 542.978125,228.920562 531.398125,229.898375 C529.775625,230.024562 528.2975,229.555937 527.405,228.616375 C526.1225,227.26225 526.1025,225.121812 526.314375,223.567125 C527.06875,217.90725 530.224375,212.84225 533.278125,207.943937 L533.7875,207.123812 C544.43125,189.982 554.971875,175.21725 566.13,159.582812 C569.5375,154.808437 573.06,149.871812 576.5575,144.903687 C576.904375,144.408 577.29875,143.948312 577.80625,143.943812 L577.813125,143.943812 C578.2725,143.943812 578.65375,144.320125 579.0025,144.705375 C580.120625,145.935562 582.15375,148.103125 584.729375,150.851937 C592.288125,158.918125 606.290625,173.863125 606.6125,175.433562 L606.220625,175.776062 Z M560.92375,65.758125 C563.459375,49.59625 573.25125,34.655625 587.1225,25.794375 C591.46125,23.020625 599.98,18.311875 608.24,17.915 C608.699375,17.8925 609.15,17.88125 609.591875,17.88125 C613.060625,17.88125 616.0125,18.5575 618.376875,19.895625 C622.925,22.47125 623.684375,26.78125 623.521875,29.944375 C623.2875,34.55 621.65625,40.92625 619.72,44.776875 C610.07875,64.009375 596.65125,82.20125 583.663125,99.79625 C580.8125,103.658125 577.8625,107.6575 575.009375,111.58875 C574.630625,112.111875 573.9725,112.648125 573.355,112.465625 C573.0375,112.36625 572.81,112.08 572.584375,111.77125 C562.70625,98.275 558.45625,81.503125 560.92375,65.758125 Z M693.08375,231.043 C687.050625,226.255062 681.02,221.464937 674.989375,216.674812 C671.660625,214.031875 634.1775,180.153875 631.263125,177.517687 L678.755,130.253812 C678.986875,130.0105 679.261875,129.753625 679.550625,129.48775 C680.31,128.784812 681.17125,127.987125 681.520625,127.1175 C681.845,126.310812 681.896875,125.265437 681.950625,124.25625 C681.9825,123.586875 682.01625,122.958125 682.12,122.4175 C682.74375,119.23625 683.814375,116.183125 685.299375,113.341875 C685.509375,112.943125 685.74375,112.488125 685.67625,111.99 C685.63125,111.65625 685.46,111.38625 685.2975,111.125 C685.16875,110.921875 685.049375,110.728125 684.995625,110.525625 C684.89625,110.133125 685.03625,109.71 685.21375,109.236875 C685.716875,107.9075 685.07,103.880625 684.1975,102.900625 L683.7625,103 C682.056875,104.6625 658.95875,126.468562 651.165625,133.78225 L618.178125,164.7695 C611.901875,158.354875 601.54375,147.431687 587.61625,131.598937 C587.3525,131.200125 587.11125,130.76975 587.1225,130.325937 C587.131875,129.927125 587.339375,129.535125 587.57375,129.134062 C587.796875,128.74425 589.556875,126.295062 591.591875,123.458125 C594.375,119.580625 597.839375,114.756875 599.655625,112.050625 C604.410625,104.96 609.114375,98.51375 613.666875,92.28375 C619.280625,84.589375 624.585625,77.325625 629.744375,69.2325 C640.286875,52.69875 643.890625,38.970625 640.755625,27.265625 C636.786875,12.435625 621.223125,1.06875 603.750625,0.235 C588.001875,-0.4975 571.683125,6.715 560.085625,19.578125 C548.71125,32.204375 542.32625,49.72 542.57,67.635 C542.8175,85.961875 549.675625,104.12875 564.153125,124.815 C564.32,125.053625 564.511875,125.32625 564.520625,125.601125 C564.5275,125.848937 564.396875,126.094562 564.220625,126.387437 C559.2175,134.814187 553.610625,142.4545 547.67875,150.54325 L546.863125,151.65175 C543.683125,155.991312 540.52125,160.486312 537.463125,164.830312 C534.398125,169.187875 531.226875,173.691875 528.038125,178.040437 C527.32375,179.01375 526.605,179.989375 525.88125,180.965 C518.22125,191.318062 510.30375,202.022687 508.61625,214.502812 C506.835625,227.636312 513.795,244.02775 528.135,247.6035 C529.913125,248.047375 531.936875,248.385312 534.319375,248.385312 C540.65,248.385312 549.4975,245.9835 562.87125,236.732125 C572.904375,229.794812 582.694375,222.285062 591.970625,214.412687 C592.6175,213.865125 593.2575,213.310875 593.8975,212.754375 L594.855,211.927437 C596.76625,210.1565 605.15,202.299812 611.29125,196.543125 C611.715,196.133062 612.145625,195.732 612.578125,195.333187 L619.688125,188.668437 C622.331875,191.169375 657.67875,224.481937 678.96,239.014562 C680.61,240.143375 682.326875,241.297 684.22,242.547437 C684.87625,242.92825 685.49125,243.3 686.08625,243.669562 C688.655625,245.07325 694.98625,247.907687 698.280625,243.906125 C699.19375,242.797562 699.57875,241.50875 699.428125,240.073562 C699,236.026937 694.463125,232.138 693.08375,231.043 Z M370.24475,145.70575 C368.658125,148.245062 360.610312,160.333062 354.953562,167.948687 C339.937375,188.163687 313.952437,221.356812 310.031062,217.224562 C306.891687,213.91475 307.139562,209.379187 307.955375,205.2965 C309.751562,196.331312 313.292187,187.6545 318.358375,179.795625 C328.34225,164.312125 347.940125,132.187 371.851625,141.02375 C372.08825,142.673062 371.15075,144.257 370.24475,145.70575 Z M175.90575,173.622062 C162.050125,193.348187 134.54175,213.110375 112.638312,224.297125 C101.599812,229.932187 89.8739375,234.418187 77.7243125,237.367562 C73.85025,238.309312 45.3074375,244.18325 56.99275,233.933812 C72.6378125,220.21225 91.9066875,211.740437 110.157,201.799687 C123.462687,194.549062 174.733812,168.511937 177.94075,168.658745 C178.062437,170.465437 176.96275,172.116937 175.90575,173.622062 Z M444.595812,189.396187 C443.825062,189.8085 442.520125,192.836687 441.943187,193.607312 C441.853,193.726687 441.75625,193.861937 441.602875,193.891187 C441.535312,193.904687 441.4655,193.893437 441.395562,193.875437 C440.367937,193.641062 439.20725,191.811562 438.677687,190.87425 C433.428937,195.256562 429.624625,201.062875 424.436687,205.503812 C418.933187,210.215062 412.945125,214.399125 406.797187,218.321875 C398.487812,223.616687 379.949062,228.949812 376.931437,214.807 C373.325562,197.93775 377.276187,180.901937 381.812875,164.555437 C385.040062,152.924812 391.289562,142.560437 383.929187,131.046937 C374.4005,116.145 356.373375,119.558125 343.227687,127.550062 C317.224812,143.35125 305.510125,168.786812 291.591437,193.535187 C287.086312,201.540562 280.640812,208.277437 273.746937,214.266187 C267.283375,219.87875 260.064812,226.444375 251.829937,229.23375 C251.7915,229.24725 245.449687,227.667812 258.126625,194.274187 C261.468875,185.469 265.333937,176.86875 269.216937,168.286625 C272.845375,160.26775 277.350437,152.568812 279.78225,144.06325 C280.920375,139.953562 281.458875,135.841562 281.003687,131.781437 C280.030062,123.028125 271.333187,122.79625 263.463312,123.213125 C253.919,123.721875 221.664375,134.471687 221.664375,134.471687 C222.1805,134.318437 223.695,129.462937 223.911312,128.832125 C230.208062,110.520625 228.979875,90.57875 224.231375,72.1775 C223.149562,67.979375 221.774875,63.851875 220.082312,59.83 C216.106812,50.389375 210.806187,42.24 204.504937,35.228125 C204.43725,35.149375 204.374187,35.076875 204.311125,35.0025 C204.042875,34.7075 203.786,34.40125 203.515562,34.108125 C203.32625,33.903125 203.213562,33.78625 203.224812,33.813125 C167.109687,-4.643125 99.4678125,-6.711875 50.252,9.7925 C33.601875,15.37375 -1.09575,26.91875 0.0265625,48.38875 C0.3015,53.606875 3.107375,57.225625 8.3719375,59.055 C11.7885,60.246875 14.2653125,59.575625 15.7301875,56.529375 C18.5405,50.69375 23.183125,46.30875 28.4296875,42.6275 C46.323875,30.081875 65.9804375,21.400625 88.0461875,17.466875 C101.757562,15.02 115.403562,13.88 129.243375,15.1325 C158.117437,17.755 188.298687,30.458125 200.335625,57.178125 C210.2135,79.12375 206.51075,104.6425 201.101812,127.176062 C200.245375,130.74725 198.32525,136.096187 196.777062,139.511937 C194.638312,144.248 191.003125,146.03925 186.360625,148.37125 C152.390937,165.447687 118.180062,182.508375 83.739375,198.728687 C78.6145625,201.14175 73.627125,203.818437 68.3175,206.499687 C68.1214375,203.764375 88.023625,93.081875 102.713062,40.3475 C105.210187,31.3975 102.073062,25.111875 93.216125,21.866875 C92.8893125,21.7475 92.54675,21.630625 92.1929375,21.64625 C89.1685,21.810625 85.4611875,26.614375 84.7016875,29.014375 C75.7861875,57.130625 48.4490625,179.939812 43.0695625,213.76375 C42.8284375,215.277875 42.8509375,217.102937 41.9585,218.202375 C36.9598125,224.362437 28.31025,228.767375 28.553625,237.48925 C28.94125,251.456375 49.686375,256.649812 61.41225,256.226187 C67.5151875,256.005437 73.7173125,255.1965 79.750375,253.641875 C129.139687,240.93875 171.767937,207.529375 203.249625,170.113875 C208.453312,163.929062 211.29525,160.371375 215.5525,153.562375 L262.029937,135.924937 C262.029937,135.924937 259.145375,141.652375 255.278,149.506812 C254.613187,150.89475 239.707312,181.70625 236.79325,189.328625 C230.710687,206.524437 227.352687,224.490875 238.449812,239.134 C248.233,252.048937 262.14275,248.666937 272.994125,239.559812 C274.418437,238.361187 290.259562,224.121375 290.401562,224.36925 C291.997062,227.115812 294.162937,229.003937 296.779375,230.87175 C302.533062,234.974687 308.638312,236.750187 315.649437,235.819687 C322.067812,234.965687 326.147125,230.646437 329.955875,226.397062 C338.0645,217.35075 345.8555,208.043062 353.0695,198.320812 C353.82,197.306937 354.39475,195.957312 356.152562,195.741 C356.251687,196.608437 356.402687,197.309187 356.402687,198.014375 C356.46575,207.648812 358.430937,217.889187 363.31025,226.426375 C367.375812,233.537187 373.593687,237.543312 381.01275,241.067187 C393.732625,247.110062 407.9375,241.578625 418.50275,234.109562 C429.604312,226.264125 441.186,214.304562 446.049375,201.783875 C447.068062,199.159 447.548125,196.396625 447.723937,193.611812 C447.79825,192.399625 448.07775,190.459687 447.548125,189.037937 C446.443875,189.574187 445.449937,188.9365 444.595812,189.396187 Z M278.258687,87.708125 C277.3685,80.16 301.688,71.679375 308.002687,69.53875 C308.239437,70.325 307.660125,71.095625 307.274812,71.828125 C305.604812,75.009375 311.112812,72.27875 311.985062,75.1175 C313.99975,81.6625 309.280562,87.67875 304.795687,92.155625 C300.554437,96.39375 293.243437,104.53 286.5905,101.27375 C281.598687,98.831875 278.860437,92.81125 278.258687,87.708125 Z M980.0175,185.930875 C977.28375,199.307687 970.590625,217.474625 954.233125,228.032812 C948.709375,231.5995 942.921875,232.205625 937.939375,229.745187 C932.126875,226.877 928.248125,220.200937 928.05,212.736312 C927.35125,186.37025 940.305625,159.01725 963.595,137.680125 C965.690625,135.762687 970.888125,131.321812 974.01375,131.328549 L974.0675,131.328549 C976.43875,131.371375 979.645625,135.492375 981.485,154.8805 L981.556875,155.615062 L981.556875,155.617312 C982.564375,165.607625 982.0325,176.089187 980.0175,185.930875 Z M998.545,151.061437 C997.221875,142.677562 992.485,131.765625 990.6075,129.780687 C991.3375,129.631937 992.2325,129.965375 993.174375,130.301125 C994.52875,130.778812 995.92625,131.27675 996.924375,130.40475 C997.355,130.02625 997.501875,129.47425 997.580625,129.034875 C998.678125,122.761875 992.97375,113.456875 986.4875,110.93125 C976.434375,107.008125 965.375625,114.538125 958.061875,119.526875 C950.460625,124.71125 943.469375,131.143812 936.68375,139.1965 C931.2075,145.69 926.404375,153.192875 922.29875,161.450625 C922.29875,161.450625 920.94875,164.109312 920.74125,164.555437 C917.076875,172.761375 914.009375,182.197437 911.56875,192.579812 C908.900625,195.405312 894.566875,209.965 873.245,220.642562 C862.6325,225.955437 849.980625,231.473375 836.609375,232.10425 C835.96,232.133562 835.306875,232.149312 834.64625,232.149312 C816.139375,232.149312 793.05,219.975625 786.095625,185.1355 C782.79125,168.599812 781.051875,133.967 806.498125,87.806875 C817.601875,67.664375 833.15875,49.589375 851.490625,35.54375 C874.17125,18.160625 894.52875,12.309375 911.97875,18.135625 C921.10625,21.186875 926.75625,33.6375 926.75625,43.425 C926.75625,46.6875 926.50375,49.740625 926.283125,52.430625 C925.8325,57.910625 925.47375,62.23875 927.599375,64.54375 C928.74625,65.791875 930.57625,66.395625 933.18625,66.395625 C937.819375,66.395625 940.84875,65.474375 942.72125,63.498125 C945.67625,60.3775 945.608125,54.735625 945.189375,47.104375 C944.538125,35.19 940.335,25.266875 932.343125,16.768125 C922.016875,5.79125 908.675,0.20125 892.6875,0.155625 L892.49625,0.155625 C862.900625,0.155625 831.00875,19.50125 813.87625,37.510625 C794.808125,57.556875 779.623125,81.424375 769.96125,106.5375 C763.734375,122.719375 760.554375,142.046687 761.003125,160.950437 C761.49625,181.6905 766.265,200.303625 774.7975,214.779937 C785.716875,233.307437 801.988125,244.19675 823.161875,247.150625 C826.749375,247.650812 830.400625,247.898687 834.094375,247.898687 C849.200625,247.898687 864.971875,243.761937 879.496875,235.871437 C890.18375,230.062937 904.025625,221.149562 912.715625,214.487 C913.55875,218.137062 914.791875,221.965187 916.583125,225.673812 C922.62125,238.169625 931.3675,245.336875 941.87625,246.393562 C942.764375,246.481437 943.66125,246.52425 944.566875,246.5265 C957.014375,246.55125 970.986875,238.4175 981.6625,224.7455 C997.165625,204.893187 1003.005,179.410312 998.545,151.061437 L998.545,151.061437 Z" id="Fill-3"></path>
            </g>
        </g>
    </g>
</svg>