<?xml version="1.0" encoding="UTF-8"?>
<svg viewBox="0 0 464 464" version="1.1" xmlns="http://www.w3.org/2000/svg" xmlns:xlink="http://www.w3.org/1999/xlink">
    <title>Group 176</title>
    <defs>
        <path d="M34,0 C52.7777,0 68,15.22232 68,34 C68,52.5899032 53.0806238,67.6951981 34.5622527,67.995445 L34,68 C15.2223,68 0,52.77768 0,34 C0,15.22232 15.2223,0 34,0 Z" id="path-1"></path>
        <path d="M34,0 C52.7777,0 68,15.22232 68,34 C68,52.77768 52.7777,68 34,68 C15.2223,68 0,52.77768 0,34 C0,15.22232 15.2223,0 34,0 Z" id="path-3"></path>
        <path d="M34,0 C52.7777,0 68,15.22232 68,34 C68,52.5899032 53.0806238,67.6951981 34.5622527,67.995445 L34,68 C15.2223,68 0,52.77768 0,34 C0,15.22232 15.2223,0 34,0 Z" id="path-5"></path>
        <path d="M34,0 C52.7777,0 68,15.22232 68,34 C68,52.77768 52.7777,68 34,68 C15.2223,68 0,52.77768 0,34 C0,15.22232 15.2223,0 34,0 Z" id="path-7"></path>
        <path d="M34,0 C52.77768,0 68,15.22232 68,34 C68,52.5899032 53.0806042,67.6951981 34.5622521,67.995445 L34,68 C15.22232,68 0,52.77768 0,34 C0,15.22232 15.22232,0 34,0 Z" id="path-9"></path>
        <path d="M34,0 C52.77768,0 68,15.22232 68,34 C68,52.77768 52.77768,68 34,68 C15.22232,68 0,52.77768 0,34 C0,15.22232 15.22232,0 34,0 Z" id="path-11"></path>
        <path d="M34,0 C52.7777,0 68,15.2223 68,34 C68,52.589923 53.0806238,67.6951985 34.5622527,67.995445 L34,68 C15.2223,68 0,52.7777 0,34 C0,15.2223 15.2223,0 34,0 Z" id="path-13"></path>
        <path d="M34,0 C52.7777,0 68,15.2223 68,34 C68,52.7777 52.7777,68 34,68 C15.2223,68 0,52.7777 0,34 C0,15.2223 15.2223,0 34,0 Z" id="path-15"></path>
        <path d="M34,0 C52.7777,0 68,15.2223 68,34 C68,52.589923 53.0806238,67.6951985 34.5622527,67.995445 L34,68 C15.2223,68 0,52.7777 0,34 C0,15.2223 15.2223,0 34,0 Z" id="path-17"></path>
        <path d="M34,0 C52.7777,0 68,15.2223 68,34 C68,52.7777 52.7777,68 34,68 C15.2223,68 0,52.7777 0,34 C0,15.2223 15.2223,0 34,0 Z" id="path-19"></path>
        <path d="M34,0 C52.77768,0 68,15.2223 68,34 C68,52.589923 53.0806042,67.6951985 34.5622521,67.995445 L34,68 C15.22232,68 0,52.7777 0,34 C0,15.2223 15.22232,0 34,0 Z" id="path-21"></path>
        <path d="M34,0 C52.77768,0 68,15.2223 68,34 C68,52.7777 52.77768,68 34,68 C15.22232,68 0,52.7777 0,34 C0,15.2223 15.22232,0 34,0 Z" id="path-23"></path>
        <path d="M34,0 C52.7777,0 68,15.2223 68,34 C68,52.589923 53.0806238,67.6951985 34.5622527,67.995445 L34,68 C15.2223,68 0,52.7777 0,34 C0,15.2223 15.2223,0 34,0 Z" id="path-25"></path>
        <path d="M34,0 C52.7777,0 68,15.2223 68,34 C68,52.7777 52.7777,68 34,68 C15.2223,68 0,52.7777 0,34 C0,15.2223 15.2223,0 34,0 Z" id="path-27"></path>
        <path d="M34,0 C52.77768,0 68,15.2223 68,34 C68,52.589923 53.0806042,67.6951985 34.5622521,67.995445 L34,68 C15.22232,68 0,52.7777 0,34 C0,15.2223 15.22232,0 34,0 Z" id="path-29"></path>
        <path d="M34,0 C52.77768,0 68,15.2223 68,34 C68,52.7777 52.77768,68 34,68 C15.22232,68 0,52.7777 0,34 C0,15.2223 15.22232,0 34,0 Z" id="path-31"></path>
        <path d="M34,0 C52.7777,0 68,15.2223 68,34 C68,52.589923 53.0806238,67.6951985 34.5622527,67.995445 L34,68 C15.2223,68 0,52.7777 0,34 C0,15.2223 15.2223,0 34,0 Z" id="path-33"></path>
        <path d="M34,0 C52.7777,0 68,15.2223 68,34 C68,52.7777 52.7777,68 34,68 C15.2223,68 0,52.7777 0,34 C0,15.2223 15.2223,0 34,0 Z" id="path-35"></path>
        <path d="M34,0 C52.77768,0 68,15.2223 68,34 C68,52.589923 53.0806042,67.6951985 34.5622521,67.995445 L34,68 C15.22232,68 0,52.7777 0,34 C0,15.2223 15.22232,0 34,0 Z" id="path-37"></path>
        <path d="M34,0 C52.77768,0 68,15.2223 68,34 C68,52.7777 52.77768,68 34,68 C15.22232,68 0,52.7777 0,34 C0,15.2223 15.22232,0 34,0 Z" id="path-39"></path>
        <path d="M34,0 C52.7777,0 68,15.2223 68,34 C68,52.589923 53.0806238,67.6951985 34.5622527,67.995445 L34,68 C15.2223,68 0,52.7777 0,34 C0,15.2223 15.2223,0 34,0 Z" id="path-41"></path>
        <path d="M34,0 C52.7777,0 68,15.2223 68,34 C68,52.7777 52.7777,68 34,68 C15.2223,68 0,52.7777 0,34 C0,15.2223 15.2223,0 34,0 Z" id="path-43"></path>
        <path d="M34,0 C52.7777,0 68,15.2223 68,34 C68,52.589923 53.0806238,67.6951985 34.5622527,67.995445 L34,68 C15.2223,68 0,52.7777 0,34 C0,15.2223 15.2223,0 34,0 Z" id="path-45"></path>
        <path d="M34,0 C52.7777,0 68,15.2223 68,34 C68,52.7777 52.7777,68 34,68 C15.2223,68 0,52.7777 0,34 C0,15.2223 15.2223,0 34,0 Z" id="path-47"></path>
        <path d="M34,0 C52.7777,0 68,15.2223 68,34 C68,52.589923 53.0806238,67.6951985 34.5622527,67.995445 L34,68 C15.2223,68 0,52.7777 0,34 C0,15.2223 15.2223,0 34,0 Z" id="path-49"></path>
        <path d="M34,0 C52.7777,0 68,15.2223 68,34 C68,52.7777 52.7777,68 34,68 C15.2223,68 0,52.7777 0,34 C0,15.2223 15.2223,0 34,0 Z" id="path-51"></path>
        <path d="M34,0 C52.7777,0 68,15.22232 68,34 C68,52.5899032 53.0806238,67.6951981 34.5622527,67.995445 L34,68 C15.2223,68 0,52.77768 0,34 C0,15.22232 15.2223,0 34,0 Z" id="path-53"></path>
        <path d="M34,0 C52.7777,0 68,15.22232 68,34 C68,52.77768 52.7777,68 34,68 C15.2223,68 0,52.77768 0,34 C0,15.22232 15.2223,0 34,0 Z" id="path-55"></path>
        <path d="M34,0 C52.7777,0 68,15.22232 68,34 C68,52.5899032 53.0806238,67.6951981 34.5622527,67.995445 L34,68 C15.2223,68 0,52.77768 0,34 C0,15.22232 15.2223,0 34,0 Z" id="path-57"></path>
        <path d="M34,0 C52.7777,0 68,15.22232 68,34 C68,52.77768 52.7777,68 34,68 C15.2223,68 0,52.77768 0,34 C0,15.22232 15.2223,0 34,0 Z" id="path-59"></path>
        <path d="M34,0 C52.7777,0 68,15.2223 68,34 C68,52.589923 53.0806238,67.6951985 34.5622527,67.995445 L34,68 C15.2223,68 0,52.7777 0,34 C0,15.2223 15.2223,0 34,0 Z" id="path-61"></path>
        <path d="M34,0 C52.7777,0 68,15.2223 68,34 C68,52.7777 52.7777,68 34,68 C15.2223,68 0,52.7777 0,34 C0,15.2223 15.2223,0 34,0 Z" id="path-63"></path>
        <path d="M34,0 C52.7777,0 68,15.2223 68,34 C68,52.589923 53.0806238,67.6951985 34.5622527,67.995445 L34,68 C15.2223,68 0,52.7777 0,34 C0,15.2223 15.2223,0 34,0 Z" id="path-65"></path>
        <path d="M34,0 C52.7777,0 68,15.2223 68,34 C68,52.7777 52.7777,68 34,68 C15.2223,68 0,52.7777 0,34 C0,15.2223 15.2223,0 34,0 Z" id="path-67"></path>
        <path d="M34,0 C52.7777,0 68,15.2223 68,34 C68,52.589923 53.0806238,67.6951985 34.5622527,67.995445 L34,68 C15.2223,68 0,52.7777 0,34 C0,15.2223 15.2223,0 34,0 Z" id="path-69"></path>
        <path d="M34,0 C52.7777,0 68,15.2223 68,34 C68,52.7777 52.7777,68 34,68 C15.2223,68 0,52.7777 0,34 C0,15.2223 15.2223,0 34,0 Z" id="path-71"></path>
        <path d="M34,0 C52.7777,0 68,15.2223 68,34 C68,52.589923 53.0806238,67.6951985 34.5622527,67.995445 L34,68 C15.2223,68 0,52.7777 0,34 C0,15.2223 15.2223,0 34,0 Z" id="path-73"></path>
        <path d="M34,0 C52.7777,0 68,15.2223 68,34 C68,52.7777 52.7777,68 34,68 C15.2223,68 0,52.7777 0,34 C0,15.2223 15.2223,0 34,0 Z" id="path-75"></path>
        <path d="M34,0 C52.7777,0 68,15.2223 68,34 C68,52.589923 53.0806238,67.6951985 34.5622527,67.995445 L34,68 C15.2223,68 0,52.7777 0,34 C0,15.2223 15.2223,0 34,0 Z" id="path-77"></path>
        <path d="M34,0 C52.7777,0 68,15.2223 68,34 C68,52.7777 52.7777,68 34,68 C15.2223,68 0,52.7777 0,34 C0,15.2223 15.2223,0 34,0 Z" id="path-79"></path>
        <path d="M34,0 C52.7777,0 68,15.2223 68,34 C68,52.589923 53.0806238,67.6951985 34.5622527,67.995445 L34,68 C15.2223,68 0,52.7777 0,34 C0,15.2223 15.2223,0 34,0 Z" id="path-81"></path>
        <path d="M34,0 C52.7777,0 68,15.2223 68,34 C68,52.7777 52.7777,68 34,68 C15.2223,68 0,52.7777 0,34 C0,15.2223 15.2223,0 34,0 Z" id="path-83"></path>
        <path d="M34,0 C52.77768,0 68,15.2223 68,34 C68,52.589923 53.0806042,67.6951985 34.5622521,67.995445 L34,68 C15.22232,68 0,52.7777 0,34 C0,15.2223 15.22232,0 34,0 Z" id="path-85"></path>
        <path d="M34,0 C52.77768,0 68,15.2223 68,34 C68,52.7777 52.77768,68 34,68 C15.22232,68 0,52.7777 0,34 C0,15.2223 15.22232,0 34,0 Z" id="path-87"></path>
        <path d="M34,0 C52.7777,0 68,15.2223 68,34 C68,52.589923 53.0806238,67.6951985 34.5622527,67.995445 L34,68 C15.2223,68 0,52.7777 0,34 C0,15.2223 15.2223,0 34,0 Z" id="path-89"></path>
        <path d="M34,0 C52.7777,0 68,15.2223 68,34 C68,52.7777 52.7777,68 34,68 C15.2223,68 0,52.7777 0,34 C0,15.2223 15.2223,0 34,0 Z" id="path-91"></path>
        <path d="M34,0 C52.7777,0 68,15.2223 68,34 C68,52.589923 53.0806238,67.6951985 34.5622527,67.995445 L34,68 C15.2223,68 0,52.7777 0,34 C0,15.2223 15.2223,0 34,0 Z" id="path-93"></path>
        <path d="M34,0 C52.7777,0 68,15.2223 68,34 C68,52.7777 52.7777,68 34,68 C15.2223,68 0,52.7777 0,34 C0,15.2223 15.2223,0 34,0 Z" id="path-95"></path>
        <path d="M34,0 C52.7777,0 68,15.2223 68,34 C68,52.589923 53.0806238,67.6951985 34.5622527,67.995445 L34,68 C15.2223,68 0,52.7777 0,34 C0,15.2223 15.2223,0 34,0 Z" id="path-97"></path>
        <path d="M34,0 C52.7777,0 68,15.2223 68,34 C68,52.7777 52.7777,68 34,68 C15.2223,68 0,52.7777 0,34 C0,15.2223 15.2223,0 34,0 Z" id="path-99"></path>
    </defs>
    <g id="📄-template---about" stroke="none" stroke-width="1" fill="none" fill-rule="evenodd">
        <g id="Group-176">
            <g id="Group-7" transform="translate(396.000000, 396.000000)">
                <g id="Group-3">
                    <mask id="mask-2" fill="white">
                        <use xlink:href="#path-1"></use>
                    </mask>
                    <g id="Clip-2"></g>
                    <path d="M34,68 C52.7777,68 68,52.77768 68,34 C68,15.22232 52.7777,0 34,0 C15.2223,0 0,15.22232 0,34 C0,52.77768 15.2223,68 34,68 Z" id="Fill-1" fill="#FFFFFF" mask="url(#mask-2)"></path>
                </g>
                <g id="Group-6">
                    <mask id="mask-4" fill="white">
                        <use xlink:href="#path-3"></use>
                    </mask>
                    <g id="Clip-5"></g>
                    <path d="M34,68 C52.77768,68 68,52.77768 68,34 C68,15.22232 52.77768,0 34,0 C15.22232,0 0,15.22232 0,34 C0,52.77768 15.22232,68 34,68 Z" id="Stroke-4" stroke="#6849E3" stroke-width="14" mask="url(#mask-4)"></path>
                </g>
            </g>
            <g id="Group-14" transform="translate(99.000000, 396.000000)">
                <g id="Group-10">
                    <mask id="mask-6" fill="white">
                        <use xlink:href="#path-5"></use>
                    </mask>
                    <g id="Clip-9"></g>
                    <path d="M34,68 C52.7777,68 68,52.77768 68,34 C68,15.22232 52.7777,0 34,0 C15.2223,0 0,15.22232 0,34 C0,52.77768 15.2223,68 34,68 Z" id="Fill-8" fill="#FFFFFF" mask="url(#mask-6)"></path>
                </g>
                <g id="Group-13">
                    <mask id="mask-8" fill="white">
                        <use xlink:href="#path-7"></use>
                    </mask>
                    <g id="Clip-12"></g>
                    <path d="M34,68 C52.77768,68 68,52.77768 68,34 C68,15.22232 52.77768,0 34,0 C15.22232,0 0,15.22232 0,34 C0,52.77768 15.22232,68 34,68 Z" id="Stroke-11" stroke="#6849E3" stroke-width="14" mask="url(#mask-8)"></path>
                </g>
            </g>
            <g id="Group-21" transform="translate(0.000000, 396.000000)">
                <g id="Group-17">
                    <mask id="mask-10" fill="white">
                        <use xlink:href="#path-9"></use>
                    </mask>
                    <g id="Clip-16"></g>
                    <path d="M34,68 C52.77768,68 68,52.77768 68,34 C68,15.22232 52.77768,0 34,0 C15.22232,0 0,15.22232 0,34 C0,52.77768 15.22232,68 34,68 Z" id="Fill-15" fill="#FFFFFF" mask="url(#mask-10)"></path>
                </g>
                <g id="Group-20">
                    <mask id="mask-12" fill="white">
                        <use xlink:href="#path-11"></use>
                    </mask>
                    <g id="Clip-19"></g>
                    <path d="M34,68 C52.77768,68 68,52.77768 68,34 C68,15.22232 52.77768,0 34,0 C15.22232,0 0,15.22232 0,34 C0,52.77768 15.22232,68 34,68 Z" id="Stroke-18" stroke="#6849E3" stroke-width="14" mask="url(#mask-12)"></path>
                </g>
            </g>
            <g id="Group-28" transform="translate(396.000000, 297.000000)">
                <g id="Group-24">
                    <mask id="mask-14" fill="white">
                        <use xlink:href="#path-13"></use>
                    </mask>
                    <g id="Clip-23"></g>
                    <path d="M34,68 C52.7777,68 68,52.7777 68,34 C68,15.2223 52.7777,0 34,0 C15.2223,0 0,15.2223 0,34 C0,52.7777 15.2223,68 34,68 Z" id="Fill-22" fill="#FFFFFF" mask="url(#mask-14)"></path>
                </g>
                <g id="Group-27">
                    <mask id="mask-16" fill="white">
                        <use xlink:href="#path-15"></use>
                    </mask>
                    <g id="Clip-26"></g>
                    <path d="M34,68 C52.77768,68 68,52.77768 68,34 C68,15.22232 52.77768,0 34,0 C15.22232,0 0,15.22232 0,34 C0,52.77768 15.22232,68 34,68 Z" id="Stroke-25" stroke="#6849E3" stroke-width="14" mask="url(#mask-16)"></path>
                </g>
            </g>
            <g id="Group-35" transform="translate(198.000000, 297.000000)">
                <g id="Group-31">
                    <mask id="mask-18" fill="white">
                        <use xlink:href="#path-17"></use>
                    </mask>
                    <g id="Clip-30"></g>
                    <path d="M34,68 C52.7777,68 68,52.7777 68,34 C68,15.2223 52.7777,0 34,0 C15.2223,0 0,15.2223 0,34 C0,52.7777 15.2223,68 34,68 Z" id="Fill-29" fill="#FFFFFF" mask="url(#mask-18)"></path>
                </g>
                <g id="Group-34">
                    <mask id="mask-20" fill="white">
                        <use xlink:href="#path-19"></use>
                    </mask>
                    <g id="Clip-33"></g>
                    <path d="M34,68 C52.77768,68 68,52.77768 68,34 C68,15.22232 52.77768,0 34,0 C15.22232,0 0,15.22232 0,34 C0,52.77768 15.22232,68 34,68 Z" id="Stroke-32" stroke="#6849E3" stroke-width="14" mask="url(#mask-20)"></path>
                </g>
            </g>
            <g id="Group-42" transform="translate(0.000000, 297.000000)">
                <g id="Group-38">
                    <mask id="mask-22" fill="white">
                        <use xlink:href="#path-21"></use>
                    </mask>
                    <g id="Clip-37"></g>
                    <path d="M34,68 C52.77768,68 68,52.7777 68,34 C68,15.2223 52.77768,0 34,0 C15.22232,0 0,15.2223 0,34 C0,52.7777 15.22232,68 34,68 Z" id="Fill-36" fill="#FFFFFF" mask="url(#mask-22)"></path>
                </g>
                <g id="Group-41">
                    <mask id="mask-24" fill="white">
                        <use xlink:href="#path-23"></use>
                    </mask>
                    <g id="Clip-40"></g>
                    <path d="M34,68 C52.77768,68 68,52.77768 68,34 C68,15.22232 52.77768,0 34,0 C15.22232,0 0,15.22232 0,34 C0,52.77768 15.22232,68 34,68 Z" id="Stroke-39" stroke="#6849E3" stroke-width="14" mask="url(#mask-24)"></path>
                </g>
            </g>
            <g id="Group-49" transform="translate(297.000000, 198.000000)">
                <g id="Group-45">
                    <mask id="mask-26" fill="white">
                        <use xlink:href="#path-25"></use>
                    </mask>
                    <g id="Clip-44"></g>
                    <path d="M34,68 C52.7777,68 68,52.7777 68,34 C68,15.2223 52.7777,0 34,0 C15.2223,0 0,15.2223 0,34 C0,52.7777 15.2223,68 34,68 Z" id="Fill-43" fill="#FFFFFF" mask="url(#mask-26)"></path>
                </g>
                <g id="Group-48">
                    <mask id="mask-28" fill="white">
                        <use xlink:href="#path-27"></use>
                    </mask>
                    <g id="Clip-47"></g>
                    <path d="M34,68 C52.77768,68 68,52.77768 68,34 C68,15.22232 52.77768,0 34,0 C15.22232,0 0,15.22232 0,34 C0,52.77768 15.22232,68 34,68 Z" id="Stroke-46" stroke="#6849E3" stroke-width="14" mask="url(#mask-28)"></path>
                </g>
            </g>
            <g id="Group-56" transform="translate(0.000000, 198.000000)">
                <g id="Group-52">
                    <mask id="mask-30" fill="white">
                        <use xlink:href="#path-29"></use>
                    </mask>
                    <g id="Clip-51"></g>
                    <path d="M34,68 C52.77768,68 68,52.7777 68,34 C68,15.2223 52.77768,0 34,0 C15.22232,0 0,15.2223 0,34 C0,52.7777 15.22232,68 34,68 Z" id="Fill-50" fill="#FFFFFF" mask="url(#mask-30)"></path>
                </g>
                <g id="Group-55">
                    <mask id="mask-32" fill="white">
                        <use xlink:href="#path-31"></use>
                    </mask>
                    <g id="Clip-54"></g>
                    <path d="M34,68 C52.77768,68 68,52.77768 68,34 C68,15.22232 52.77768,0 34,0 C15.22232,0 0,15.22232 0,34 C0,52.77768 15.22232,68 34,68 Z" id="Stroke-53" stroke="#6849E3" stroke-width="14" mask="url(#mask-32)"></path>
                </g>
            </g>
            <g id="Group-63" transform="translate(297.000000, 99.000000)">
                <g id="Group-59">
                    <mask id="mask-34" fill="white">
                        <use xlink:href="#path-33"></use>
                    </mask>
                    <g id="Clip-58"></g>
                    <path d="M34,68 C52.7777,68 68,52.7777 68,34 C68,15.2223 52.7777,0 34,0 C15.2223,0 0,15.2223 0,34 C0,52.7777 15.2223,68 34,68 Z" id="Fill-57" fill="#FFFFFF" mask="url(#mask-34)"></path>
                </g>
                <g id="Group-62">
                    <mask id="mask-36" fill="white">
                        <use xlink:href="#path-35"></use>
                    </mask>
                    <g id="Clip-61"></g>
                    <path d="M34,68 C52.77768,68 68,52.77768 68,34 C68,15.22232 52.77768,0 34,0 C15.22232,0 0,15.22232 0,34 C0,52.77768 15.22232,68 34,68 Z" id="Stroke-60" stroke="#6849E3" stroke-width="14" mask="url(#mask-36)"></path>
                </g>
            </g>
            <g id="Group-70" transform="translate(0.000000, 99.000000)">
                <g id="Group-66">
                    <mask id="mask-38" fill="white">
                        <use xlink:href="#path-37"></use>
                    </mask>
                    <g id="Clip-65"></g>
                    <path d="M34,68 C52.77768,68 68,52.7777 68,34 C68,15.2223 52.77768,0 34,0 C15.22232,0 0,15.2223 0,34 C0,52.7777 15.22232,68 34,68 Z" id="Fill-64" fill="#FFFFFF" mask="url(#mask-38)"></path>
                </g>
                <g id="Group-69">
                    <mask id="mask-40" fill="white">
                        <use xlink:href="#path-39"></use>
                    </mask>
                    <g id="Clip-68"></g>
                    <path d="M34,68 C52.77768,68 68,52.77768 68,34 C68,15.22232 52.77768,0 34,0 C15.22232,0 0,15.22232 0,34 C0,52.77768 15.22232,68 34,68 Z" id="Stroke-67" stroke="#6849E3" stroke-width="14" mask="url(#mask-40)"></path>
                </g>
            </g>
            <g id="Group-77" transform="translate(396.000000, 0.000000)">
                <g id="Group-73">
                    <mask id="mask-42" fill="white">
                        <use xlink:href="#path-41"></use>
                    </mask>
                    <g id="Clip-72"></g>
                    <path d="M34,68 C52.7777,68 68,52.7777 68,34 C68,15.2223 52.7777,0 34,0 C15.2223,0 0,15.2223 0,34 C0,52.7777 15.2223,68 34,68 Z" id="Fill-71" fill="#FFFFFF" mask="url(#mask-42)"></path>
                </g>
                <g id="Group-76">
                    <mask id="mask-44" fill="white">
                        <use xlink:href="#path-43"></use>
                    </mask>
                    <g id="Clip-75"></g>
                    <path d="M34,68 C52.77768,68 68,52.77768 68,34 C68,15.22232 52.77768,0 34,0 C15.22232,0 0,15.22232 0,34 C0,52.77768 15.22232,68 34,68 Z" id="Stroke-74" stroke="#6849E3" stroke-width="14" mask="url(#mask-44)"></path>
                </g>
            </g>
            <g id="Group-84" transform="translate(297.000000, 0.000000)">
                <g id="Group-80">
                    <mask id="mask-46" fill="white">
                        <use xlink:href="#path-45"></use>
                    </mask>
                    <g id="Clip-79"></g>
                    <path d="M34,68 C52.7777,68 68,52.7777 68,34 C68,15.2223 52.7777,0 34,0 C15.2223,0 0,15.2223 0,34 C0,52.7777 15.2223,68 34,68 Z" id="Fill-78" fill="#FFFFFF" mask="url(#mask-46)"></path>
                </g>
                <g id="Group-83">
                    <mask id="mask-48" fill="white">
                        <use xlink:href="#path-47"></use>
                    </mask>
                    <g id="Clip-82"></g>
                    <path d="M34,68 C52.77768,68 68,52.77768 68,34 C68,15.22232 52.77768,0 34,0 C15.22232,0 0,15.22232 0,34 C0,52.77768 15.22232,68 34,68 Z" id="Stroke-81" stroke="#6849E3" stroke-width="14" mask="url(#mask-48)"></path>
                </g>
            </g>
            <g id="Group-91" transform="translate(99.000000, 0.000000)">
                <g id="Group-87">
                    <mask id="mask-50" fill="white">
                        <use xlink:href="#path-49"></use>
                    </mask>
                    <g id="Clip-86"></g>
                    <path d="M34,68 C52.7777,68 68,52.7777 68,34 C68,15.2223 52.7777,0 34,0 C15.2223,0 0,15.2223 0,34 C0,52.7777 15.2223,68 34,68 Z" id="Fill-85" fill="#FFFFFF" mask="url(#mask-50)"></path>
                </g>
                <g id="Group-90">
                    <mask id="mask-52" fill="white">
                        <use xlink:href="#path-51"></use>
                    </mask>
                    <g id="Clip-89"></g>
                    <path d="M34,68 C52.77768,68 68,52.77768 68,34 C68,15.22232 52.77768,0 34,0 C15.22232,0 0,15.22232 0,34 C0,52.77768 15.22232,68 34,68 Z" id="Stroke-88" stroke="#6849E3" stroke-width="14" mask="url(#mask-52)"></path>
                </g>
            </g>
            <g id="Group-98" transform="translate(297.000000, 396.000000)">
                <g id="Group-94">
                    <mask id="mask-54" fill="white">
                        <use xlink:href="#path-53"></use>
                    </mask>
                    <g id="Clip-93"></g>
                    <path d="M34,68 C52.7777,68 68,52.77768 68,34 C68,15.22232 52.7777,0 34,0 C15.2223,0 0,15.22232 0,34 C0,52.77768 15.2223,68 34,68 Z" id="Fill-92" fill="#FFFFFF" mask="url(#mask-54)"></path>
                </g>
                <g id="Group-97">
                    <mask id="mask-56" fill="white">
                        <use xlink:href="#path-55"></use>
                    </mask>
                    <g id="Clip-96"></g>
                    <path d="M34,68 C52.77768,68 68,52.77768 68,34 C68,15.22232 52.77768,0 34,0 C15.22232,0 0,15.22232 0,34 C0,52.77768 15.22232,68 34,68 Z" id="Stroke-95" stroke="#6849E3" stroke-width="14" mask="url(#mask-56)"></path>
                </g>
            </g>
            <g id="Group-105" transform="translate(198.000000, 396.000000)">
                <g id="Group-101">
                    <mask id="mask-58" fill="white">
                        <use xlink:href="#path-57"></use>
                    </mask>
                    <g id="Clip-100"></g>
                    <path d="M34,68 C52.7777,68 68,52.77768 68,34 C68,15.22232 52.7777,0 34,0 C15.2223,0 0,15.22232 0,34 C0,52.77768 15.2223,68 34,68 Z" id="Fill-99" fill="#FFFFFF" mask="url(#mask-58)"></path>
                </g>
                <g id="Group-104">
                    <mask id="mask-60" fill="white">
                        <use xlink:href="#path-59"></use>
                    </mask>
                    <g id="Clip-103"></g>
                    <path d="M34,68 C52.77768,68 68,52.77768 68,34 C68,15.22232 52.77768,0 34,0 C15.22232,0 0,15.22232 0,34 C0,52.77768 15.22232,68 34,68 Z" id="Stroke-102" stroke="#6849E3" stroke-width="14" mask="url(#mask-60)"></path>
                </g>
            </g>
            <g id="Group-112" transform="translate(297.000000, 297.000000)">
                <g id="Group-108">
                    <mask id="mask-62" fill="white">
                        <use xlink:href="#path-61"></use>
                    </mask>
                    <g id="Clip-107"></g>
                    <path d="M34,68 C52.7777,68 68,52.7777 68,34 C68,15.2223 52.7777,0 34,0 C15.2223,0 0,15.2223 0,34 C0,52.7777 15.2223,68 34,68 Z" id="Fill-106" fill="#FFFFFF" mask="url(#mask-62)"></path>
                </g>
                <g id="Group-111">
                    <mask id="mask-64" fill="white">
                        <use xlink:href="#path-63"></use>
                    </mask>
                    <g id="Clip-110"></g>
                    <path d="M34,68 C52.77768,68 68,52.77768 68,34 C68,15.22232 52.77768,0 34,0 C15.22232,0 0,15.22232 0,34 C0,52.77768 15.22232,68 34,68 Z" id="Stroke-109" stroke="#6849E3" stroke-width="14" mask="url(#mask-64)"></path>
                </g>
            </g>
            <g id="Group-119" transform="translate(99.000000, 297.000000)">
                <g id="Group-115">
                    <mask id="mask-66" fill="white">
                        <use xlink:href="#path-65"></use>
                    </mask>
                    <g id="Clip-114"></g>
                    <path d="M34,68 C52.7777,68 68,52.7777 68,34 C68,15.2223 52.7777,0 34,0 C15.2223,0 0,15.2223 0,34 C0,52.7777 15.2223,68 34,68 Z" id="Fill-113" fill="#FFFFFF" mask="url(#mask-66)"></path>
                </g>
                <g id="Group-118">
                    <mask id="mask-68" fill="white">
                        <use xlink:href="#path-67"></use>
                    </mask>
                    <g id="Clip-117"></g>
                    <path d="M34,68 C52.77768,68 68,52.77768 68,34 C68,15.22232 52.77768,0 34,0 C15.22232,0 0,15.22232 0,34 C0,52.77768 15.22232,68 34,68 Z" id="Stroke-116" stroke="#6849E3" stroke-width="14" mask="url(#mask-68)"></path>
                </g>
            </g>
            <g id="Group-126" transform="translate(99.000000, 198.000000)">
                <g id="Group-122">
                    <mask id="mask-70" fill="white">
                        <use xlink:href="#path-69"></use>
                    </mask>
                    <g id="Clip-121"></g>
                    <path d="M34,68 C52.7777,68 68,52.7777 68,34 C68,15.2223 52.7777,0 34,0 C15.2223,0 0,15.2223 0,34 C0,52.7777 15.2223,68 34,68 Z" id="Fill-120" fill="#FFFFFF" mask="url(#mask-70)"></path>
                </g>
                <g id="Group-125">
                    <mask id="mask-72" fill="white">
                        <use xlink:href="#path-71"></use>
                    </mask>
                    <g id="Clip-124"></g>
                    <path d="M34,68 C52.77768,68 68,52.77768 68,34 C68,15.22232 52.77768,0 34,0 C15.22232,0 0,15.22232 0,34 C0,52.77768 15.22232,68 34,68 Z" id="Stroke-123" stroke="#6849E3" stroke-width="14" mask="url(#mask-72)"></path>
                </g>
            </g>
            <g id="Group-133" transform="translate(396.000000, 99.000000)">
                <g id="Group-129">
                    <mask id="mask-74" fill="white">
                        <use xlink:href="#path-73"></use>
                    </mask>
                    <g id="Clip-128"></g>
                    <path d="M34,68 C52.7777,68 68,52.7777 68,34 C68,15.2223 52.7777,0 34,0 C15.2223,0 0,15.2223 0,34 C0,52.7777 15.2223,68 34,68 Z" id="Fill-127" fill="#FFFFFF" mask="url(#mask-74)"></path>
                </g>
                <g id="Group-132">
                    <mask id="mask-76" fill="white">
                        <use xlink:href="#path-75"></use>
                    </mask>
                    <g id="Clip-131"></g>
                    <path d="M34,68 C52.77768,68 68,52.77768 68,34 C68,15.22232 52.77768,0 34,0 C15.22232,0 0,15.22232 0,34 C0,52.77768 15.22232,68 34,68 Z" id="Stroke-130" stroke="#6849E3" stroke-width="14" mask="url(#mask-76)"></path>
                </g>
            </g>
            <g id="Group-140" transform="translate(99.000000, 99.000000)">
                <g id="Group-136">
                    <mask id="mask-78" fill="white">
                        <use xlink:href="#path-77"></use>
                    </mask>
                    <g id="Clip-135"></g>
                    <path d="M34,68 C52.7777,68 68,52.7777 68,34 C68,15.2223 52.7777,0 34,0 C15.2223,0 0,15.2223 0,34 C0,52.7777 15.2223,68 34,68 Z" id="Fill-134" fill="#FFFFFF" mask="url(#mask-78)"></path>
                </g>
                <g id="Group-139">
                    <mask id="mask-80" fill="white">
                        <use xlink:href="#path-79"></use>
                    </mask>
                    <g id="Clip-138"></g>
                    <path d="M34,68 C52.77768,68 68,52.77768 68,34 C68,15.22232 52.77768,0 34,0 C15.22232,0 0,15.22232 0,34 C0,52.77768 15.22232,68 34,68 Z" id="Stroke-137" stroke="#6849E3" stroke-width="14" mask="url(#mask-80)"></path>
                </g>
            </g>
            <g id="Group-147" transform="translate(198.000000, 0.000000)">
                <g id="Group-143">
                    <mask id="mask-82" fill="white">
                        <use xlink:href="#path-81"></use>
                    </mask>
                    <g id="Clip-142"></g>
                    <path d="M34,68 C52.7777,68 68,52.7777 68,34 C68,15.2223 52.7777,0 34,0 C15.2223,0 0,15.2223 0,34 C0,52.7777 15.2223,68 34,68 Z" id="Fill-141" fill="#FFFFFF" mask="url(#mask-82)"></path>
                </g>
                <g id="Group-146">
                    <mask id="mask-84" fill="white">
                        <use xlink:href="#path-83"></use>
                    </mask>
                    <g id="Clip-145"></g>
                    <path d="M34,68 C52.77768,68 68,52.77768 68,34 C68,15.22232 52.77768,0 34,0 C15.22232,0 0,15.22232 0,34 C0,52.77768 15.22232,68 34,68 Z" id="Stroke-144" stroke="#6849E3" stroke-width="14" mask="url(#mask-84)"></path>
                </g>
            </g>
            <g id="Group-154">
                <g id="Group-150">
                    <mask id="mask-86" fill="white">
                        <use xlink:href="#path-85"></use>
                    </mask>
                    <g id="Clip-149"></g>
                    <path d="M34,68 C52.77768,68 68,52.7777 68,34 C68,15.2223 52.77768,0 34,0 C15.22232,0 0,15.2223 0,34 C0,52.7777 15.22232,68 34,68 Z" id="Fill-148" fill="#FFFFFF" mask="url(#mask-86)"></path>
                </g>
                <g id="Group-153">
                    <mask id="mask-88" fill="white">
                        <use xlink:href="#path-87"></use>
                    </mask>
                    <g id="Clip-152"></g>
                    <path d="M34,68 C52.77768,68 68,52.77768 68,34 C68,15.22232 52.77768,0 34,0 C15.22232,0 0,15.22232 0,34 C0,52.77768 15.22232,68 34,68 Z" id="Stroke-151" stroke="#6849E3" stroke-width="14" mask="url(#mask-88)"></path>
                </g>
            </g>
            <g id="Group-161" transform="translate(396.000000, 198.000000)">
                <g id="Group-157">
                    <mask id="mask-90" fill="white">
                        <use xlink:href="#path-89"></use>
                    </mask>
                    <g id="Clip-156"></g>
                    <path d="M34,68 C52.7777,68 68,52.7777 68,34 C68,15.2223 52.7777,0 34,0 C15.2223,0 0,15.2223 0,34 C0,52.7777 15.2223,68 34,68 Z" id="Fill-155" fill="#FFFFFF" mask="url(#mask-90)"></path>
                </g>
                <g id="Group-160">
                    <mask id="mask-92" fill="white">
                        <use xlink:href="#path-91"></use>
                    </mask>
                    <g id="Clip-159"></g>
                    <path d="M34,68 C52.77768,68 68,52.77768 68,34 C68,15.22232 52.77768,0 34,0 C15.22232,0 0,15.22232 0,34 C0,52.77768 15.22232,68 34,68 Z" id="Stroke-158" stroke="#6849E3" stroke-width="14" mask="url(#mask-92)"></path>
                </g>
            </g>
            <g id="Group-168" transform="translate(198.000000, 198.000000)">
                <g id="Group-164">
                    <mask id="mask-94" fill="white">
                        <use xlink:href="#path-93"></use>
                    </mask>
                    <g id="Clip-163"></g>
                    <path d="M34,68 C52.7777,68 68,52.7777 68,34 C68,15.2223 52.7777,0 34,0 C15.2223,0 0,15.2223 0,34 C0,52.7777 15.2223,68 34,68 Z" id="Fill-162" fill="#FFFFFF" mask="url(#mask-94)"></path>
                </g>
                <g id="Group-167">
                    <mask id="mask-96" fill="white">
                        <use xlink:href="#path-95"></use>
                    </mask>
                    <g id="Clip-166"></g>
                    <path d="M34,68 C52.77768,68 68,52.77768 68,34 C68,15.22232 52.77768,0 34,0 C15.22232,0 0,15.22232 0,34 C0,52.77768 15.22232,68 34,68 Z" id="Stroke-165" stroke="#6849E3" stroke-width="14" mask="url(#mask-96)"></path>
                </g>
            </g>
            <g id="Group-175" transform="translate(198.000000, 99.000000)">
                <g id="Group-171">
                    <mask id="mask-98" fill="white">
                        <use xlink:href="#path-97"></use>
                    </mask>
                    <g id="Clip-170"></g>
                    <path d="M34,68 C52.7777,68 68,52.7777 68,34 C68,15.2223 52.7777,0 34,0 C15.2223,0 0,15.2223 0,34 C0,52.7777 15.2223,68 34,68 Z" id="Fill-169" fill="#FFFFFF" mask="url(#mask-98)"></path>
                </g>
                <g id="Group-174">
                    <mask id="mask-100" fill="white">
                        <use xlink:href="#path-99"></use>
                    </mask>
                    <g id="Clip-173"></g>
                    <path d="M34,68 C52.77768,68 68,52.77768 68,34 C68,15.22232 52.77768,0 34,0 C15.22232,0 0,15.22232 0,34 C0,52.77768 15.22232,68 34,68 Z" id="Stroke-172" stroke="#6849E3" stroke-width="14" mask="url(#mask-100)"></path>
                </g>
            </g>
        </g>
    </g>
</svg>