<?xml version="1.0" encoding="UTF-8"?>
<svg viewBox="0 0 166 16" version="1.1" xmlns="http://www.w3.org/2000/svg" xmlns:xlink="http://www.w3.org/1999/xlink">
    <!-- Generator: Sketch 54.1 (76490) - https://sketchapp.com -->
    <title>dumbgood_logo_melanin</title>
    <desc>Created with Sketch.</desc>
    <g id="📄-template---landing-screen" stroke="none" stroke-width="1" fill="none" fill-rule="evenodd">
        <g id="🖥-desktop,-landing-screen-(02)" transform="translate(-148.000000, -9596.000000)">
            <g id="logo-grid" transform="translate(141.000000, 9019.000000)">
                <g id="dumbgood_logo_melanin" transform="translate(0.000000, 494.000000)">
                    <rect id="Rectangle-Copy-7" fill="#F3F3F3" opacity="0" x="0" y="0" width="181.2157" height="181.2157"></rect>
                    <g id="Group-10" transform="translate(7.973491, 83.359222)" fill="#2D2B3A">
                        <path d="M8.64482429,10.9331612 L5.49201022,10.9331612 L5.49201022,4.01733478 L8.64482429,4.01733478 C11.0343578,4.01733478 12.2044604,5.18691545 12.2044604,7.47519143 C12.2044604,9.76357178 10.9840117,10.9331612 8.64482429,10.9331612 M10.7297501,0.508505773 L0,0.508505773 L0,14.4419467 L10.83146,14.4419467 C13.1701342,14.4419467 14.9499566,13.9334235 16.119546,12.8146847 C17.3404992,11.6450866 17.9507235,9.86527294 17.9507235,7.47519143 C17.9507235,4.98346095 17.3404992,3.20369075 16.119546,2.08490846 C14.9499566,1.01701155 13.1701342,0.508505773 10.7297501,0.508505773" id="Fill-1"></path>
                        <path d="M31.5281842,8.94993645 C31.5281842,9.76357178 31.2739314,10.4246467 30.7654082,10.7806094 C30.3077443,11.1365722 29.6466694,11.2891239 28.6799691,11.2891239 C27.7142953,11.2891239 27.0527072,11.1365722 26.5955478,10.7806094 C26.0870333,10.4246467 25.8327717,9.81442236 25.8327717,8.94993645 L25.8327717,0.508505773 L20.3407615,0.508505773 L20.3407615,9.15334746 C20.3407615,11.2891239 21.0018451,12.8146847 22.3748455,13.6791619 C23.6461447,14.4927972 25.7310706,14.8996106 28.6799691,14.8996106 C31.6293809,14.8996106 33.7148199,14.4927972 34.9861192,13.6791619 C36.3591196,12.8146847 37.0201945,11.2891239 37.0201945,9.15334746 L37.0201945,0.508505773 L31.5281842,0.508505773 L31.5281842,8.94993645 Z" id="Fill-3"></path>
                        <polygon id="Fill-4" points="49.7840199 8.59397371 49.7326648 8.59397371 47.4443279 0.508505773 39.6644941 0.508505773 39.6644941 14.4419467 44.6988317 14.4419467 44.6988317 4.47495518 47.5973929 14.4419467 51.8181039 14.4419467 54.7675156 4.47495518 54.7675156 14.4419467 59.7510027 14.4419467 59.7510027 0.508505773 52.0210017 0.508505773"></polygon>
                        <path d="M72.6673885,11.0348623 L67.9381544,11.0348623 L67.9381544,8.8482353 L67.9381544,8.79738472 L72.6673885,8.79738472 C73.6335756,8.79738472 74.0912395,9.20419804 74.0912395,9.91612351 C74.0912395,10.6788996 73.6335756,11.0348623 72.6673885,11.0348623 L72.6673885,11.0348623 Z M67.9381544,3.86476565 L72.1080148,3.86476565 C73.0233513,3.86476565 73.4810152,4.11901853 73.4810152,4.72920806 C73.4810152,5.33948458 73.0233513,5.64453585 72.1080148,5.64453585 L67.9381544,5.64453585 L67.9381544,3.86476565 Z M77.5491744,6.76331814 L77.5491744,6.71243277 C78.0576889,6.45817988 78.4645022,6.15304162 78.7696144,5.64453585 C79.0747265,5.13603008 79.227287,4.57663894 79.227287,3.96644941 C79.227287,1.67808645 77.8542866,0.508505773 75.1082771,0.508505773 L62.547854,0.508505773 L62.547854,14.4419467 L74.4980615,14.4419467 C78.1085395,14.4419467 79.9392124,12.9163859 79.9392124,9.91612351 C79.9392124,9.30589919 79.786652,8.69567487 79.430698,8.13630982 C78.9730254,7.42439304 78.3628011,6.96668565 77.5491744,6.76331814 L77.5491744,6.76331814 Z" id="Fill-5"></path>
                        <path d="M91.7877275,3.55962739 C92.397917,3.55962739 92.9064228,3.61051276 93.2624464,3.71219652 C94.0760035,3.96644941 94.5845962,4.47495518 94.7376003,5.28859921 L100.941092,5.28859921 C100.73816,3.45794363 99.8731954,2.13579383 98.3475911,1.27126443 C96.8220738,0.406822015 94.5337108,0 91.4825892,0 C88.8896969,0 86.8555868,0.508505773 85.3299825,1.47471893 C83.3463229,2.74598336 82.3801097,4.72920806 82.3801097,7.5260768 C82.3801097,12.458722 85.380346,14.9504611 91.4825892,14.9504611 C93.1103992,14.9504611 94.3816636,14.7979094 95.3473549,14.5436478 C96.313568,14.2385357 97.1785323,13.8317223 97.8899707,13.1706474 L98.5001602,14.4419467 L100.839843,14.4419467 L100.839843,6.50906525 L93.0081935,6.50906525 L93.0081935,9.66186193 L93.0081935,9.71271251 L95.3473549,9.71271251 C94.8901694,10.8823106 93.8731578,11.4925349 92.2453479,11.4925349 C89.4993645,11.4925349 88.1268512,10.1703851 88.1268512,7.5260768 C88.1268512,4.88177719 89.3467954,3.55962739 91.7877275,3.55962739" id="Fill-6"></path>
                        <path d="M113.247176,11.4416843 C110.80633,11.4416843 109.585864,10.1195345 109.585864,7.47519143 C109.585864,4.83089182 110.80633,3.50874202 113.247176,3.50874202 C115.688108,3.50874202 116.908574,4.83089182 116.908574,7.47519143 C116.908574,10.1195345 115.688108,11.4416843 113.247176,11.4416843 M119.247735,1.01701155 C117.8747,0.355936644 115.840677,0 113.247176,0 C110.653761,0 108.619651,0.355936644 107.246703,1.01701155 C104.907542,2.18659222 103.737874,4.32238605 103.737874,7.47519143 C103.737874,10.628049 104.907542,12.7638341 107.246703,13.9334235 C108.619651,14.5944984 110.653761,14.9504611 113.247176,14.9504611 C115.840677,14.9504611 117.8747,14.5944984 119.247735,13.9334235 C121.586896,12.7638341 122.756564,10.628049 122.756564,7.47519143 C122.756564,4.32238605 121.586896,2.18659222 119.247735,1.01701155" id="Fill-7"></path>
                        <path d="M134.655912,11.4416843 C132.21498,11.4416843 130.994514,10.1195345 130.994514,7.47519143 C130.994514,4.83089182 132.21498,3.50874202 134.655912,3.50874202 C137.096757,3.50874202 138.317223,4.83089182 138.317223,7.47519143 C138.317223,10.1195345 137.096757,11.4416843 134.655912,11.4416843 M140.605499,1.01701155 C139.232551,0.355936644 137.198441,0 134.605027,0 C132.011613,0 129.977503,0.355936644 128.604989,1.01701155 C126.265306,2.18659222 125.095725,4.32238605 125.095725,7.47519143 C125.095725,10.628049 126.265306,12.7638341 128.604989,13.9334235 C129.977503,14.5944984 132.011613,14.9504611 134.605027,14.9504611 C137.198441,14.9504611 139.232551,14.5944984 140.605499,13.9334235 C142.944748,12.7638341 144.11485,10.628049 144.11485,7.47519143 C144.11485,4.32238605 142.944748,2.18659222 140.605499,1.01701155" id="Fill-8"></path>
                        <path d="M155.606855,10.9331612 L152.454049,10.9331612 L152.454049,4.01733478 L155.606855,4.01733478 C157.996901,4.01733478 159.166482,5.18691545 159.166482,7.47519143 C159.166482,9.76357178 157.946538,10.9331612 155.606855,10.9331612 M163.082133,2.08490846 C161.912465,1.01701155 160.132695,0.508505773 157.692285,0.508505773 L146.961996,0.508505773 L146.961996,14.4419467 L157.793534,14.4419467 C160.132695,14.4419467 161.912465,13.9334235 163.082133,12.8146847 C164.303034,11.6450866 164.912789,9.86527294 164.912789,7.47519143 C164.912789,4.98346095 164.303034,3.20369075 163.082133,2.08490846" id="Fill-9"></path>
                    </g>
                </g>
            </g>
        </g>
    </g>
</svg>