<?xml version="1.0" encoding="UTF-8"?>
<svg width="1200px" height="500px" viewBox="0 0 1200 500" version="1.1" xmlns="http://www.w3.org/2000/svg" xmlns:xlink="http://www.w3.org/1999/xlink">
    <title>Faherty</title>
    <g id="Faherty" stroke="none" stroke-width="1" fill="none" fill-rule="evenodd">
        <g id="Group-10" transform="translate(168.000000, 158.000000)" fill="#2D2B3A">
            <path d="M481.340131,1.96895988 C504.43629,1.96895988 526.198049,1.15295993 547.869087,2.21519987 C565.045406,3.07007982 582.545725,20.5963188 585.434365,37.5911978 C586.470685,43.7438374 586.729885,50.039517 587.558845,56.2180766 C589.787005,71.7623957 582.274045,82.7342351 570.822686,91.7495945 C566.936606,94.8067143 562.714046,97.4620742 558.568767,100.182714 C552.325407,104.275674 551.483487,107.048154 554.954847,113.485913 C565.067006,132.268312 575.214206,151.038231 585.395485,169.79471 C586.691005,172.21727 587.921725,174.67823 590.214205,179.108149 C581.327965,179.276629 573.918686,179.833909 566.600126,179.289589 C564.657086,179.147029 562.428926,175.92191 561.250047,173.64191 C550.641087,153.149271 540.213568,132.579352 529.811968,111.995993 C525.969569,104.772954 517.596929,101.223834 509.73405,103.485594 C505.64061,104.781114 505.42077,107.604954 505.51101,111.063353 C506.05533,130.493752 506.21085,149.924151 507.13053,169.27679 C507.46701,176.12927 504.53949,178.007509 498.64605,178.033429 C480.277891,178.123669 482.052451,180.623989 482.182051,162.02255 C482.389411,133.991032 481.572931,105.947034 481.391971,77.9025554 C481.262371,52.9799968 481.340131,28.0055983 481.340131,1.96895988 Z M526.029569,24.1324786 L526.029569,23.8603186 C521.508929,23.8603186 516.962369,24.0547186 512.467169,23.8603186 C506.36637,23.5233586 503.81421,26.2828784 503.91789,32.2670381 C504.12525,46.0367973 504.37149,59.8324764 504.17709,73.6017556 C504.09933,78.7833553 506.54733,80.5967952 510.99069,80.9207952 C517.414529,81.6019151 523.870049,81.9475151 530.330368,81.9571151 C554.682687,81.1665552 564.307166,70.8815958 562.856606,47.7206372 C562.077566,34.6449579 551.342847,24.3844785 538.244608,24.1972786 C534.255328,24.1195186 530.161888,24.1843186 526.068449,24.1843186 L526.029569,24.1324786 Z" id="Fill-3"></path>
            <path d="M223.189187,180.481429 C214.212419,180.481429 206.51802,180.701749 198.8625,180.299989 C197.35986,180.222229 195.287316,178.007509 194.691444,176.336149 C191.388325,167.26895 188.214709,158.058711 185.533285,148.758231 C184.237957,144.470871 182.346757,142.967991 177.864853,142.929111 C162.76103,142.812471 147.644247,142.592152 132.527512,141.633592 C126.050728,141.232312 123.460025,143.576631 121.905593,149.561271 C119.755337,157.890711 116.529881,165.94751 114.055769,174.17327 C112.540217,179.198869 110.053145,181.686229 104.340618,180.973909 C99.2628421,180.351829 94.0426024,180.844309 87.8637548,180.844309 C88.6668907,177.579829 89.1590827,175.15775 89.8585866,172.82591 C106.87953,119.414393 123.939305,66.0196761 141.03796,12.6427192 C142.177864,9.09359946 144.056151,3.57503979 146.413671,3.05711982 C152.372295,1.87823989 158.823159,2.84975983 165.014918,3.53615979 C166.09007,3.65279978 167.165222,6.50255961 167.735174,8.23823951 C179.393365,43.6449574 191.012629,79.0900753 202.593108,114.574073 C208.292676,131.996632 214.044035,149.379831 219.665843,166.81535 C220.974179,170.68847 221.712515,174.63935 223.189187,180.481429 Z M132.8902,116.555993 L167.864726,116.555993 C173.75855,116.555993 174.471014,113.615513 172.916582,108.589434 C168.395798,94.0166344 164.224742,79.3271953 159.768758,64.7289561 C158.473383,60.2726364 156.569223,55.9723167 154.962999,51.6067169 L152.786823,51.4382369 C146.374791,72.4492757 139.923976,93.4598344 132.8902,116.555993 Z" id="Fill-4"></path>
            <path d="M334.71886,174.25055 C334.78366,180.727669 332.73694,182.826229 326.208461,182.683669 C310.975229,182.333749 311.052941,182.683669 311.311997,167.46335 C311.609981,150.623511 311.881997,133.784152 311.843117,116.944313 C311.843117,108.420954 310.910477,107.967834 302.283438,108.032154 C290.625247,108.122874 278.967055,108.252474 267.373664,108.032154 C261.557552,107.890074 261.194864,111.672473 261.065312,115.649273 C260.547152,131.387512 260.158544,147.126231 259.769937,162.86447 C259.666305,167.60543 259.964241,172.37231 259.588593,177.113749 C259.484961,178.538389 257.788065,180.999349 256.777665,180.999349 C251.403777,181.236949 246.019521,180.946069 240.70237,180.131509 C239.134978,179.859829 236.932882,176.621269 236.945737,174.75599 C237.191938,118.874393 237.736018,63.0057562 238.059826,7.13759957 C238.059826,2.62943984 240.132418,0.945599944 244.070289,0.479519971 C244.704993,0.401759976 245.365617,0.362879978 246.000369,0.323999981 C260.94872,-0.569759966 261.700016,0.207359988 261.45392,14.9481591 C261.117104,34.145278 261.065312,53.3423968 260.586032,72.5395157 C260.45648,77.7859154 261.88136,79.8326352 268.12496,79.5215953 C279.212095,78.8323153 290.336863,79.0444753 301.38963,80.1566352 C309.00627,81.0244752 312.167021,79.0166353 312.011501,71.9179157 C311.532221,51.4382369 311.467469,30.9460782 311.506349,10.4534394 C311.506349,1.7356799 312.684941,0.790079953 321.467501,0.517919969 C323.345741,0.517919969 325.236941,0.517919969 327.115181,0.595679964 C334.16206,1.02335994 335.05582,2.29295986 335.042997,9.88367941 C335.042997,37.5177578 335.042997,65.1518361 335.042997,92.7859145" id="Fill-5"></path>
            <path d="M413.256455,0.67343996 C424.914215,0.67343996 436.572454,0.67343996 448.230693,0.67343996 C455.575173,0.67343996 458.593413,2.34479986 458.282853,9.45599944 C457.389093,26.2958384 458.761893,26.2958384 453.683973,26.2958384 C438.787654,26.2958384 412.233095,26.5156784 397.310376,26.4379184 C387.258697,26.4379184 385.652137,27.4094384 384.965737,37.1505578 C384.220777,47.6875172 384.130057,58.2609565 384.693577,68.8089559 C384.784297,70.7908758 388.696297,73.9905556 391.041097,74.1849556 C398.346216,74.6899155 405.680616,74.5991956 412.971335,73.9127956 C427.064615,72.7339157 427.958374,73.2911956 428.891014,87.1382348 C429.784774,100.402554 429.137254,101.387034 415.717415,102.436314 C407.543976,103.045434 399.318216,103.045434 391.105897,102.851034 C386.766217,102.734394 384.486217,104.249754 384.318217,108.485754 C383.799817,121.197593 383.346697,133.909432 382.957897,146.620791 C382.802377,151.802391 385.432297,153.654711 390.626377,153.654711 C411.559175,153.654711 432.492454,154.159671 453.425253,154.094871 C459.306213,154.094871 461.507972,156.089751 461.197413,161.95775 C459.992613,182.385589 463.865732,178.797589 444.526054,179.315509 C427.064615,179.820949 409.551336,179.147029 392.090377,179.250709 C384.318217,179.250709 376.636778,180.053749 368.903498,180.325909 C363.385418,180.520309 360.846218,178.123669 360.911018,172.15247 C361.472138,117.125753 361.904138,62.0990363 362.206538,7.07279958 C362.206538,3.2774398 363.410858,1.6060799 367.387658,1.6449599" id="Fill-6"></path>
            <path d="M0.84196795,183.046069 C0.518159969,178.331029 0.0777119954,174.92447 0.0647519961,171.50447 C0.0647519961,120.791513 -0.0777119954,70.0655958 0.0647519961,19.3396788 C0.0647519961,3.18671981 0.466319972,3.91199977 16.502783,4.17119975 C41.7491975,4.55951973 67.021532,3.86015977 92.2420265,3.62687978 C101.477898,3.54911979 101.529738,3.54911979 101.60745,12.6945592 C101.801754,33.834718 102.96753,30.6091182 83.770459,30.2337582 C67.811708,29.9227182 51.8529569,30.0134382 35.8424139,29.7671982 C30.3501102,29.6894382 28.0703023,32.0731181 28.0703023,37.5393578 C28.0703023,48.7569571 27.8759983,59.9879964 27.5391824,71.2185558 C27.4096784,75.6873555 29.1324943,77.4230354 33.614398,77.3193554 C43.5368134,77.0865554 53.4851008,77.4878354 63.4075162,76.9828754 C69.1199959,76.6977554 71.3091317,78.9518353 71.2702998,84.262555 C71.2314198,89.5737547 71.2054998,95.0399943 71.1018678,100.415514 C71.0241558,104.133594 69.2106679,105.506394 65.3505081,105.454554 C55.6483167,105.299034 45.9202533,105.856314 36.2180618,105.610074 C29.6765262,105.441594 27.9407503,108.122874 27.9148303,114.418553 C27.8500783,134.703832 26.9044784,154.989111 26.8138064,175.29983 C26.8138064,181.776949 24.4432785,183.642229 18.3681109,183.071989 C12.9275992,182.683669 7.30579156,183.046069 0.84196795,183.046069 Z" id="Fill-7"></path>
            <path d="M736.835476,0.971519942 C746.174836,0.971519942 755.553075,0.582719965 764.853554,1.25663993 C766.952114,1.41215992 769.335794,4.9612797 770.656754,7.44815956 C779.335634,23.8214386 787.703473,40.3631976 796.318033,56.7753566 C797.755632,59.5084765 799.931952,61.8532763 802.315152,65.1431961 C807.082032,55.9982367 811.253232,47.7983972 815.566991,39.7027176 C821.564111,28.4716783 827.406191,17.150399 833.90875,6.24335963 C835.87243,3.45119979 838.88971,1.58015991 842.26411,1.06223994 C847.535949,0.543839968 853.002189,1.37327992 858.313389,2.18927987 C863.300589,2.96639982 864.660428,5.77727966 862.056909,10.5441594 C848.935149,34.5729579 836.22763,58.8350365 822.794831,82.6823951 C815.799791,95.0918343 812.315472,107.721594 813.157392,122.125913 C814.154831,138.965272 813.403632,155.805111 813.714191,172.64447 C813.804911,177.683509 811.771152,179.860269 806.978352,179.807989 C800.954832,179.955349 794.927953,179.791189 788.921233,179.315509 C787.315153,179.134069 784.892593,176.232469 784.750513,174.43199 C784.180273,166.91903 784.245073,159.354231 784.232113,151.802391 C784.232113,135.403192 784.400593,119.016953 784.232113,102.578874 C784.137073,99.5889541 783.371473,96.6580742 781.991473,94.0036744 C769.232114,69.0551959 756.265395,44.1974374 743.415796,19.3007988 C740.824756,14.1191992 738.376756,8.93807947 735.876436,3.75647978 L736.835476,0.971519942 Z" id="Fill-8"></path>
            <path d="M644.282362,101.711034 C644.282362,79.9103952 644.139802,58.1222365 644.386042,36.3345578 C644.386042,30.4924782 642.481882,27.3964784 636.536122,27.0988784 C626.419643,26.5804784 616.315643,25.8033585 606.199164,25.5830385 C602.183484,25.5052785 600.059004,24.4564785 599.968284,20.3241588 C599.968284,19.6766388 599.786844,19.0286389 599.722044,18.3940789 C598.090044,2.35775986 599.786844,0.608639964 615.473723,0.699359958 C645.266842,0.854879949 675.05996,0.803039952 704.775318,0.867839948 C707.573238,0.867839948 710.371158,1.07519994 713.182037,1.11407993 C717.366197,1.11407993 719.114837,3.12191981 719.477717,7.43519956 C721.109717,26.3865584 721.174517,26.4508784 702.637878,27.0988784 C696.161239,27.3321584 689.684599,27.7723183 683.207479,27.5390384 C676.73084,27.3062384 674.58044,30.3499182 674.55452,36.5159978 C674.39948,67.798556 674.0366,99.0815941 673.69964,130.377112 C673.54412,144.625911 673.091,158.875191 673.12988,173.12399 C673.12988,177.826069 671.30348,179.172949 666.98972,178.888309 C661.619001,178.346869 656.216121,178.199989 650.823801,178.447669 C644.476762,178.940149 642.248602,175.98671 642.352282,170.31311 C642.598522,156.737751 643.012762,143.110551 643.207162,129.574072" id="Fill-9"></path>
        </g>
    </g>
</svg>