<?xml version="1.0" encoding="UTF-8"?>
<svg width="1080px" height="750px" viewBox="0 0 1080 750" version="1.1" xmlns="http://www.w3.org/2000/svg" xmlns:xlink="http://www.w3.org/1999/xlink">
    <title>Greats Copy</title>
    <g id="Greats-Copy" stroke="none" stroke-width="1" fill="none" fill-rule="evenodd">
        <path d="M95.2380952,449 C38.0952381,449 0,410.447761 0,355.910448 C0,302.313433 38.0952381,262.820896 95.2380952,262.820896 C120.952381,262.820896 151.428571,278.80597 167.619048,301.373134 L137.142857,323.940299 C126.666667,306.074627 110.47619,300.432836 93.3333333,300.432836 C60,300.432836 37.1428571,323 37.1428571,355.910448 C37.1428571,388.820896 60,412.328358 94.2857143,412.328358 C112.380952,412.328358 131.428571,403.865672 139.047619,386 L180,386 C169.52381,426.432836 135.238095,449 95.2380952,449 Z M87.6190476,379.41791 L100,361.552239 L87.6190476,343.686567 L161.904762,343.686567 L180.952381,379.41791 L87.6190476,379.41791 Z M268.571429,349.328358 L268.571429,446.179104 L231.428571,446.179104 L231.428571,264.701493 L309.52381,264.701493 C344.76181,264.701493 370.47619,291.029851 370.47619,324.880597 C370.47619,348.38806 357.142857,369.074627 338.095238,378.477612 L317.142857,347.447761 C327.619048,344.626866 334.285714,335.223881 334.285714,323.940299 C334.285714,310.776119 324.761905,299.492537 309.52381,299.492537 L268.571429,299.492537 L268.571429,349.328358 Z M330.47619,446.179104 L268.571429,349.328358 L309.52381,349.328358 L334.285714,385.059701 L375.433207,446.179104 L330.47619,446.179104 Z M550.47619,446.179104 L432.380952,446.179104 L432.380952,264.701493 L550.47619,264.701493 L550.47619,301.373134 L468.571429,301.373134 L468.571429,410.447761 L550.47619,410.447761 L550.47619,446.179104 Z M550.47619,379.41791 L475.238095,379.41791 L475.238095,342.746269 L550.47619,342.746269 L550.47619,379.41791 Z M738.095238,446.179104 L725.714286,417.970149 L644.761905,417.970149 L660.952381,381.298507 L710.47619,381.298507 L681.904762,314.537313 L624.761905,446.179104 L586.666667,446.179104 L663.809524,264.701493 L699.047619,264.701493 L776.190476,446.179104 L738.095238,446.179104 Z M869.52381,446.179104 L832.380952,446.179104 L832.380952,307.955224 L869.52381,307.955224 L869.52381,446.179104 Z M925.714286,301.373134 L776.190476,301.373134 L776.190476,264.701493 L925.714286,264.701493 L925.714286,301.373134 Z M1028.57143,338.044776 C1054.28571,346.507463 1078.09524,358.731249 1078.09524,392.58209 C1078.09524,427.373134 1051.42857,446.179104 1017.14286,446.179104 C988.571429,446.179104 961.904762,432.074627 954.285714,399.164179 L987.619048,385.059701 C991.428571,401.044682 1000.95238,409.507463 1017.14286,409.507463 C1031.42857,409.507463 1040,402.925373 1040,392.581996 C1040,378.477518 1024.7619,374.716324 1006.66667,369.074533 C982.857143,361.552145 956.190476,349.328358 956.190476,313.597015 C956.190476,279.746269 981.904762,260 1017.14286,260 C1048.57143,260 1073.33333,275.985075 1080,307.014925 L1045.71429,320.179104 C1041.90476,303.253731 1031.42857,296.671642 1017.14286,296.671642 C1001.90476,296.671642 994.285714,304.19403 994.285714,312.656716 C994.285714,328.641791 1009.52381,332.402985 1028.57143,338.044776 Z" id="Fill-1" fill="#ffffff"></path>
    </g>
</svg>