<?xml version="1.0" encoding="UTF-8"?>
<svg viewBox="0 0 182 13" version="1.1" xmlns="http://www.w3.org/2000/svg" xmlns:xlink="http://www.w3.org/1999/xlink">
    <!-- Generator: Sketch 54.1 (76490) - https://sketchapp.com -->
    <title>mcgrath_logo_melanin</title>
    <desc>Created with Sketch.</desc>
    <g id="📄-template---landing-screen" stroke="none" stroke-width="1" fill="none" fill-rule="evenodd">
        <g id="🖥-desktop,-landing-screen-(02)" transform="translate(-1119.000000, -9103.000000)">
            <g id="logo-grid" transform="translate(141.000000, 9019.000000)">
                <g id="mcgrath_logo_melanin" transform="translate(978.000000, 0.000000)">
                    <rect id="Rectangle-Copy-2" fill="#D8D8D8" opacity="0" x="0" y="0" width="181.2157" height="181.2157"></rect>
                    <g id="Group-4" transform="translate(0.000000, 84.084085)" fill="#2D2B3A">
                        <path d="M63.0303633,9.95411499 C62.8484046,10.6361565 61.7578757,12.4080293 58.9631129,12.4080293 C57.7238602,12.4080293 56.6627789,12.004779 55.8657288,11.2168169 C55.0732363,10.4246959 54.6749061,9.42112337 54.6749061,8.20116116 C54.6749061,6.96191759 55.0830763,5.92992136 55.8941072,5.10874242 C56.7058991,4.28711043 57.7333197,3.87892206 58.9676432,3.87892206 C60.1444852,3.87892206 61.1336873,4.22957445 61.9307102,4.93622507 L61.9307102,4.67599932 C61.9307102,4.48907533 61.964362,4.35479449 62.041578,4.27306621 C62.1130404,4.19595893 62.204201,4.15319203 62.3150687,4.15319203 C62.4304578,4.15319203 62.5219899,4.19595893 62.5984085,4.27306621 C62.6706592,4.35479449 62.7092129,4.48907533 62.7092129,4.67599932 L62.7092129,6.41947558 C62.6994182,6.61161858 62.6608102,6.74628903 62.5889219,6.82761864 C62.5219899,6.9089573 62.4304578,6.94337016 62.3150687,6.94337016 C62.2095287,6.94337016 62.1232519,6.9089573 62.0513727,6.84236959 C61.9836977,6.77465835 61.9405684,6.65511941 61.9307102,6.48679721 C61.8921113,6.04988615 61.6088349,5.63644253 61.0758161,5.24755364 C60.5428064,4.85377192 59.8274755,4.66195511 58.9245139,4.66195511 C57.7817315,4.66195511 56.9169792,5.02248374 56.3268684,5.73737968 C55.7409074,6.45345352 55.4428257,7.26983025 55.4428257,8.1917017 C55.4428257,9.19075292 55.7692767,10.0116238 56.4176484,10.6596058 C57.0709401,11.3079865 57.9636811,11.6299072 59.0016937,11.6299072 C61.6765008,11.6299072 62.2817794,9.77670482 62.2863098,9.75287496 C62.3388714,9.55086476 62.5499515,9.42112337 62.7568726,9.47824256 C62.9589009,9.53120285 63.0833417,9.74265439 63.0303633,9.95411499 Z M80.7608336,6.05930937 L80.7608336,1.285816 L83.8339438,1.285816 C84.6363035,1.285816 85.3183723,1.53544063 85.8797332,2.03967331 C86.4372977,2.54354357 86.7206375,3.07242159 86.7206375,3.62929744 C86.7206375,3.99961172 86.5863385,4.36421771 86.3170067,4.72438391 C86.0488437,5.08491255 85.6160372,5.39696599 85.0202906,5.66099726 C84.4301163,5.92502854 83.7670118,6.05930937 83.0369119,6.05930937 L80.7608336,6.05930937 Z M88.6797876,11.2414079 L87.9837018,11.2414079 L84.6555758,6.67895834 C84.6605321,6.67895834 84.6695929,6.67895834 84.6798044,6.67403833 C85.4719435,6.41947558 86.4516681,5.8818992 86.8931095,5.35836704 C87.3353483,4.82541167 87.5509587,4.26781096 87.5509587,3.67315164 C87.5509587,2.84200583 87.2010494,2.09757173 86.4849574,1.43975874 C85.7696628,0.781945747 84.8954148,0.445246976 83.8532796,0.445246976 L78.8016926,0.445246976 C78.6046205,0.445246976 78.4604634,0.488738744 78.3742591,0.561043808 C78.2876199,0.637426226 78.244862,0.743346803 78.244862,0.863674028 C78.244862,0.99297143 78.2876199,1.09852958 78.3742591,1.17083464 C78.4604634,1.24268666 78.6046205,1.285816 78.8016926,1.285816 L79.9251937,1.285816 L79.9251937,11.2414079 L78.8016926,11.2414079 C78.6046205,11.2414079 78.4604634,11.2796172 78.3742591,11.3564074 C78.2876199,11.4286581 78.244862,11.5341981 78.244862,11.6590285 C78.244862,11.7793195 78.2876199,11.874648 78.3742591,11.9571193 C78.4604634,12.0380684 78.6046205,12.0770297 78.8016926,12.0770297 L81.9709196,12.0770297 C82.1774783,12.0770297 82.3219888,12.0380684 82.4082565,11.9571193 C82.4944608,11.874648 82.5372277,11.7793195 82.5372277,11.6590285 C82.5372277,11.5341981 82.4944608,11.4286581 82.4082565,11.3564074 C82.3219888,11.2796172 82.1774783,11.2414079 81.9709196,11.2414079 L80.7608336,11.2414079 L80.7608336,6.89079949 C80.7608336,6.89079949 82.4653395,6.89079949 82.8550166,6.89079949 C83.2052885,6.89079949 83.4976891,6.87603947 83.7723305,6.84690905 L87.5608078,12.0770297 L88.6797876,12.0770297 C88.8817525,12.0770297 89.025529,12.0380684 89.1072029,11.9571193 C89.198735,11.874648 89.237343,11.7793195 89.237343,11.6590285 C89.237343,11.5341981 89.198735,11.4286581 89.1072029,11.3564074 C89.025529,11.2796172 88.8817525,11.2414079 88.6797876,11.2414079 Z M181.2157,8.97021341 C181.2157,9.92044512 180.831795,10.7371571 180.072954,11.4093677 C179.309583,12.0811886 178.282181,12.4178693 176.989931,12.4178693 C175.539572,12.4178693 174.377526,11.9616588 173.508597,11.0537772 L173.508597,11.5341981 C173.508597,11.7312792 173.469635,11.8701177 173.393253,11.9571193 C173.315692,12.0475278 173.21548,12.0864892 173.090623,12.0864892 C172.970295,12.0864892 172.868996,12.0475278 172.792523,11.9571193 C172.710432,11.8701177 172.673011,11.7312792 172.673011,11.5341981 L172.673011,9.22857263 C172.673011,9.0273326 172.710432,8.87336268 172.787992,8.79241362 C172.864828,8.70540291 172.965403,8.66228263 173.090623,8.66228263 C173.210587,8.66228263 173.306269,8.70087251 173.383377,8.78220212 C173.460212,8.85937283 173.503341,8.98874271 173.508597,9.16616194 C173.54194,9.77670482 173.8684,10.3335263 174.487614,10.8332467 C175.107191,11.3325685 175.942867,11.5822384 176.989931,11.5822384 C178.036633,11.5822384 178.862796,11.3178175 179.468056,10.7942763 C180.078209,10.2711156 180.380115,9.65603329 180.380115,8.94107392 C180.380115,8.49886231 180.264771,8.11491155 180.034355,7.77408106 C179.799409,7.43248946 179.453649,7.15898967 178.99753,6.96191759 C178.680493,6.82308824 178.017334,6.67403833 177.009231,6.49658286 C175.6213,6.27042566 174.62715,5.91524289 174.016997,5.4305815 C173.407297,4.95470907 173.100499,4.27795904 173.100499,3.39398885 C173.100499,2.51554574 173.450336,1.76621882 174.151278,1.13712852 C174.848143,0.503145392 175.775333,0.190638917 176.922247,0.190638917 C178.084655,0.190638917 179.088681,0.561043808 179.93369,1.29560165 L179.93369,1.01680129 C179.93369,0.815198828 179.971926,0.67602517 180.049124,0.589404065 C180.120976,0.503145392 180.221551,0.460016055 180.351754,0.460016055 C180.476521,0.460016055 180.576824,0.503145392 180.654022,0.589404065 C180.73113,0.67602517 180.769366,0.815198828 180.769366,1.01680129 L180.769366,3.14427362 C180.769366,3.34587608 180.73113,3.49003317 180.654022,3.57176145 C180.576824,3.65838256 180.476521,3.70151189 180.351754,3.70151189 C180.231065,3.70151189 180.135292,3.66255052 180.058547,3.5815471 C179.98135,3.50443982 179.938583,3.37505181 179.93369,3.19274882 C179.900437,2.63514811 179.612213,2.13580824 179.073912,1.68938337 C178.531805,1.24721706 177.825608,1.03157037 176.95097,1.03157037 C176.029488,1.03157037 175.29484,1.26198614 174.752008,1.7370431 C174.209176,2.21300613 173.93536,2.76979137 173.93536,3.41365075 C173.93536,3.74500366 174.012467,4.04727145 174.1665,4.32072594 C174.315097,4.5949959 174.521683,4.81136745 174.770945,4.97853893 C175.025463,5.15187175 175.309246,5.28615259 175.625468,5.3867273 C175.94776,5.49301031 176.442207,5.60309885 177.119319,5.71354981 C178.253005,5.89594342 179.035675,6.08313924 179.463163,6.28021131 C180.043778,6.53974844 180.476521,6.89495839 180.774259,7.35154041 C181.06665,7.80698983 181.2157,8.34982146 181.2157,8.97021341 Z M169.598687,10.0116238 C169.392916,10.3668247 169.094816,10.6596058 168.696142,10.8956574 C168.297377,11.1354873 167.831743,11.2508583 167.293804,11.2508583 L163.067673,11.2508583 L163.067673,6.47737399 L166.069692,6.47737399 C166.991174,6.47737399 167.716309,6.58286871 168.239569,6.78411781 C168.763101,6.99103895 169.171924,7.28836862 169.464768,7.68745995 C169.762143,8.09032058 169.91074,8.49433192 169.91074,8.91725312 C169.91074,9.29628388 169.805635,9.66132479 169.598687,10.0116238 Z M163.067673,1.29560165 L166.381021,1.29560165 C167.169037,1.29560165 167.807551,1.51161076 168.297377,1.95803564 C168.792186,2.3949467 169.037371,2.88060477 169.037371,3.4037745 C169.037371,3.76883353 168.922299,4.12854669 168.696142,4.47965211 C168.470709,4.82541167 168.153673,5.09886616 167.749652,5.28615259 C167.22612,5.51684017 166.650398,5.63191214 166.021307,5.63191214 L163.067673,5.63191214 L163.067673,1.29560165 Z M168.239569,5.94849597 C169.335018,5.3197681 169.877487,4.49813611 169.877487,3.47607956 C169.877487,2.66876362 169.551027,1.95803564 168.902637,1.36301389 C168.244824,0.762283843 167.399362,0.460016055 166.357191,0.460016055 L161.10855,0.460016055 C160.911478,0.460016055 160.767321,0.498614999 160.681062,0.570104593 C160.594894,0.652195305 160.550949,0.752770019 160.550949,0.877627637 C160.550949,1.00248525 160.594894,1.10305997 160.681062,1.18025786 C160.767321,1.25709331 160.911478,1.29560165 161.10855,1.29560165 L162.232087,1.29560165 L162.232087,11.2508583 L161.10855,11.2508583 C160.911478,11.2508583 160.767321,11.2939876 160.681062,11.3662474 C160.594894,11.4426479 160.550949,11.5436576 160.550949,11.668488 C160.550949,11.7884075 160.594894,11.8894081 160.681062,11.9711182 C160.767321,12.0524478 160.911478,12.0864892 161.10855,12.0864892 L167.356233,12.0864892 C167.999367,12.0864892 168.590584,11.9226883 169.137583,11.6019094 C169.685761,11.2746972 170.088513,10.8858265 170.35789,10.4246959 C170.621559,9.96394594 170.756202,9.45932364 170.756202,8.90250216 C170.756202,8.27795131 170.554599,7.71167037 170.150941,7.1930401 C169.743206,6.67403833 169.109585,6.26100245 168.239569,5.94849597 Z M150.649051,7.37083082 L152.886975,1.29560165 L153.194135,1.29560165 L155.503911,7.37083082 L150.649051,7.37083082 Z M158.48663,11.2508583 L157.838331,11.2508583 L153.760797,0.460016055 L150.874484,0.460016055 C150.673244,0.460016055 150.533708,0.498614999 150.442556,0.570104593 C150.356297,0.652195305 150.317699,0.752770019 150.317699,0.877627637 C150.317699,1.00248525 150.356297,1.10305997 150.442556,1.18025786 C150.533708,1.25709331 150.673244,1.29560165 150.874484,1.29560165 L152.022213,1.29560165 L148.32949,11.2508583 L147.685994,11.2508583 C147.488921,11.2508583 147.344764,11.2939876 147.258506,11.3662474 C147.172338,11.4426479 147.128846,11.5436576 147.128846,11.668488 C147.128846,11.7884075 147.172338,11.8894081 147.258506,11.9711182 C147.344764,12.0524478 147.488921,12.0864892 147.685994,12.0864892 L150.812055,12.0864892 C151.008765,12.0864892 151.153284,12.0524478 151.239543,11.9711182 C151.321271,11.8894081 151.3644,11.7884075 151.3644,11.668488 C151.3644,11.5436576 151.321271,11.4426479 151.239543,11.3662474 C151.153284,11.2939876 151.008765,11.2508583 150.812055,11.2508583 L149.208205,11.2508583 L150.331652,8.20646172 L155.82131,8.20646172 L156.963694,11.2508583 L155.374613,11.2508583 C155.167665,11.2508583 155.02387,11.2939876 154.937249,11.3662474 C154.85099,11.4426479 154.802968,11.5436576 154.802968,11.668488 C154.802968,11.7884075 154.85099,11.8894081 154.937249,11.9711182 C155.02387,12.0524478 155.167665,12.0864892 155.374613,12.0864892 L158.48663,12.0864892 C158.68334,12.0864892 158.827135,12.0524478 158.914118,11.9711182 C159.000015,11.8894081 159.043144,11.7884075 159.043144,11.668488 C159.043144,11.5436576 159.000015,11.4426479 158.914118,11.3662474 C158.827135,11.2939876 158.68334,11.2508583 158.48663,11.2508583 Z M145.985556,9.70444506 C146.067737,9.78615522 146.105883,9.92536512 146.105883,10.1319057 L146.105883,12.0864892 L137.433443,12.0864892 C137.236009,12.0864892 137.091852,12.0524478 137.010124,11.9711182 C136.919335,11.8894081 136.880736,11.7884075 136.880736,11.668488 C136.880736,11.5436576 136.919335,11.4426479 137.010124,11.3662474 C137.091852,11.2939876 137.236009,11.2508583 137.433443,11.2508583 L138.868672,11.2508583 L138.868672,1.29560165 L137.433443,1.29560165 C137.236009,1.29560165 137.091852,1.25709331 137.010124,1.18025786 C136.919335,1.10305997 136.880736,1.00248525 136.880736,0.877627637 C136.880736,0.752770019 136.919335,0.652195305 137.010124,0.570104593 C137.091852,0.498614999 137.236009,0.460016055 137.433443,0.460016055 L141.701979,0.460016055 C141.899051,0.460016055 142.043118,0.498614999 142.129739,0.570104593 C142.21636,0.652195305 142.25958,0.752770019 142.25958,0.877627637 C142.25958,1.00248525 142.21636,1.10305997 142.129739,1.18025786 C142.043118,1.25709331 141.899051,1.29560165 141.701979,1.29560165 L139.714043,1.29560165 L139.714043,11.2508583 L145.260784,11.2508583 L145.260784,10.1319057 C145.260784,9.93482458 145.303913,9.79107523 145.381111,9.70899358 C145.462024,9.61782396 145.563414,9.57507517 145.688272,9.57507517 C145.807874,9.57507517 145.909174,9.61782396 145.985556,9.70444506 Z M126.478773,11.3564074 C126.565032,11.4286581 126.603631,11.5341981 126.603631,11.6590285 C126.603631,11.7793195 126.565032,11.874648 126.478773,11.9571193 C126.387259,12.0380684 126.247995,12.0770297 126.051285,12.0770297 L123.141142,12.0770297 C122.944523,12.0770297 122.805259,12.0380684 122.718276,11.9571193 C122.627486,11.874648 122.588888,11.7793195 122.588888,11.6590285 C122.588888,11.5341981 122.627486,11.4286581 122.713745,11.3564074 C122.795473,11.2796172 122.939177,11.2414079 123.141142,11.2414079 L124.260149,11.2414079 L124.260149,6.45807452 L117.387906,6.45807452 L117.387906,11.2414079 L118.511806,11.2414079 C118.713409,11.2414079 118.85222,11.2796172 118.939203,11.3564074 C119.029992,11.4286581 119.073937,11.5341981 119.073937,11.6590285 C119.073937,11.7793195 119.029992,11.874648 118.939203,11.9571193 C118.85222,12.0380684 118.713409,12.0770297 118.511806,12.0770297 L115.611086,12.0770297 C115.409484,12.0770297 115.270673,12.0380684 115.178706,11.9571193 C115.09743,11.874648 115.053939,11.7793195 115.053939,11.6590285 C115.053939,11.5341981 115.09743,11.4286581 115.178706,11.3564074 C115.270673,11.2796172 115.409484,11.2414079 115.611086,11.2414079 L116.552321,11.2414079 L116.552321,1.285816 L116.038574,1.285816 C115.827186,1.285816 115.687559,1.24268666 115.59677,1.17083464 C115.515042,1.09852958 115.471913,0.99297143 115.471913,0.863674028 C115.471913,0.743346803 115.515042,0.637426226 115.59677,0.561043808 C115.687559,0.488738744 115.827186,0.445246976 116.038574,0.445246976 L118.511806,0.445246976 C118.713409,0.445246976 118.85222,0.488738744 118.939203,0.561043808 C119.029992,0.637426226 119.073937,0.743346803 119.073937,0.863674028 C119.073937,0.99297143 119.029992,1.09852958 118.939203,1.17083464 C118.85222,1.24268666 118.713409,1.285816 118.511806,1.285816 L117.387906,1.285816 L117.387906,5.62239832 L124.260149,5.62239832 L124.260149,1.285816 L123.141142,1.285816 C122.944523,1.285816 122.805259,1.24268666 122.718276,1.17083464 C122.627486,1.09852958 122.588888,0.99297143 122.588888,0.863674028 C122.588888,0.743346803 122.627486,0.637426226 122.713745,0.561043808 C122.795473,0.488738744 122.939177,0.445246976 123.141142,0.445246976 L125.623888,0.445246976 C125.830474,0.445246976 125.974903,0.488738744 126.060799,0.561043808 C126.147783,0.637426226 126.185566,0.743346803 126.185566,0.863674028 C126.185566,0.99297143 126.147783,1.09852958 126.060799,1.17083464 C125.974903,1.24268666 125.830474,1.285816 125.623888,1.285816 L125.105611,1.285816 L125.105611,11.2414079 L126.051285,11.2414079 C126.247995,11.2414079 126.387259,11.2796172 126.478773,11.3564074 Z M103.03363,0.445246976 L112.393511,0.445246976 L112.393511,2.40473234 C112.393511,2.61131824 112.354912,2.76000572 112.278077,2.84617379 C112.206225,2.93324793 112.10565,2.97637727 111.975809,2.97637727 C111.851042,2.97637727 111.750377,2.93324793 111.673269,2.84617379 C111.596434,2.76000572 111.557835,2.61131824 111.557835,2.40473234 L111.557835,1.285816 L108.138566,1.285816 L108.138566,11.2414079 L109.363041,11.2414079 C109.565006,11.2414079 109.704632,11.2796172 109.795875,11.3564074 C109.87715,11.4286581 109.919917,11.5341981 109.919917,11.6590285 C109.919917,11.7793195 109.87715,11.874648 109.795875,11.9571193 C109.704632,12.0380684 109.565006,12.0770297 109.363041,12.0770297 L106.169658,12.0770297 C105.967965,12.0770297 105.829154,12.0380684 105.742532,11.9571193 C105.655911,11.874648 105.612329,11.7793195 105.612329,11.6590285 C105.612329,11.5341981 105.655911,11.4286581 105.742532,11.3564074 C105.829154,11.2796172 105.967965,11.2414079 106.169658,11.2414079 L107.293467,11.2414079 L107.293467,1.285816 L103.869215,1.285816 L103.869215,2.40473234 C103.869215,2.61131824 103.830254,2.76000572 103.753871,2.84617379 C103.682019,2.93324793 103.581354,2.97637727 103.451604,2.97637727 C103.33626,2.97637727 103.235685,2.93324793 103.158487,2.84617379 C103.076759,2.76000572 103.03363,2.61131824 103.03363,2.40473234 L103.03363,0.445246976 Z M93.6790938,7.35607986 L95.9170171,1.285816 L96.2246308,1.285816 L98.5340437,7.35607986 L93.6790938,7.35607986 Z M101.515948,11.2414079 L100.868374,11.2414079 L96.7908392,0.445246976 L93.9000864,0.445246976 C93.6980309,0.445246976 93.5592197,0.488738744 93.472961,0.561043808 C93.3867023,0.637426226 93.3428481,0.743346803 93.3428481,0.863674028 C93.3428481,0.99297143 93.3867023,1.09852958 93.472961,1.17083464 C93.5592197,1.24268666 93.6980309,1.285816 93.9000864,1.285816 L95.0527088,1.285816 L91.3636102,11.2414079 L90.7160359,11.2414079 C90.5144244,11.2414079 90.3702764,11.2796172 90.2885934,11.3564074 C90.2023257,11.4286581 90.1591963,11.5341981 90.1591963,11.6590285 C90.1591963,11.7793195 90.2023257,11.874648 90.2885934,11.9571193 C90.3702764,12.0380684 90.5144244,12.0770297 90.7160359,12.0770297 L93.4060018,12.0770297 C93.6027114,12.0770297 93.7456906,12.0380684 93.8281438,11.9571193 C93.9147649,11.874648 93.9583472,11.7793195 93.9583472,11.6590285 C93.9583472,11.5341981 93.9147649,11.4286581 93.8281438,11.3564074 C93.7456906,11.2796172 93.6027114,11.2414079 93.4060018,11.2414079 L92.2340798,11.2414079 L93.36251,8.1917017 L98.8509899,8.1917017 L99.9945516,11.2414079 L98.861591,11.2414079 C98.6539179,11.2414079 98.5059552,11.2796172 98.4196966,11.3564074 C98.3319882,11.4286581 98.2895837,11.5341981 98.2895837,11.6590285 C98.2895837,11.7793195 98.3319882,11.874648 98.4196966,11.9571193 C98.5059552,12.0380684 98.6539179,12.0770297 98.861591,12.0770297 L101.515948,12.0770297 C101.713473,12.0770297 101.85754,12.0380684 101.943798,11.9571193 C102.030057,11.874648 102.073911,11.7793195 102.073911,11.6590285 C102.073911,11.5341981 102.030057,11.4286581 101.943798,11.3564074 C101.85754,11.2796172 101.713473,11.2414079 101.515948,11.2414079 Z M75.8189456,7.04399924 C75.9059472,7.12116089 75.9490856,7.22178997 75.9490856,7.35154041 C75.9490856,7.43248946 75.9199552,7.51419962 75.8673392,7.58645032 C75.8144152,7.65871008 75.756544,7.71167037 75.6896029,7.73058023 C75.6218735,7.75441009 75.4255354,7.76878956 75.0941643,7.76878956 L75.0941643,11.3416564 C74.4555964,11.6923269 73.8212509,11.9571193 73.1872678,12.1394495 C72.5536561,12.3168597 71.9249373,12.4080293 71.2950587,12.4080293 C70.4023358,12.4080293 69.6098252,12.2737394 68.9327127,12.004779 C68.2559627,11.7407387 67.6745321,11.3704063 67.2085088,10.8956574 C66.737946,10.4152365 66.3683384,9.88224485 66.1088556,9.29628388 C65.8447881,8.71033197 65.715083,7.95679179 65.715083,7.05344964 L65.715083,5.5218236 C65.715083,4.60441912 65.9409049,3.71628097 66.3967258,2.85151965 C66.8487503,1.98259037 67.4733011,1.31943151 68.260484,0.863674028 C69.0477303,0.407010463 69.9124373,0.1812157 70.8396093,0.1812157 C72.1836771,0.1812157 73.3173444,0.546274729 74.2486753,1.285816 C74.2486753,0.959355917 74.2585334,0.762283843 74.2823814,0.694962211 C74.3069814,0.628003009 74.3546412,0.570104593 74.4264751,0.522444864 C74.4983633,0.473969664 74.5850026,0.445246976 74.6761631,0.445246976 C74.7964541,0.445246976 74.8970923,0.493269136 74.9742448,0.574997417 C75.0555563,0.66125609 75.0941643,0.810668435 75.0941643,1.00774051 L75.0941643,2.89464899 C75.0941643,3.10150671 75.0555563,3.24530137 74.9742448,3.32666722 C74.8970923,3.41365075 74.7964541,3.45143423 74.6761631,3.45143423 C74.5611365,3.45143423 74.4696044,3.41365075 74.3931948,3.33645287 C74.3164047,3.25970802 74.2778601,3.12533658 74.2683734,2.93777833 C74.229403,2.37111683 73.8598589,1.91037591 73.1687294,1.55510253 C72.4764401,1.1946645 71.722909,1.0122709 70.9062332,1.0122709 C70.1383227,1.0122709 69.4418745,1.18551311 68.8226423,1.51161076 C68.2026037,1.8524775 67.6261385,2.49099102 67.0889517,3.43213476 C66.7280969,4.05216427 66.5506595,4.74821378 66.5506595,5.53088439 L66.5506595,7.05344964 C66.5506595,8.43191217 66.973626,9.53120285 67.8232105,10.3475252 C68.6687086,11.1597068 69.8455053,11.5674874 71.3336667,11.5674874 C71.8379356,11.5674874 72.3084985,11.5149077 72.7359772,11.4093677 C73.1687294,11.3038186 73.6725815,11.1165775 74.2486753,10.8521566 L74.2486753,7.76878956 L73.0480125,7.76878956 C72.8509495,7.76878956 72.7121202,7.73058023 72.6258525,7.65416157 C72.5396481,7.57699992 72.4957124,7.47637084 72.4957124,7.35154041 C72.4957124,7.22178997 72.5396481,7.12116089 72.6258525,7.04399924 C72.7121202,6.96191759 72.8509495,6.92407975 73.0480125,6.92407975 L75.3915121,6.93316772 C75.5885842,6.93316772 75.7326778,6.97136799 75.8189456,7.04399924 Z M52.5614508,11.3564074 C52.6484524,11.4286581 52.6912012,11.5341981 52.6912012,11.6590285 C52.6912012,11.7793195 52.6484524,11.874648 52.5614508,11.9571193 C52.4752012,12.0380684 52.3306998,12.0770297 52.1241501,12.0770297 L49.3918251,12.0770297 C49.1905851,12.0770297 49.0464551,12.0380684 48.9594535,11.9571193 C48.8686644,11.874648 48.8202436,11.7793195 48.8202436,11.6590285 C48.8202436,11.5341981 48.8686644,11.4286581 48.954914,11.3564074 C49.0411636,11.2796172 49.1852845,11.2414079 49.3918251,11.2414079 L50.5928684,11.2414079 L50.5928684,1.285816 L50.4150777,1.285816 L47.2643799,8.59004099 L46.3039186,8.59004099 L43.0960927,1.285816 L42.9330529,1.285816 L42.9330529,11.2414079 L44.0712959,11.2414079 C44.2729255,11.2414079 44.4170464,11.2796172 44.4979954,11.3564074 C44.5895456,11.4286581 44.6281264,11.5341981 44.6281264,11.6590285 C44.6281264,11.7793195 44.5895456,11.874648 44.4979954,11.9571193 C44.4170464,12.0380684 44.2729255,12.0770297 44.0712959,12.0770297 L41.3964706,12.0770297 C41.194098,12.0770297 41.049959,12.0380684 40.9690099,11.9571193 C40.8820083,11.874648 40.8343486,11.7793195 40.8343486,11.6590285 C40.8343486,11.5341981 40.8820083,11.4286581 40.9690099,11.3564074 C41.049959,11.2796172 41.194098,11.2414079 41.3964706,11.2414079 L42.1019705,11.2414079 L42.1019705,1.285816 L41.5738898,1.285816 C41.3771802,1.285816 41.2326788,1.24268666 41.1464201,1.17083464 C41.0594275,1.09852958 41.0166787,0.99297143 41.0166787,0.863674028 C41.0166787,0.743346803 41.0594275,0.637426226 41.1464201,0.561043808 C41.2326788,0.488738744 41.3771802,0.445246976 41.5738898,0.445246976 L43.6245539,0.445246976 L46.783959,7.64887007 L49.8960759,0.445246976 L51.9463594,0.445246976 C52.1532896,0.445246976 52.2974104,0.488738744 52.3836601,0.561043808 C52.4706617,0.637426226 52.513791,0.743346803 52.513791,0.863674028 C52.513791,0.99297143 52.4706617,1.09852958 52.3836601,1.17083464 C52.2974104,1.24268666 52.1532896,1.285816 51.9463594,1.285816 L51.4284993,1.285816 L51.4284993,11.2414079 L52.1241501,11.2414079 C52.3306998,11.2414079 52.4752012,11.2796172 52.5614508,11.3564074 Z M21.4614207,0.445246976 L30.8216193,0.445246976 L30.8216193,2.3949467 C30.8216193,2.60180442 30.7830295,2.74596151 30.7058588,2.83222018 C30.6290686,2.91847885 30.528068,2.96233305 30.4032376,2.96233305 C30.2738586,2.96233305 30.1728671,2.91847885 30.0960679,2.83222018 C30.0241978,2.74596151 29.9859884,2.60180442 29.9859884,2.3949467 L29.9859884,1.285816 L26.5617909,1.285816 L26.5617909,11.2414079 L27.7238729,11.2414079 C27.9254935,11.2414079 28.0650748,11.2796172 28.1513245,11.3564074 C28.2375741,11.4286581 28.2806943,11.5341981 28.2806943,11.6590285 C28.2806943,11.7793195 28.2375741,11.874648 28.1513245,11.9571193 C28.0650748,12.0380684 27.9254935,12.0770297 27.7238729,12.0770297 L24.5160378,12.0770297 C24.3189567,12.0770297 24.1748359,12.0380684 24.0885862,11.9571193 C24.0023366,11.874648 23.9588267,11.7793195 23.9588267,11.6590285 C23.9588267,11.5341981 24.0023366,11.4286581 24.0885862,11.3564074 C24.1748359,11.2796172 24.3189567,11.2414079 24.5160378,11.2414079 L25.7163291,11.2414079 L25.7163291,1.285816 L22.296662,1.285816 L22.296662,2.3949467 C22.296662,2.60180442 22.2588332,2.74596151 22.1824236,2.83222018 C22.1052529,2.91847885 22.0046329,2.96233305 21.8798024,2.96233305 C21.7591309,2.96233305 21.6581213,2.91847885 21.5817117,2.83222018 C21.499621,2.74596151 21.4614207,2.60180442 21.4614207,2.3949467 L21.4614207,0.445246976 Z M12.9183055,7.35607986 L15.1607592,1.285816 L15.4683094,1.285816 L17.7731738,7.35607986 L12.9183055,7.35607986 Z M20.7555493,11.2414079 L20.1120886,11.2414079 L16.0349709,0.445246976 L13.1055557,0.445246976 C12.9039351,0.445246976 12.7643537,0.488738744 12.6781041,0.561043808 C12.5914739,0.637426226 12.5483537,0.743346803 12.5483537,0.863674028 C12.5483537,0.99297143 12.5914739,1.09852958 12.6781041,1.17083464 C12.7643537,1.24268666 12.9039351,1.285816 13.1055557,1.285816 L14.2918571,1.285816 L10.6032296,11.2414079 L9.95485798,11.2414079 C9.75814833,11.2414079 9.61401843,11.2796172 9.53268882,11.3564074 C9.44606772,11.4286581 9.39801837,11.5341981 9.39801837,11.6590285 C9.39801837,11.7793195 9.44606772,11.874648 9.53268882,11.9571193 C9.61401843,12.0380684 9.75814833,12.0770297 9.95485798,12.0770297 L12.6781041,12.0770297 C12.8797247,12.0770297 13.0193061,12.0380684 13.1055557,11.9571193 C13.1918144,11.874648 13.2349346,11.7793195 13.2349346,11.6590285 C13.2349346,11.5341981 13.1918144,11.4286581 13.1055557,11.3564074 C13.0193061,11.2796172 12.8797247,11.2414079 12.6781041,11.2414079 L11.4774414,11.2414079 L12.6013139,8.1917017 L18.0950944,8.1917017 L19.2329659,11.2414079 L18.1045448,11.2414079 C17.8980042,11.2414079 17.7542639,11.2796172 17.6676338,11.3564074 C17.5764641,11.4286581 17.5378833,11.5341981 17.5378833,11.6590285 C17.5378833,11.7793195 17.5764641,11.874648 17.6676338,11.9571193 C17.7542639,12.0380684 17.8980042,12.0770297 18.1045448,12.0770297 L20.7555493,12.0770297 C20.9575504,12.0770297 21.1012998,12.0380684 21.1879209,11.9571193 C21.2692505,11.874648 21.3176713,11.7793195 21.3176713,11.6590285 C21.3176713,11.5341981 21.2692505,11.4286581 21.1879209,11.3564074 C21.1012998,11.2796172 20.9575504,11.2414079 20.7555493,11.2414079 Z M8.09673924,5.05048157 C7.85160785,5.44988097 7.4578207,5.78585488 6.91498454,6.06383976 C6.37290676,6.33810973 5.79602742,6.47737399 5.17715859,6.47737399 L2.51595076,6.47737399 L2.51595076,1.285816 L5.48924102,1.285816 C6.34869725,1.285816 7.05948775,1.54531688 7.62615377,2.06884904 C8.18790161,2.59654916 8.47123507,3.18251013 8.47123507,3.84032312 C8.47123507,4.25376674 8.34602408,4.65742471 8.09673924,5.05048157 Z M5.40715393,0.445246976 L0.557208468,0.445246976 C0.355206965,0.445246976 0.215998242,0.488738744 0.129751619,0.561043808 C0.0382068478,0.637426226 0,0.743346803 0,0.863674028 C0,0.99297143 0.0382068478,1.09852958 0.129751619,1.17083464 C0.215998242,1.24268666 0.355206965,1.285816 0.557208468,1.285816 L1.68032711,1.285816 L1.68032711,11.2414079 L0.557208468,11.2414079 C0.355206965,11.2414079 0.215998242,11.2796172 0.129751619,11.3564074 C0.0382068478,11.4286581 0,11.5341981 0,11.6590285 C0,11.7793195 0.0382068478,11.874648 0.129751619,11.9571193 C0.215998242,12.0380684 0.355206965,12.0770297 0.557208468,12.0770297 L3.62582716,12.0770297 C3.82215534,12.0770297 3.96665946,12.0380684 4.05328419,11.9571193 C4.1395338,11.874648 4.18303644,11.7793195 4.18303644,11.6590285 C4.18303644,11.5341981 4.1395338,11.4286581 4.05328419,11.3564074 C3.96665946,11.2796172 3.82215534,11.2414079 3.62582716,11.2414079 L2.51595076,11.2414079 L2.51595076,7.30765903 L5.12873776,7.30765903 C5.70032197,7.30765903 6.17582382,7.24600038 6.55977911,7.12116089 C7.09277707,6.94791868 7.60686336,6.67403833 8.10165199,6.30485664 C8.43265334,6.05930937 8.71598047,5.72342607 8.95127274,5.29140784 C9.18694739,4.86392 9.30685781,4.37862436 9.30685781,3.84032312 C9.30685781,2.93324793 8.94673329,2.13580824 8.21702569,1.45833335 C7.49148333,0.786113708 6.55523966,0.445246976 5.40715393,0.445246976 L5.40715393,0.445246976 Z" id="Fill-3"></path>
                    </g>
                </g>
            </g>
        </g>
    </g>
</svg>