<?xml version="1.0" encoding="UTF-8"?>
<svg width="1200px" height="592px" viewBox="0 0 1200 592" version="1.1" xmlns="http://www.w3.org/2000/svg" xmlns:xlink="http://www.w3.org/1999/xlink">
    <title>Palermo Copy</title>
    <g id="Palermo-Copy" stroke="none" stroke-width="1" fill="none" fill-rule="evenodd">
        <g id="Group-17" transform="translate(1.000000, 125.000000)" fill="#ffffff">
            <path d="M244.433649,8.52651283e-14 C199.149289,8.52651283e-14 166.447867,30.5687204 166.447867,74.7156398 C166.447867,121.137441 200.00237,149.43128 244.433649,149.43128 C288.793839,149.43128 322.419431,120.924171 322.419431,74.7156398 C322.419431,30.3554502 289.504739,8.52651283e-14 244.433649,8.52651283e-14 Z M244.433649,146.516588 C205.831754,146.516588 183.509479,120.49763 183.509479,74.7867299 C183.509479,28.7914692 205.831754,3.05687204 244.433649,3.05687204 C283.035545,3.05687204 305.35782,28.7914692 305.35782,74.7867299 C305.35782,120.49763 283.106635,146.516588 244.433649,146.516588 Z" id="Fill-4"></path>
            <path d="M479.812512,143.744076 L455.784645,143.744076 L448.604265,143.744076 L393.225118,143.744076 C393.225118,143.744076 392.300948,139.123223 392.300948,123.056872 L392.300948,74.5023697 C392.300948,54.8104265 392.443128,34.1232227 392.443128,22.8909953 L392.443128,3.69668246 C392.443128,2.98578199 391.874351,2.48815166 391.234597,2.48815166 C389.101896,2.55924171 386.969194,2.55924171 384.481043,2.55924171 C382.063981,2.55924171 379.93128,2.55924171 377.798578,2.48815166 C377.158768,2.48815166 376.590047,2.98578199 376.590047,3.69668246 L376.590047,43.7203791 C376.661137,53.1753555 376.661137,63.9810427 376.661137,74.5023697 C376.661137,84.3838863 376.661137,94.9763033 376.590047,104.50237 L376.590047,145.308057 C376.590047,146.018957 377.158768,146.587678 377.869668,146.516588 C379.93128,146.445498 382.063981,146.445498 384.481043,146.445498 C407.940758,146.445498 447.751185,146.872038 478.746161,146.872038 C480.167962,146.872038 480.949953,146.729858 481.377062,146.018957 C481.945782,145.094787 481.021611,143.744076 479.812512,143.744076 Z" id="Fill-5"></path>
            <path d="M541.661422,146.800948 C543.651374,146.729858 545.713555,146.729858 547.988436,146.729858 C550.334408,146.729858 552.467109,146.729858 554.45763,146.800948 C555.310711,146.800948 556.021611,146.090047 556.021611,145.236967 L556.021611,136.492891 C556.021611,135.995261 556.021611,135.42654 556.021611,134.78673 C556.021611,134.78673 555.808341,103.720379 555.808341,74.7867299 C555.808341,45.8530806 556.021611,14.7867299 556.021611,14.7867299 C556.021611,14.2180095 556.021611,13.6492891 556.021611,13.0805687 L556.021611,4.26540284 C556.021611,3.41232227 555.310711,2.7014218 554.45763,2.7014218 C552.39545,2.77251185 550.334408,2.77251185 547.988436,2.77251185 C545.641896,2.77251185 543.651374,2.77251185 541.661422,2.7014218 C540.807773,2.7014218 540.096872,3.41232227 540.096872,4.26540284 L540.096872,37.1800948 C540.168531,48.056872 540.168531,61.6350711 540.168531,74.7867299 C540.168531,87.9383886 540.096872,101.516588 540.096872,112.393365 L540.096872,145.308057 C540.096872,146.090047 540.736682,146.800948 541.661422,146.800948 Z" id="Fill-6"></path>
            <path d="M685.263318,146.374408 C685.974218,148.009479 686.187488,148.649289 687.11109,148.649289 C688.035829,148.649289 688.248531,147.938389 688.959431,146.374408 C691.945782,138.341232 694.718294,132.085308 702.324929,115.805687 L747.18218,19.1943128 C747.680379,18.1279621 748.177441,17.1327014 748.603981,16.2085308 L754.789384,2.91469194 C755.215924,2.06161137 754.575545,0.995260664 753.580284,1.06635071 C753.083223,1.06635071 752.513934,1.06635071 751.945782,1.06635071 C751.447583,1.06635071 750.950521,1.3507109 750.736682,1.84834123 L744.196967,16.3507109 C743.841517,17.3459716 743.343318,18.4834123 742.775166,19.6919431 L700.262749,112.606635 C697.490237,118.364929 695.215924,122.985782 693.153744,127.819905 L692.941043,127.819905 C690.168531,121.137441 688.106919,116.516588 684.694028,109.194313 L639.836209,15.3554502 C639.054787,13.7203791 638.485498,12.4407583 638.058957,11.3033175 L633.580853,1.77725118 C633.367583,1.27962085 632.869953,0.995260664 632.371754,0.995260664 C630.808341,0.995260664 629.172701,1.06635071 627.39545,1.06635071 C623.912038,1.06635071 620.926256,0.995260664 617.798294,0.924170616 C616.803033,0.924170616 616.163791,1.91943128 616.590332,2.77251185 L633.367583,38.0331754 C659.741422,92.7725118 671.258578,115.663507 677.301232,128.246445 C680.641896,135.28436 683.201137,141.042654 685.263318,146.374408 Z" id="Fill-7"></path>
            <path d="M830.357536,2.7014218 C828.295924,2.77251185 826.234882,2.77251185 823.88891,2.77251185 C821.54237,2.77251185 819.552417,2.77251185 817.561327,2.7014218 C816.708815,2.7014218 815.997915,3.41232227 815.997915,4.26540284 L815.997915,37.1800948 C816.069005,48.056872 816.069005,61.6350711 816.069005,74.7867299 C816.069005,87.9383886 815.997915,101.516588 815.997915,112.393365 L815.997915,145.308057 C815.997915,146.161137 816.708815,146.872038 817.561327,146.872038 C819.552417,146.800948 821.614028,146.800948 823.88891,146.800948 C826.234882,146.800948 828.367583,146.800948 830.357536,146.872038 C831.211185,146.872038 831.922085,146.161137 831.922085,145.308057 L831.922085,136.492891 C831.922085,135.995261 831.922085,135.42654 831.922085,134.78673 C831.922085,134.78673 831.708815,103.720379 831.708815,74.7867299 C831.708815,45.8530806 831.922085,14.7867299 831.922085,14.7867299 C831.922085,14.2180095 831.922085,13.6492891 831.922085,13.0805687 L831.922085,4.26540284 C831.922085,3.34123223 831.211185,2.7014218 830.357536,2.7014218 Z" id="Fill-8"></path>
            <path d="M1027.63242,138.554502 C1027.06427,137.488152 1026.42445,136.279621 1025.78464,134.85782 C991.234882,62.9146919 977.443412,35.5450237 970.547678,21.3270142 C967.064265,14.2180095 964.576114,8.45971564 962.514502,3.12796209 C961.803602,1.492891 961.589763,0.853080569 960.666161,0.853080569 C959.741422,0.853080569 959.52872,1.56398104 958.81782,3.12796209 C955.831469,11.1611374 953.058957,17.4170616 945.452891,33.6966825 L900.595071,130.308057 C899.670332,132.298578 898.888341,133.933649 898.035829,135.49763 L891.993175,148.151659 C891.921517,148.293839 892.064265,148.507109 892.205877,148.507109 L895.974218,148.507109 C896.044739,148.507109 896.115829,148.436019 896.186919,148.364929 L909.622938,119.57346 L914.599242,108.838863 C925.618199,108.625592 943.60455,108.625592 954.836209,108.625592 C965.642464,108.625592 983.343886,108.838863 995.784645,108.838863 L1014.41024,147.369668 C1014.6946,148.009479 1015.4055,148.436019 1016.1164,148.436019 C1017.46711,148.436019 1018.88891,148.436019 1020.45232,148.436019 C1023.86521,148.436019 1026.85043,148.507109 1029.97896,148.578199 C1031.11583,148.578199 1031.89782,147.440758 1031.40076,146.374408 L1027.63242,138.554502 Z M954.907867,106.137441 C944.31545,106.137441 926.61346,106.137441 916.021043,105.7109 L947.514502,36.9668246 C950.287014,31.2085308 952.561896,26.5876777 954.623507,21.7535545 L954.836209,21.7535545 C957.60872,28.436019 959.6709,33.056872 963.083223,40.3791469 L994.362844,105.924171 C982.988436,106.137441 965.073175,106.137441 954.907867,106.137441 Z" id="Fill-9"></path>
            <path d="M41.0450237,194.146919 C26.1161137,194.146919 14.5995261,194.57346 8.41469194,194.57346 C6.13981043,194.57346 4.22037915,194.57346 2.30094787,194.57346 C1.37677725,194.57346 0.665876777,195.28436 0.665876777,196.208531 L0.665876777,218.033175 C0.736966825,229.834123 0.808056872,249.099526 0.808056872,266.872038 C0.808056872,285.21327 0.736966825,304.336493 0.665876777,315.924171 L0.665876777,337.322275 C0.665876777,338.246502 1.37677725,338.957403 2.30094787,338.957403 C4.29146919,338.886199 6.35308057,338.886199 8.62796209,338.886199 C10.9028436,338.886199 12.8933649,338.886199 14.8127962,338.957403 C15.7369668,338.957403 16.4478673,338.246502 16.4478673,337.322275 L16.4478673,295.734597 C16.4478673,290.545024 16.4478673,285 16.4478673,279.312796 C26.3293839,280.947867 34.8601896,281.587678 45.1682464,281.587678 C84.2677725,281.587678 107.514218,269.85782 107.514218,236.729858 C107.514218,201.469194 76.4478673,194.146919 41.0450237,194.146919 Z M45.1682464,278.957346 C35.7132701,278.957346 26.9691943,278.530806 16.4478673,276.895735 L16.4478673,266.800948 C16.4478673,239.43128 16.6611374,206.090047 16.6611374,206.090047 C16.6611374,197.843602 17.5853081,196.635071 29.7417062,196.635071 L40.5473934,196.635071 C67.7037915,196.635071 90.8798369,200.758294 90.8798369,237.369668 C90.950237,270.7109 75.0971564,278.957346 45.1682464,278.957346 Z" id="Fill-10"></path>
            <path d="M265.334123,330.355393 C264.765289,329.289043 264.125592,328.080569 263.485782,326.658768 C229.007109,254.64455 215.21564,227.274882 208.319905,213.056872 C204.836493,205.947867 202.348341,200.189573 200.28673,194.85782 C199.575829,193.222749 199.362559,192.582938 198.438389,192.582938 C197.514218,192.582938 197.300948,193.293839 196.590047,194.85782 C193.604265,202.890995 190.831754,209.146919 183.225118,225.42654 L138.367299,322.037915 C137.443128,324.028493 136.661137,325.73454 135.808057,327.227545 L129.765403,339.881517 C129.694313,340.023754 129.836493,340.236967 129.978673,340.236967 L133.746445,340.236967 C133.817536,340.236967 133.888626,340.165877 133.959716,340.094787 L147.395735,311.303318 L152.372038,300.56872 C163.390995,300.35545 181.376777,300.35545 192.609005,300.35545 C203.414692,300.35545 221.116114,300.56872 233.556872,300.56872 L252.182464,339.099526 C252.466825,339.739336 253.177725,340.165877 253.888626,340.165877 C255.239336,340.165877 256.661137,340.165877 258.225118,340.165877 C261.637441,340.165877 264.623223,340.236967 267.751185,340.308 C268.888626,340.308 269.670616,339.170616 269.172986,338.104265 L265.334123,330.355393 Z M192.680095,297.938389 C182.087678,297.938389 164.386256,297.938389 153.793839,297.511848 L185.28673,228.767773 C188.059242,223.009479 190.334123,218.388626 192.395735,213.554502 L192.609005,213.554502 C195.381517,220.236967 197.443128,224.85782 200.85545,232.180095 L232.135071,297.725118 C220.689573,297.938389 202.774882,297.938389 192.680095,297.938389 Z" id="Fill-11"></path>
            <path d="M432.964455,335.545024 L408.936019,335.545024 L401.755924,335.545024 L346.376777,335.545024 C346.376777,335.545024 345.452607,330.924171 345.452607,314.85782 L345.452607,266.303318 C345.452607,246.611374 345.594787,225.924171 345.594787,214.691943 L345.594787,195.42654 C345.594787,194.78673 345.026009,194.218009 344.386256,194.218009 C342.253555,194.2891 340.120853,194.2891 337.632701,194.2891 C335.21564,194.2891 333.082938,194.2891 330.950237,194.218009 C330.310427,194.218009 329.741706,194.71564 329.741706,195.42654 L329.741706,235.450237 C329.812796,244.905213 329.812796,255.7109 329.812796,266.232227 C329.812796,276.113744 329.812796,286.706161 329.741706,296.232227 L329.741706,337.037915 C329.741706,337.748701 330.310427,338.317536 331.021327,338.246389 C333.082938,338.175299 335.21564,338.175299 337.632701,338.175299 C361.092417,338.175299 400.902844,338.601953 431.898104,338.601953 C433.319905,338.601953 434.101953,338.459716 434.528436,337.748815 C435.097156,336.824701 434.172986,335.545024 432.964455,335.545024 Z" id="Fill-12"></path>
            <path d="M593.983128,335.687147 L572.087393,335.687147 L546.494976,335.687147 L509.10218,335.687147 L509.10218,335.687147 C509.10218,335.616114 508.178009,330.995261 508.178009,315 C508.178009,315 507.964171,271.777251 507.964171,266.445498 L507.964171,265.308057 L517.988436,265.308057 L543.794123,265.308057 L560.002085,265.308057 C560.712986,265.308057 561.281706,264.739336 561.281706,264.028436 C561.281706,263.317536 560.712986,262.748815 560.002085,262.748815 L543.794123,262.748815 L517.134787,262.748815 L507.893081,262.748815 L507.893081,262.748815 C507.893081,240.21327 508.106351,217.890995 508.106351,217.890995 C508.106351,201.895735 508.532891,197.274882 508.532891,197.203791 L508.532891,197.203791 L554.457062,197.203791 L569.030521,197.203791 L590.286445,197.203791 C592.276967,197.203791 592.490237,194.218009 590.499716,194.004739 C590.357536,194.004739 590.144265,194.004739 589.930995,194.004739 C556.803033,194.004739 523.675071,194.43128 500.215355,194.43128 C497.656114,194.43128 495.381232,194.43128 493.177441,194.36019 C492.252219,194.36019 492.252219,194.36019 492.252219,195.21327 L492.252219,228.554502 C492.32436,239.50237 492.32436,253.151659 492.32436,266.374408 C492.32436,275.118483 492.32436,284.43128 492.252219,293.104265 L492.252219,337.037915 C492.252219,338.459716 492.18218,338.459716 493.746161,338.459716 C495.736682,338.388626 497.798294,338.388626 500.144265,338.388626 C524.528152,338.388626 559.006825,338.815166 593.485498,338.815166 C593.698768,338.815166 593.912038,338.815166 594.054218,338.815166 C596.187488,338.672986 595.902559,335.687147 593.983128,335.687147 Z" id="Fill-13"></path>
            <path d="M772.917346,330.49763 C772.917346,330.49763 772.917346,330.426597 772.845687,330.426597 C768.793555,320.189573 764.314882,304.194313 764.314882,304.194313 L761.82673,296.516588 C752.372322,269.57346 746.186919,268.222749 724.077915,266.872038 L724.077915,266.587678 C752.372322,264.739336 769.860474,251.374408 769.860474,229.763033 C769.860474,201.966825 743.841517,193.862559 703.888341,193.862559 C690.808341,193.862559 677.869384,194.2891 671.89782,194.2891 C669.836777,194.2891 668.059526,194.2891 666.210616,194.2891 C665.073175,194.2891 664.077915,195.21327 664.077915,196.350711 L664.077915,214.691943 C664.149573,225.995261 664.220664,247.180095 664.220664,266.445498 C664.220664,273.199052 664.220664,280.023697 664.220664,286.563981 L664.220664,337.108948 C664.220664,337.891052 664.860474,338.530749 665.712986,338.530749 C667.704076,338.459716 669.765118,338.459716 672.11109,338.459716 C674.45763,338.459716 676.518673,338.459716 678.509194,338.530749 C679.291185,338.530749 680.002085,337.891052 680.002085,337.108948 L680.002085,297.156398 C679.930995,287.843602 679.930995,277.251185 679.930995,266.800948 C690.950521,267.511848 698.770427,267.725118 708.225403,267.725118 C732.396019,267.725118 736.945213,271.421801 745.476019,296.729858 L754.433934,326.658768 C758.343886,338.388626 759.267488,339.099526 763.603981,339.099526 C769.149573,339.099526 772.348057,338.886199 776.471848,338.886199 C776.898389,338.886199 777.253839,338.886199 777.680379,338.886199 C776.61346,338.815166 774.836777,335.331697 772.917346,330.49763 Z M680.002085,264.526066 C680.002085,237.156398 680.215924,205.876777 680.215924,205.876777 C680.215924,197.132701 681.566635,196.421801 693.296493,196.421801 L703.67564,196.421801 C729.907867,196.421801 752.869384,199.905213 752.869384,230.687204 C752.869384,258.270142 738.865213,265.165877 708.225403,265.165877 C699.765687,265.236967 691.731943,265.236967 680.002085,264.526066 Z" id="Fill-14"></path>
            <path d="M984.836777,193.933649 C980.500284,194.004739 976.376493,194.075829 971.329668,194.075829 C969.054218,200.545024 965.784076,207.156398 960.950521,217.322275 L921.140095,302.203791 C918.367583,308.175355 916.305972,312.582938 913.74673,318.767773 L913.532891,318.767773 C910.547678,312.085308 908.912038,308.672986 904.789384,299.92891 L863.840948,213.909953 C857.869953,201.255924 856.234313,198.056872 854.883602,193.933649 C848.343886,193.933649 843.296493,193.933649 838.81782,193.862559 C838.603981,193.862559 838.39128,194.075829 838.39128,194.2891 L838.39128,220.521327 C838.461801,231.611374 838.532891,248.886256 838.532891,265.876777 C838.532891,274.905213 838.532891,283.933649 838.461801,292.109005 L838.461801,336.824701 C838.461801,337.108948 838.67564,338.104265 839.883602,338.175299 C839.954692,338.175299 840.025782,338.175299 840.168531,338.175299 L840.168531,338.175299 C841.376493,338.175299 841.519242,337.251185 841.590332,336.895735 L841.590332,285.924171 C841.590332,279.526066 841.590332,272.701422 841.590332,265.947867 L841.590332,232.819905 C841.590332,220.165877 841.590332,214.194313 841.163791,202.037915 L841.376493,202.037915 C844.149005,208.507109 846.211185,212.630332 849.196398,219.028436 L891.282275,307.322275 C897.751469,320.687204 900.950521,327.085308 905.286445,335.829384 C906.211185,337.677725 906.637725,339.312853 907.845687,339.312853 C908.983128,339.312853 909.481327,337.962085 910.404929,335.829384 C915.239052,324.099526 919.575545,313.720436 924.410237,303.625592 L964.220664,218.744076 C966.993175,212.772512 969.054218,208.151659 971.82673,201.966825 L972.040569,201.966825 C971.329668,213.909953 971.115829,224.50237 971.115829,241.066351 L971.115829,265.876777 C971.115829,277.322275 971.045308,289.549763 971.045308,299.92891 L971.045308,336.753498 C971.045308,337.535602 971.685118,338.175299 972.467109,338.175299 C974.45763,338.104265 976.590332,338.104265 978.935735,338.104265 C981.282275,338.104265 983.414976,338.104265 985.404929,338.175299 C986.187488,338.175299 986.82673,337.535602 986.82673,336.753498 L986.82673,299.92891 C986.75564,289.691943 986.75564,277.677725 986.75564,266.090047 C986.75564,253.009479 986.82673,239.50237 986.82673,228.625592 L986.82673,195.924171 C986.898389,194.78673 985.974218,193.933649 984.836777,193.933649 Z" id="Fill-15"></path>
            <path d="M1119.48133,191.729858 C1074.1964,191.729858 1041.49498,222.298578 1041.49498,266.445498 C1041.49498,312.867299 1075.05005,341.161137 1119.48133,341.161137 C1163.84095,341.161137 1197.46654,312.654028 1197.46654,266.445498 C1197.39602,222.085308 1164.55185,191.729858 1119.48133,191.729858 Z M1119.48133,338.246502 C1080.87886,338.246502 1058.55659,312.227488 1058.55659,266.516588 C1058.55659,220.521327 1080.87886,194.78673 1119.48133,194.78673 C1158.08265,194.78673 1180.40493,220.521327 1180.40493,266.516588 C1180.40493,312.227488 1158.08265,338.246502 1119.48133,338.246502 Z" id="Fill-16"></path>
        </g>
    </g>
</svg>