<?xml version="1.0" encoding="UTF-8"?>
<svg viewBox="0 0 117 24" version="1.1" xmlns="http://www.w3.org/2000/svg" xmlns:xlink="http://www.w3.org/1999/xlink">
    <!-- Generator: Sketch 54.1 (76490) - https://sketchapp.com -->
    <title>shopify-plus-logo--black</title>
    <desc>Created with Sketch.</desc>
    <g id="📄-template---about" stroke="none" stroke-width="1" fill="none" fill-rule="evenodd">
        <g id="🖥-desktop,-about" transform="translate(-246.000000, -4245.000000)" fill="#000000" fill-rule="nonzero">
            <g id="technology-partners" transform="translate(140.000000, 4106.000000)">
                <g id="shopify-plus-logo--black" transform="translate(106.000000, 139.000000)">
                    <path d="M90.7662944,9.09624365 C89.2830457,9.09624365 88.0659898,9.61279188 87.2010152,10.5995939 L87.3685279,9.72974619 C87.4215228,9.45441624 87.2339086,9.22172589 86.9585787,9.22172589 C86.6832487,9.22172589 86.4054822,9.45441624 86.3530964,9.72974619 L83.7904569,23.0339086 C83.7374619,23.3092386 83.9250761,23.5419289 84.2004061,23.5419289 C84.475736,23.5419289 84.7535025,23.3092386 84.8064975,23.0339086 L85.7579695,18.0925888 C86.1082234,18.724264 86.9208122,19.5904569 88.7451777,19.5904569 C90.1723858,19.5904569 91.3693401,19.1518782 92.3037563,18.2856853 C93.2680203,17.3920812 93.9258883,16.062335 94.2590863,14.3323858 C94.5922843,12.6036548 94.4454822,11.2769543 93.8241624,10.3894416 C93.2235533,9.53177665 92.1941117,9.09624365 90.7662944,9.09624365 Z M88.9248731,18.6596954 C86.7545178,18.6596954 85.8956345,17.1636548 86.4408122,14.3336041 C86.9914721,11.4767513 88.3650761,10.0282234 90.524467,10.0282234 C92.884264,10.0282234 93.7595939,11.4365482 93.2016244,14.3336041 C92.6326904,17.2848731 91.2737056,18.6596954 88.9248731,18.6596954 Z" id="Shape"></path>
                    <path d="M112.87797,13.7713706 C111.590863,13.2938071 110.374416,12.8430457 110.605888,11.6430457 C110.722234,11.04 111.211371,10.0276142 113.183147,10.0276142 C114.291168,10.0276142 114.990457,10.3340102 115.596548,11.0856853 C115.710457,11.2257868 115.839594,11.2257868 115.895025,11.2257868 C116.147208,11.2257868 116.401827,11.0125888 116.450558,10.759797 C116.47736,10.6227411 116.451168,10.5417259 116.390863,10.4339086 C116.388426,10.4296447 116.38599,10.4253807 116.382944,10.4211168 C115.767716,9.54152284 114.751675,9.09563452 113.362843,9.09563452 C111.33868,9.09563452 109.893198,10.0714721 109.589848,11.6424365 C109.22802,13.5234518 110.892792,14.1526904 112.36203,14.7082234 C113.631472,15.1882234 114.831472,15.6414213 114.609137,16.7920812 C114.296041,18.4166497 112.592893,18.6590863 111.604873,18.6590863 C110.242843,18.6590863 109.402234,18.288731 108.792487,17.4201015 C108.79066,17.417665 108.788223,17.4146193 108.786396,17.4121827 C108.710863,17.3189848 108.610355,17.2720812 108.488528,17.2720812 C108.263756,17.2720812 107.986599,17.4596954 107.932995,17.7380711 C107.906193,17.8745178 107.932386,17.9549239 107.99269,18.0633503 C108.398376,18.8229442 109.617868,19.591066 111.425787,19.591066 C113.71797,19.591066 115.287716,18.5445685 115.625178,16.7920812 C115.985787,14.9232487 114.334416,14.311066 112.87797,13.7713706 Z" id="Path"></path>
                    <path d="M109.806701,6.46903553 L108.734619,6.46903553 L108.941117,5.39695431 C108.994112,5.12162437 108.806497,4.88893401 108.531168,4.88893401 C108.255838,4.88893401 107.978071,5.12162437 107.925076,5.39695431 L107.718579,6.46903553 L106.646497,6.46903553 C106.371168,6.46903553 106.09401,6.70172589 106.041015,6.97705584 C105.98802,7.25238579 106.175635,7.48507614 106.450964,7.48507614 L107.523046,7.48507614 L107.316548,8.55715736 C107.263553,8.83248731 107.451168,9.06517766 107.726497,9.06517766 C108.001827,9.06517766 108.279594,8.83248731 108.33198,8.55715736 L108.538477,7.48507614 L109.610558,7.48507614 C109.885279,7.48507614 110.163046,7.25238579 110.216041,6.97705584 C110.270254,6.70233503 110.08203,6.46903553 109.806701,6.46903553 Z" id="Path"></path>
                    <path d="M24.6877157,16.7945178 C25.2085279,17.0655838 26.1459898,17.440203 27.0420305,17.4194924 C27.8546193,17.4194924 28.2919797,16.9815228 28.2919797,16.4406091 C28.2919797,15.919797 27.9794924,15.5658883 27.1041624,15.0657868 C26.0211168,14.4408122 25.2085279,13.5654822 25.2085279,12.4196954 C25.2085279,10.3985787 26.937868,8.96101523 29.4584772,8.96101523 C30.5628426,8.96101523 31.4168528,9.1693401 31.8749239,9.44040609 L31.2085279,11.4822335 C30.8125888,11.2946193 30.1669036,11.0862944 29.4170558,11.0862944 C28.604467,11.0862944 28.0836548,11.4615228 28.0836548,12.044467 C28.0836548,12.5025381 28.4588832,12.8363452 29.1880203,13.2322843 C30.3130964,13.8779695 31.2505584,14.7532995 31.2505584,15.9825381 C31.2505584,18.2741117 29.3963452,19.5660914 26.8129949,19.5453807 C25.6251777,19.5246701 24.5208122,19.2115736 23.9798985,18.8369543 L24.6877157,16.7945178 Z" id="Path"></path>
                    <path d="M31.8341117,19.488731 L34.6257868,4.90050761 L37.5009137,4.90050761 L36.3965482,10.555736 L36.4379695,10.5185787 C37.2085279,9.60182741 38.208731,8.96893401 39.4793909,8.96893401 C40.9796954,8.96893401 41.8337056,9.93380711 41.8337056,11.5589848 C41.8337056,12.0590863 41.7502538,12.8674112 41.6253807,13.4929949 L40.5003046,19.4893401 L37.6251777,19.4893401 L38.7082234,13.6726904 C38.791066,13.2767513 38.8337056,12.764467 38.8337056,12.3691371 C38.8337056,11.7441624 38.5839594,11.2903553 37.937665,11.2903553 C37.0209137,11.2903553 36.0414213,12.5147208 35.666802,14.4109645 L34.7080203,19.4893401 L31.8341117,19.4893401 L31.8341117,19.488731 Z" id="Path"></path>
                    <path d="M52.231066,12.9612183 C52.231066,16.5240609 49.9388832,19.5660914 46.5429442,19.5660914 C43.9595939,19.5660914 42.5847716,17.7740102 42.5847716,15.5445685 C42.5847716,12.0651777 44.8769543,8.93969543 48.3350254,8.93969543 C51.0231472,8.94030457 52.231066,10.8986802 52.231066,12.9612183 Z M45.5226396,15.4824365 C45.5226396,16.5240609 45.9392893,17.3573604 46.9187817,17.3573604 C48.4391878,17.3573604 49.2938071,14.6485279 49.2938071,12.8777665 C49.2938071,12.0237563 48.96,11.1490355 47.9396954,11.1490355 C46.3766497,11.1484264 45.5226396,13.8359391 45.5226396,15.4824365 Z" id="Shape"></path>
                    <path d="M51.5439594,23.5407107 L53.5437563,13.0270051 C53.773401,11.8391878 54.0018274,10.3029442 54.1273096,9.22172589 L56.6692386,9.22172589 L56.502335,10.8426396 L56.5437563,10.8426396 C57.3143147,9.76203046 58.44,9.03654822 59.5851777,9.03654822 C61.6891371,9.03654822 62.5437563,10.7171574 62.5437563,12.6548223 C62.5437563,16.155533 60.3356345,19.6032487 56.9604061,19.6032487 C56.2519797,19.6032487 55.6062944,19.4881218 55.2724873,19.2182741 L55.2097462,19.2182741 L54.417868,23.5407107 L51.5439594,23.5407107 Z M55.648934,16.982132 C55.9614213,17.2318782 56.3153299,17.3987817 56.8367513,17.3987817 C58.4412183,17.3987817 59.5455838,14.7526904 59.5455838,12.8984772 C59.5455838,12.1279188 59.2745178,11.3153299 58.399797,11.3153299 C57.3995939,11.3153299 56.462132,12.5031472 56.128934,14.2946193 L55.648934,16.982132 Z" id="Shape"></path>
                    <path d="M62.6284264,19.488731 L64.5660914,9.22294416 L67.4619289,9.22294416 L65.5035533,19.488731 L62.6284264,19.488731 Z M66.3581726,8.14233503 C65.5455838,8.14233503 65.0040609,7.44730964 65.0040609,6.59329949 C65.0040609,5.65583756 65.733198,4.8706599 66.6499492,4.8706599 C67.5246701,4.8706599 68.0875127,5.55898477 68.0875127,6.39228426 C68.066802,7.45461929 67.2956345,8.14294416 66.400203,8.14294416 L66.3581726,8.14233503 L66.3581726,8.14233503 Z" id="Shape"></path>
                    <path d="M68.0034518,19.488731 L69.524467,11.3841624 L68.191066,11.3841624 L68.6077157,9.22294416 L69.9411168,9.22294416 L70.0245685,8.70639594 C70.2542132,7.49786802 70.7116751,6.27045685 71.6911675,5.43715736 C72.4617259,4.77076142 73.4826396,4.46923858 74.5041624,4.46923858 C75.2125888,4.46923858 75.733401,4.56913706 76.066599,4.71472081 L75.5043655,6.96243655 C75.2546193,6.87959391 74.9628426,6.81563452 74.5876142,6.81563452 C73.6288325,6.81563452 73.0452792,7.72751269 72.8789848,8.70700508 L72.7748223,9.22294416 L74.7746193,9.22294416 L74.3786802,11.3841624 L72.3995939,11.3841624 L70.8785787,19.488731 L68.0034518,19.488731 L68.0034518,19.488731 Z" id="Path"></path>
                    <path d="M78.3380711,9.22294416 L78.7961421,13.8182741 C78.9216244,14.8391878 79.004467,15.706599 79.0458883,16.2469036 L79.0873096,16.2469036 C79.3169543,15.706599 79.5252792,14.9013198 79.9419289,13.7975635 L81.6919797,9.2235533 L84.6919797,9.2235533 L81.1711675,16.7390863 C79.9212183,19.3224365 78.7126904,21.2052792 77.4,22.4345178 C76.3790863,23.3926904 75.1705584,23.8653807 74.5870051,23.9902538 L73.7951269,21.5488325 C74.2745178,21.3819289 74.8781726,21.1303553 75.4203046,20.7350254 C76.0867005,20.2769543 76.6495431,19.6507614 76.9827411,19.0050761 C77.0655838,18.8594924 77.0869036,18.7608122 77.0454822,18.5524873 L75.3161421,9.22416244 L78.3380711,9.22294416 L78.3380711,9.22294416 Z" id="Path"></path>
                    <path d="M107.454822,10.1884264 C107.179492,10.1884264 106.901726,10.4211168 106.848731,10.6964467 L105.877766,15.7394924 C105.350863,18.3082234 103.773198,18.6590863 102.294213,18.6590863 C99.6304569,18.6590863 99.5634518,17.1417259 99.8491371,15.6572589 L100.99066,9.73035533 C101.043655,9.45502538 100.856041,9.22233503 100.580711,9.22233503 C100.305381,9.22233503 100.027614,9.45502538 99.9746193,9.73035533 L98.8330964,15.6572589 C98.6034518,16.8517766 98.6850761,17.7435533 99.0846701,18.3825381 C99.5853807,19.1841624 100.605076,19.5904569 102.114518,19.5904569 C103.623959,19.5904569 104.799594,19.1835533 105.609746,18.3825381 C106.255431,17.7435533 106.681218,16.8517766 106.910863,15.6572589 L107.86599,10.6964467 C107.917766,10.4211168 107.730152,10.1884264 107.454822,10.1884264 Z" id="Path"></path>
                    <path d="M98.2763452,4.91695431 C98.0010152,4.91695431 97.7232487,5.14964467 97.6702538,5.42497462 L95.0643655,18.9569543 C95.0113706,19.2322843 95.1989848,19.4649746 95.4743147,19.4649746 C95.7496447,19.4649746 96.0274112,19.2322843 96.0804061,18.9569543 L98.6862944,5.42497462 C98.7392893,5.14964467 98.5516751,4.91695431 98.2763452,4.91695431 Z" id="Path"></path>
                    <g id="Group">
                        <path d="M14.1411168,2.77766497 C14.1392893,2.77827411 13.8791878,2.8586802 13.4393909,2.9951269 C13.3662944,2.75695431 13.257868,2.46395939 13.1037563,2.16974619 C12.6067005,1.2213198 11.8781726,0.718781726 10.9985787,0.717563452 C10.9973604,0.717563452 10.9967513,0.717563452 10.995533,0.717563452 C10.9346193,0.717563452 10.8737056,0.723045685 10.8127919,0.728527919 C10.7872081,0.697461929 10.7610152,0.666395939 10.7329949,0.63715736 C10.3498477,0.227208122 9.85766497,0.0274111675 9.26923858,0.0444670051 C8.13258883,0.0773604061 7.00081218,0.89786802 6.08345178,2.35553299 C5.43715736,3.3813198 4.94680203,4.67025381 4.80730964,5.66741117 C3.50253807,6.07126904 2.58944162,6.35451777 2.56994924,6.36060914 C1.91147208,6.5671066 1.89076142,6.58781726 1.80426396,7.20852792 C1.73908629,7.67817259 0.0158375635,21.0054822 0.0158375635,21.0054822 L14.3147208,23.4785787 L14.3147208,2.7484264 C14.2440609,2.75329949 14.1807107,2.76609137 14.1411168,2.77766497 Z M10.8395939,3.80040609 C10.0830457,4.03492386 9.25705584,4.29076142 8.4280203,4.54720812 C8.6613198,3.65482234 9.10294416,2.76609137 9.64568528,2.18375635 C9.84730964,1.96751269 10.1299492,1.72568528 10.4643655,1.58741117 C10.7792893,2.24284264 10.8469036,3.17238579 10.8395939,3.80040609 Z M9.29116751,0.801015228 C9.55796954,0.795532995 9.78274112,0.854010152 9.97461929,0.980101523 C9.66761421,1.13969543 9.37035533,1.36873096 9.0919797,1.66720812 C8.37015228,2.44142132 7.81705584,3.64385787 7.59654822,4.80365482 C6.90822335,5.01685279 6.2351269,5.22517766 5.61624365,5.41705584 C6.00670051,3.59147208 7.53685279,0.851573604 9.29116751,0.801015228 Z M7.08,11.2014213 C7.15675127,12.417868 10.3571574,12.6834518 10.5368528,15.5329949 C10.6781726,17.7746193 9.34781726,19.3078173 7.43086294,19.4290355 C5.13015228,19.5740102 3.86375635,18.2168528 3.86375635,18.2168528 L4.35106599,16.1427411 C4.35106599,16.1427411 5.62598985,17.1045685 6.64629442,17.04 C7.31269036,16.9979695 7.55086294,16.4558376 7.5271066,16.0720812 C7.42720812,14.4852792 4.8213198,14.5784772 4.65624365,11.9713706 C4.51796954,9.77725888 5.95857868,7.55390863 9.13827411,7.3528934 C10.3632487,7.27553299 10.9906599,7.5880203 10.9906599,7.5880203 L10.2633503,10.3078173 C10.2633503,10.3078173 9.45258883,9.9386802 8.49076142,9.99898477 C7.08060914,10.0891371 7.06538071,10.9784772 7.08,11.2014213 Z M11.5949239,3.56588832 C11.5863959,2.99025381 11.5175635,2.18984772 11.2495431,1.49786802 C12.1120812,1.66111675 12.5366497,2.63695431 12.715736,3.2186802 C12.3837563,3.3222335 12.0054822,3.43918782 11.5949239,3.56588832 Z" id="Shape"></path>
                        <path d="M14.7874112,23.4219289 L20.7191878,21.9472081 C20.7191878,21.9472081 18.1650761,4.67939086 18.1492386,4.56060914 C18.1327919,4.44243655 18.0292386,4.37664975 17.9439594,4.3693401 C17.8586802,4.36203046 16.1884264,4.33705584 16.1884264,4.33705584 C16.1884264,4.33705584 15.1699492,3.3484264 14.7874112,2.97380711 L14.7874112,23.4219289 Z" id="Path"></path>
                    </g>
                </g>
            </g>
        </g>
    </g>
</svg>