<?xml version="1.0" encoding="UTF-8"?>
<svg viewBox="0 0 468 468" version="1.1" xmlns="http://www.w3.org/2000/svg" xmlns:xlink="http://www.w3.org/1999/xlink">
    <title>Group 78</title>
    <defs>
        <path d="M214,0 C332.1889,0 428,95.8111 428,214 C428,331.007011 334.095541,426.08154 217.53888,427.97133 L214,428 C95.8111,428 0,332.1889 0,214 C0,95.8111 95.8111,0 214,0 Z" id="path-1"></path>
        <path d="M214,0 C332.1889,0 428,95.8111 428,214 C428,332.1889 332.1889,428 214,428 C95.8111,428 0,332.1889 0,214 C0,95.8111 95.8111,0 214,0 Z" id="path-3"></path>
        <path d="M234,0 C363.2346,0 468,104.7654 468,234 C468,361.942254 365.319431,465.902245 237.869617,467.968651 L234,468 C104.7654,468 0,363.2346 0,234 C0,104.7654 104.7654,0 234,0 Z" id="path-5"></path>
        <path d="M234,0 C363.2346,0 468,104.7654 468,234 C468,363.2346 363.2346,468 234,468 C104.7654,468 0,363.2346 0,234 C0,104.7654 104.7654,0 234,0 Z" id="path-7"></path>
        <path d="M194,0 C301.1432,0 388,86.8568 388,194 C388,300.071768 302.87165,386.260835 197.208144,387.97401 L194,388 C86.8568,388 0,301.1432 0,194 C0,86.8568 86.8568,0 194,0 Z" id="path-9"></path>
        <path d="M194,0 C301.1432,0 388,86.8568 388,194 C388,301.1432 301.1432,388 194,388 C86.8568,388 0,301.1432 0,194 C0,86.8568 86.8568,0 194,0 Z" id="path-11"></path>
        <path d="M174,0 C270.0975,0 348,77.9025 348,174 C348,269.136525 271.64776,346.440131 176.877407,347.976689 L174,348 C77.9025,348 0,270.0975 0,174 C0,77.9025 77.9025,0 174,0 Z" id="path-13"></path>
        <path d="M174,0 C270.0975,0 348,77.9025 348,174 C348,270.0975 270.0975,348 174,348 C77.9025,348 0,270.0975 0,174 C0,77.9025 77.9025,0 174,0 Z" id="path-15"></path>
        <path d="M154,0 C239.0519,0 308,68.9481 308,154 C308,238.201381 240.423967,306.619428 156.546673,307.979368 L154,308 C68.9481,308 0,239.0519 0,154 C0,68.9481 68.9481,0 154,0 Z" id="path-17"></path>
        <path d="M154,0 C239.0519,0 308,68.9481 308,154 C308,239.0519 239.0519,308 154,308 C68.9481,308 0,239.0519 0,154 C0,68.9481 68.9481,0 154,0 Z" id="path-19"></path>
        <path d="M134,0 C208.0062,0 268,59.9938 268,134 C268,207.266138 209.200077,266.798723 136.215936,267.982048 L134,268 C59.9938,268 0,208.0062 0,134 C0,59.9938 59.9938,0 134,0 Z" id="path-21"></path>
        <path d="M134,0 C208.0062,0 268,59.9938 268,134 C268,208.0062 208.0062,268 134,268 C59.9938,268 0,208.0062 0,134 C0,59.9938 59.9938,0 134,0 Z" id="path-23"></path>
        <path d="M114,0 C176.9605,0 228,51.0395 228,114 C228,176.330895 177.976186,226.978018 115.8852,227.984727 L114,228 C51.0395,228 0,176.9605 0,114 C0,51.0395 51.0395,0 114,0 Z" id="path-25"></path>
        <path d="M114,0 C176.9605,0 228,51.0395 228,114 C228,176.9605 176.9605,228 114,228 C51.0395,228 0,176.9605 0,114 C0,51.0395 51.0395,0 114,0 Z" id="path-27"></path>
        <path d="M94,0 C145.9148,0 188,42.0852 188,94 C188,145.395652 146.752295,187.157313 95.5544629,187.987407 L94,188 C42.0852,188 0,145.9148 0,94 C0,42.0852 42.0852,0 94,0 Z" id="path-29"></path>
        <path d="M94,0 C145.9148,0 188,42.0852 188,94 C188,145.9148 145.9148,188 94,188 C42.0852,188 0,145.9148 0,94 C0,42.0852 42.0852,0 94,0 Z" id="path-31"></path>
        <path d="M74,0 C114.8691,0 148,33.1309 148,74 C148,114.460409 115.528405,147.336608 75.2237261,147.990086 L74,148 C33.1309,148 0,114.8691 0,74 C0,33.1309 33.1309,0 74,0 Z" id="path-33"></path>
        <path d="M74,0 C114.8691,0 148,33.1309 148,74 C148,114.8691 114.8691,148 74,148 C33.1309,148 0,114.8691 0,74 C0,33.1309 33.1309,0 74,0 Z" id="path-35"></path>
        <path d="M54,0 C83.8234,0 108,24.1766 108,54 C108,83.525166 84.3045143,107.515903 54.8929894,107.992766 L54,108 C24.1766,108 0,83.8234 0,54 C0,24.1766 24.1766,0 54,0 Z" id="path-37"></path>
        <path d="M54,0 C83.8234,0 108,24.1766 108,54 C108,83.8234 83.8234,108 54,108 C24.1766,108 0,83.8234 0,54 C0,24.1766 24.1766,0 54,0 Z" id="path-39"></path>
        <path d="M34,0 C52.7777,0 68,15.2223 68,34 C68,52.589923 53.0806238,67.6951985 34.5622527,67.995445 L34,68 C15.2223,68 0,52.7777 0,34 C0,15.2223 15.2223,0 34,0 Z" id="path-41"></path>
        <path d="M34,0 C52.7777,0 68,15.2223 68,34 C68,52.7777 52.7777,68 34,68 C15.2223,68 0,52.7777 0,34 C0,15.2223 15.2223,0 34,0 Z" id="path-43"></path>
    </defs>
    <g id="📄-template---about" stroke="none" stroke-width="1" fill="none" fill-rule="evenodd">
        <g id="Group-78">
            <g id="Group-7" transform="translate(20.000000, 20.000000)">
                <g id="Group-3">
                    <mask id="mask-2" fill="white">
                        <use xlink:href="#path-1"></use>
                    </mask>
                    <g id="Clip-2"></g>
                    <path d="M214,428 C332.1889,428 428,332.1889 428,214 C428,95.8111 332.1889,0 214,0 C95.8111,0 0,95.8111 0,214 C0,332.1889 95.8111,428 214,428 Z" id="Fill-1" mask="url(#mask-2)"></path>
                </g>
                <g id="Group-6">
                    <mask id="mask-4" fill="white">
                        <use xlink:href="#path-3"></use>
                    </mask>
                    <g id="Clip-5"></g>
                    <path d="M214,428 C332.1889,428 428,332.1889 428,214 C428,95.81106 332.1889,0 214,0 C95.81106,0 0,95.81106 0,214 C0,332.1889 95.81106,428 214,428 Z" id="Stroke-4" stroke="#6849E3" stroke-width="14" mask="url(#mask-4)"></path>
                </g>
            </g>
            <g id="Group-14">
                <g id="Group-10">
                    <mask id="mask-6" fill="white">
                        <use xlink:href="#path-5"></use>
                    </mask>
                    <g id="Clip-9"></g>
                    <path d="M234,468 C363.2346,468 468,363.2346 468,234 C468,104.7654 363.2346,0 234,0 C104.7654,0 0,104.7654 0,234 C0,363.2346 104.7654,468 234,468 Z" id="Fill-8" mask="url(#mask-6)"></path>
                </g>
                <g id="Group-13">
                    <mask id="mask-8" fill="white">
                        <use xlink:href="#path-7"></use>
                    </mask>
                    <g id="Clip-12"></g>
                    <path d="M234,468 C363.2346,468 468,363.2346 468,234 C468,104.7654 363.2346,0 234,0 C104.7654,0 0,104.7654 0,234 C0,363.2346 104.7654,468 234,468 Z" id="Stroke-11" stroke="#6849E3" stroke-width="14" mask="url(#mask-8)"></path>
                </g>
            </g>
            <g id="Group-21" transform="translate(40.000000, 40.000000)">
                <g id="Group-17">
                    <mask id="mask-10" fill="white">
                        <use xlink:href="#path-9"></use>
                    </mask>
                    <g id="Clip-16"></g>
                    <path d="M194,388 C301.1432,388 388,301.1432 388,194 C388,86.8568 301.1432,0 194,0 C86.8568,0 0,86.8568 0,194 C0,301.1432 86.8568,388 194,388 Z" id="Fill-15" mask="url(#mask-10)"></path>
                </g>
                <g id="Group-20">
                    <mask id="mask-12" fill="white">
                        <use xlink:href="#path-11"></use>
                    </mask>
                    <g id="Clip-19"></g>
                    <path d="M194,388 C301.1432,388 388,301.1432 388,194 C388,86.85676 301.1432,0 194,0 C86.85676,0 0,86.85676 0,194 C0,301.1432 86.85676,388 194,388 Z" id="Stroke-18" stroke="#6849E3" stroke-width="14" mask="url(#mask-12)"></path>
                </g>
            </g>
            <g id="Group-28" transform="translate(60.000000, 60.000000)">
                <g id="Group-24">
                    <mask id="mask-14" fill="white">
                        <use xlink:href="#path-13"></use>
                    </mask>
                    <g id="Clip-23"></g>
                    <path d="M174,348 C270.0975,348 348,270.0975 348,174 C348,77.9025 270.0975,0 174,0 C77.9025,0 0,77.9025 0,174 C0,270.0975 77.9025,348 174,348 Z" id="Fill-22" mask="url(#mask-14)"></path>
                </g>
                <g id="Group-27">
                    <mask id="mask-16" fill="white">
                        <use xlink:href="#path-15"></use>
                    </mask>
                    <g id="Clip-26"></g>
                    <path d="M174,348 C270.0975,348 348,270.0975 348,174 C348,77.90245 270.0975,0 174,0 C77.90245,0 0,77.90245 0,174 C0,270.0975 77.90245,348 174,348 Z" id="Stroke-25" stroke="#6849E3" stroke-width="14" mask="url(#mask-16)"></path>
                </g>
            </g>
            <g id="Group-35" transform="translate(80.000000, 80.000000)">
                <g id="Group-31">
                    <mask id="mask-18" fill="white">
                        <use xlink:href="#path-17"></use>
                    </mask>
                    <g id="Clip-30"></g>
                    <path d="M154,308 C239.0519,308 308,239.0519 308,154 C308,68.9481 239.0519,0 154,0 C68.9481,0 0,68.9481 0,154 C0,239.0519 68.9481,308 154,308 Z" id="Fill-29" mask="url(#mask-18)"></path>
                </g>
                <g id="Group-34">
                    <mask id="mask-20" fill="white">
                        <use xlink:href="#path-19"></use>
                    </mask>
                    <g id="Clip-33"></g>
                    <path d="M154,308 C239.0519,308 308,239.0519 308,154 C308,68.94815 239.0519,0 154,0 C68.94815,0 0,68.94815 0,154 C0,239.0519 68.94815,308 154,308 Z" id="Stroke-32" stroke="#6849E3" stroke-width="14" mask="url(#mask-20)"></path>
                </g>
            </g>
            <g id="Group-42" transform="translate(100.000000, 100.000000)">
                <g id="Group-38">
                    <mask id="mask-22" fill="white">
                        <use xlink:href="#path-21"></use>
                    </mask>
                    <g id="Clip-37"></g>
                    <path d="M134,268 C208.0062,268 268,208.0062 268,134 C268,59.9938 208.0062,0 134,0 C59.9938,0 0,59.9938 0,134 C0,208.0062 59.9938,268 134,268 Z" id="Fill-36" mask="url(#mask-22)"></path>
                </g>
                <g id="Group-41">
                    <mask id="mask-24" fill="white">
                        <use xlink:href="#path-23"></use>
                    </mask>
                    <g id="Clip-40"></g>
                    <path d="M134,268 C208.0062,268 268,208.0062 268,134 C268,59.99384 208.0062,0 134,0 C59.99384,0 0,59.99384 0,134 C0,208.0062 59.99384,268 134,268 Z" id="Stroke-39" stroke="#6849E3" stroke-width="14" mask="url(#mask-24)"></path>
                </g>
            </g>
            <g id="Group-49" transform="translate(120.000000, 120.000000)">
                <g id="Group-45">
                    <mask id="mask-26" fill="white">
                        <use xlink:href="#path-25"></use>
                    </mask>
                    <g id="Clip-44"></g>
                    <path d="M114,228 C176.9605,228 228,176.9605 228,114 C228,51.0395 176.9605,0 114,0 C51.0395,0 0,51.0395 0,114 C0,176.9605 51.0395,228 114,228 Z" id="Fill-43" mask="url(#mask-26)"></path>
                </g>
                <g id="Group-48">
                    <mask id="mask-28" fill="white">
                        <use xlink:href="#path-27"></use>
                    </mask>
                    <g id="Clip-47"></g>
                    <path d="M114,228 C176.9605,228 228,176.9605 228,114 C228,51.03954 176.9605,0 114,0 C51.03954,0 0,51.03954 0,114 C0,176.9605 51.03954,228 114,228 Z" id="Stroke-46" stroke="#6849E3" stroke-width="14" mask="url(#mask-28)"></path>
                </g>
            </g>
            <g id="Group-56" transform="translate(140.000000, 140.000000)">
                <g id="Group-52">
                    <mask id="mask-30" fill="white">
                        <use xlink:href="#path-29"></use>
                    </mask>
                    <g id="Clip-51"></g>
                    <path d="M94,188 C145.9148,188 188,145.9148 188,94 C188,42.0852 145.9148,0 94,0 C42.0852,0 0,42.0852 0,94 C0,145.9148 42.0852,188 94,188 Z" id="Fill-50" mask="url(#mask-30)"></path>
                </g>
                <g id="Group-55">
                    <mask id="mask-32" fill="white">
                        <use xlink:href="#path-31"></use>
                    </mask>
                    <g id="Clip-54"></g>
                    <path d="M94,188 C145.9148,188 188,145.9148 188,94 C188,42.08523 145.9148,0 94,0 C42.08523,0 0,42.08523 0,94 C0,145.9148 42.08523,188 94,188 Z" id="Stroke-53" stroke="#6849E3" stroke-width="14" mask="url(#mask-32)"></path>
                </g>
            </g>
            <g id="Group-63" transform="translate(160.000000, 160.000000)">
                <g id="Group-59">
                    <mask id="mask-34" fill="white">
                        <use xlink:href="#path-33"></use>
                    </mask>
                    <g id="Clip-58"></g>
                    <path d="M74,148 C114.8691,148 148,114.8691 148,74 C148,33.1309 114.8691,0 74,0 C33.1309,0 0,33.1309 0,74 C0,114.8691 33.1309,148 74,148 Z" id="Fill-57" mask="url(#mask-34)"></path>
                </g>
                <g id="Group-62">
                    <mask id="mask-36" fill="white">
                        <use xlink:href="#path-35"></use>
                    </mask>
                    <g id="Clip-61"></g>
                    <path d="M74,148 C114.8691,148 148,114.8691 148,74 C148,33.13093 114.8691,0 74,0 C33.13093,0 0,33.13093 0,74 C0,114.8691 33.13093,148 74,148 Z" id="Stroke-60" stroke="#6849E3" stroke-width="14" mask="url(#mask-36)"></path>
                </g>
            </g>
            <g id="Group-70" transform="translate(180.000000, 180.000000)">
                <g id="Group-66">
                    <mask id="mask-38" fill="white">
                        <use xlink:href="#path-37"></use>
                    </mask>
                    <g id="Clip-65"></g>
                    <path d="M54,108 C83.8234,108 108,83.8234 108,54 C108,24.1766 83.8234,0 54,0 C24.1766,0 0,24.1766 0,54 C0,83.8234 24.1766,108 54,108 Z" id="Fill-64" mask="url(#mask-38)"></path>
                </g>
                <g id="Group-69">
                    <mask id="mask-40" fill="white">
                        <use xlink:href="#path-39"></use>
                    </mask>
                    <g id="Clip-68"></g>
                    <path d="M54,108 C83.82338,108 108,83.82338 108,54 C108,24.17662 83.82338,0 54,0 C24.17662,0 0,24.17662 0,54 C0,83.82338 24.17662,108 54,108 Z" id="Stroke-67" stroke="#6849E3" stroke-width="14" mask="url(#mask-40)"></path>
                </g>
            </g>
            <g id="Group-77" transform="translate(200.000000, 200.000000)">
                <g id="Group-73">
                    <mask id="mask-42" fill="white">
                        <use xlink:href="#path-41"></use>
                    </mask>
                    <g id="Clip-72"></g>
                    <path d="M34,68 C52.7777,68 68,52.7777 68,34 C68,15.2223 52.7777,0 34,0 C15.2223,0 0,15.2223 0,34 C0,52.7777 15.2223,68 34,68 Z" id="Fill-71" mask="url(#mask-42)"></path>
                </g>
                <g id="Group-76">
                    <mask id="mask-44" fill="white">
                        <use xlink:href="#path-43"></use>
                    </mask>
                    <g id="Clip-75"></g>
                    <path d="M34,68 C52.77768,68 68,52.77768 68,34 C68,15.22232 52.77768,0 34,0 C15.22232,0 0,15.22232 0,34 C0,52.77768 15.22232,68 34,68 Z" id="Stroke-74" stroke="#6849E3" stroke-width="14" mask="url(#mask-44)"></path>
                </g>
            </g>
        </g>
    </g>
</svg>