<?xml version="1.0" encoding="UTF-8"?>
<svg width="1200px" height="500px" viewBox="0 0 1200 500" version="1.1" xmlns="http://www.w3.org/2000/svg" xmlns:xlink="http://www.w3.org/1999/xlink">
    <title>the sak</title>
    <defs>
        <path d="M418.454196,96.4178954 C445.977321,96.4178954 455.969732,107.111824 455.969732,107.111824 C455.969732,107.111824 455.794439,125.168177 455.794439,129.550787 C439.666416,113.94861 399.52148,107.637704 399.346186,129.024872 C399.170893,138.84199 402.326173,141.296269 427.920727,150.412179 C453.515625,159.528054 459.300651,176.532681 459.300651,188.804078 C459.300651,208.964227 441.594643,222.813367 419.155714,222.813367 C396.716441,222.813367 378.83514,212.295008 378.83514,212.295008 L378.83514,191.258357 C387.951084,196.69283 425.46662,214.048079 438.263724,194.764466 C441.769936,189.505286 444.574974,178.110425 416.000089,167.942721 C387.600497,157.774982 380.588418,148.834401 380.588418,128.849579 C380.588418,117.279425 390.931416,96.4178954 418.454196,96.4178954 Z M569.743048,98.6970536 L569.918342,219.307259 L550.809987,219.307259 L550.634694,210.366677 C546.953189,216.327065 529.247526,222.813367 518.203355,222.813367 C496.815842,222.813367 480.337232,211.067885 474.7275,191.608978 C466.663316,163.034162 473.500446,136.38771 493.835855,115.000439 C512.593278,95.3661352 546.252015,88.7046429 569.743048,98.6970536 Z M119.383083,41.5472832 L119.383083,120.259619 L119.383083,120.259619 C128.674286,106.761237 145.152999,101.151161 162.508247,100.975867 C173.727815,100.975867 202.302597,109.565931 203.529754,143.224634 C204.40629,168.643929 203.705047,220.008467 203.705047,220.008467 L193.537343,220.008467 L193.538626,219.782974 C193.560626,215.81579 193.843576,160.615774 192.660807,142.874013 C190.732443,116.402889 167.416806,103.079732 143.399927,114.825145 C128.148371,122.187983 119.20779,132.005066 119.20779,152.340509 L119.206948,154.946103 C119.193862,176.50556 119.032462,220.885003 119.032462,220.885003 L106.936393,220.885003 L106.936393,41.5472832 L119.383083,41.5472832 Z M286.799889,101.501747 C307.310625,105.709133 322.036301,122.53857 325.016495,145.152999 C325.367116,147.957899 325.717703,150.412179 326.068324,154.444202 C309.940198,154.444202 245.252468,154.268874 230.176205,154.268874 C230.176205,176.532681 234.734143,188.453457 249.810406,201.075474 C265.061996,213.697458 295.565143,214.749287 322.036301,192.836101 L322.036301,205.107497 C293.812106,230.176205 244.375932,223.339282 227.897219,193.537343 C215.976444,171.79945 215.275202,147.256657 227.546598,125.518764 C239.116787,104.832666 262.432423,96.4178954 286.799889,101.501747 Z M43.8263724,63.1100893 L43.8263724,102.729145 L75.556676,102.904439 L75.556676,110.442501 L44.0017003,110.442501 L44.0017003,193.537343 L44.0017003,193.537343 C44.0017003,207.561777 50.8386237,211.243179 64.8630574,210.016056 C71.1740663,209.490142 76.7838329,207.73707 82.3935995,205.107497 C81.6923916,208.262985 79.5887334,215.625823 78.8874911,217.378894 C73.6283457,219.482552 65.3889719,220.359088 59.9544987,220.359088 C42.9498712,220.18376 33.3080541,210.892592 33.3080541,193.712636 C33.1327504,169.520464 33.3080541,110.617795 33.3080541,110.617795 L0,110.617795 L0,102.729145 L32.9574432,102.729145 L33.3080541,73.6283801 L43.8263724,63.1100893 Z M608.485638,0 L608.485638,145.854207 L608.485638,145.854207 C619.179222,135.335881 655.817946,96.242602 655.817946,96.242602 L681.061913,96.242602 L623.912487,155.320703 L688.77551,218.606017 L661.427679,218.606017 L609.011518,166.890892 L609.011518,218.430723 L589.20199,218.430723 L589.20199,0 L608.485638,0 Z M501.549107,200.023645 C517.67713,211.5938 544.323788,195.115087 550.634694,183.895519 L550.634694,113.94861 L550.634694,113.94861 C496.465255,106.761237 478.409005,183.369605 501.549107,200.023645 Z M272.074213,109.916518 C246.479591,109.916518 232.455157,132.355687 231.929242,146.380121 L313.271013,146.380121 C313.271013,129.901408 297.668835,109.916518 272.074213,109.916518 Z" id="path-1"></path>
    </defs>
    <g id="the-sak" stroke="none" stroke-width="1" fill="none" fill-rule="evenodd">
        <g id="Fill-1-Clipped" transform="translate(256.000000, 139.000000)">
            <mask id="mask-2" fill="white">
                <use xlink:href="#path-1"></use>
            </mask>
            <g id="path-1"></g>
            <polygon id="Fill-1" fill="#2D2B3A" fill-rule="nonzero" mask="url(#mask-2)" points="-17.2193878 240.032755 705.994898 240.032755 705.994898 -17.2193878 -17.2193878 -17.2193878"></polygon>
        </g>
    </g>
</svg>