<?xml version="1.0" encoding="UTF-8"?>
<svg width="1200px" height="500px" viewBox="0 0 1200 500" version="1.1" xmlns="http://www.w3.org/2000/svg" xmlns:xlink="http://www.w3.org/1999/xlink">
    <title>United by blue</title>
    <g id="United-by-blue" stroke="none" stroke-width="1" fill="none" fill-rule="evenodd">
        <g id="united_logo_melanin" transform="translate(0.000000, 147.000000)" fill="#ffffff" fill-rule="nonzero">
            <g id="Group-19">
                <path d="M964.8,75.6 C955.2,75.6 946.2,76.8 942,82.2 L942,42 L912,48 C912,48 919.8,50.4 919.8,66 L919.8,139.8 C928.8,149.4 942.6,151.799994 953.4,151.799994 C979.8,151.799994 994.8,134.4 994.8,111 C994.8,88.2 981.6,75.6 964.8,75.6 Z M954,146.4 C954,146.4 944.4,146.4 941.4,141 L941.4,89.4 C944.4,86.4 948,84.6 952.8,84.6 C964.8,84.6 973.2,97.2 973.2,117.6 C973.8,134.4 967.2,146.4 954,146.4 Z" id="Fill-1"></path>
                <path d="M1179,139.2 C1164.6,140.4 1155,130.2 1152.6,111.6 C1152.6,111 1152.6,110.4 1152.6,109.8 L1199.4,106.2 C1198.2,87.6 1185,73.8 1164.6,75 C1142.4,76.8 1128.6,94.2 1130.4,117.6 C1132.2,139.2 1147.2,153.6 1168.2,151.799994 C1183.8,150.6 1193.4,142.8 1199.4,131.4 C1200,131.4 1190.4,138.6 1179,139.2 Z M1164,82.2 C1171.8,81.6 1180.2,84 1182,103.2 L1153.2,105.6 C1151.4,89.4 1155.6,82.8 1164,82.2 Z" id="Fill-3"></path>
                <path d="M542.4,111.6 C542.4,111 542.4,110.4 542.4,109.8 L589.2,106.2 C588,87.6 574.8,73.8 554.4,75 C532.2,76.8 518.4,94.2 520.2,117.6 C522,139.2 537,153.6 558,151.799994 C573.6,150.6 583.2,142.8 589.2,131.4 C589.2,131.4 579.6,138 568.2,139.2 C554.4,140.4 544.8,130.2 542.4,111.6 Z M553.8,82.2 C561.6,81.6 570,84 571.8,103.2 L543,105.6 C541.2,89.4 545.4,82.8 553.8,82.2 Z" id="Fill-4"></path>
                <path d="M1119.6,127.2 L1119,75.6 L1089.6,82.2 C1089.6,82.2 1097.4,88.8 1097.4,94.8 L1097.4,136.2 C1094.4,139.8 1087.8,142.2 1082.4,142.2 C1073.4,142.2 1071,134.4 1071,125.4 L1070.4,75.6 L1041,82.2 L1043.4,84.6 C1047,88.2 1049.4,93 1049.4,98.4 L1049.4,130.8 C1049.4,145.8 1059.6,152.4 1071,152.4 C1081.8,152.4 1093.8,145.8 1098.6,139.8 L1101,152.4 L1127.4,146.4 C1126.8,146.4 1119.6,139.8 1119.6,127.2 Z" id="Fill-5"></path>
                <path d="M856.8,83.4 C858.6,85.8 859.2,89.4 858,92.4 L843.6,128.4 L830.4,93 C829.2,89.4 829.8,85.8 831.6,82.8 L835.8,77.4 L800.4,77.4 L808.8,87.6 C809.4,88.2 810,89.4 810.6,90 L832.2,151.200006 L828.6,159 C822.6,168.6 808.2,171 796.8,165.6 L806.4,181.799994 C809.4,181.799994 824.4,185.4 835.8,159.6 L863.4,94.2 L872.4,77.4 L852.6,77.4 L856.8,83.4 Z" id="Fill-6"></path>
                <path d="M306.6,127.2 L306,75.6 L276.6,82.2 C276.6,82.2 284.4,88.8 284.4,94.8 L284.4,136.2 C281.4,139.8 274.8,142.2 269.4,142.2 C260.4,142.2 258,134.4 258,125.4 L257.4,75.6 L228,81.6 L230.4,84 C234,87.6 236.4,92.4 236.4,97.8 L236.4,130.2 C236.4,145.2 246.6,151.799994 258,151.799994 C268.8,151.799994 280.8,145.2 285.6,139.2 L288,151.799994 L314.4,145.8 C314.4,146.4 306.6,139.8 306.6,127.2 Z" id="Fill-7"></path>
                <path d="M402,133.8 L402,96.6 C402,84 392.4,75.6 379.2,75.6 C368.4,75.6 359.4,78.6 352.8,85.2 L352.8,76.2 L352.2,75.6 L322.8,82.2 L327,86.4 C329.4,88.8 330.6,91.8 330.6,95.4 L330.6,136.2 C330.6,138.6 329.4,141.6 327.6,143.4 L321.6,150.6 L361.2,150.6 L355.2,142.8 C354,141 352.8,139.2 352.8,137.4 L352.8,92.4 C356.4,88.8 361.8,85.8 366.6,85.8 C375,85.8 379.2,91.2 379.2,98.4 L379.2,138 C379.2,139.8 378.6,141.6 377.4,142.8 L371.4,150 L411,150 L406.2,144.6 C403.2,141.6 402,138 402,133.8 Z" id="Fill-8"></path>
                <path d="M449.4,133.2 L449.4,76.2 L419.4,81.6 L422.4,84 C426,87.6 427.8,91.8 427.8,96.6 L427.8,133.8 C427.8,142.8 418.8,150 418.8,150 L458.4,150 C457.8,150 449.4,142.8 449.4,133.2 Z" id="Fill-9"></path>
                <path d="M492,131.4 L492,79.8 L514.2,79.8 L514.2,75.6 L492,75.6 L492,59.4 L460.8,79.8 L462,79.8 C466.2,79.8 469.8,83.4 469.8,87.6 L469.8,131.4 C469.8,145.2 479.4,151.799994 491.4,151.799994 C502.8,151.799994 511.2,146.4 516,140.4 C516,140.4 510,142.8 504.6,142.8 C498,142.8 492,139.2 492,131.4 Z" id="Fill-10"></path>
                <path d="M673.2,132 L673.2,42 L644.4,48 C644.4,48 651,53.4 651,59.4 L651,79.2 C647.4,76.8 642.6,75.6 637.2,75.6 C613.2,75.6 597.6,93 597.6,117 C597.6,137.4 609,152.4 626.4,152.4 C637.8,152.4 645.6,146.4 651,141 L653.4,152.4 L680.4,146.4 C681,146.4 673.2,142.8 673.2,132 Z M651,133.2 C648.6,136.2 643.2,141.6 639,141.6 C627.6,141.6 621,130.8 621,111 C621,90 628.2,81.6 639.6,81.6 C645.6,81.6 648.6,84.6 651,90.6 L651,133.2 Z" id="Fill-11"></path>
                <path d="M772.2,75.6 C762.6,75.6 753.6,76.8 749.4,82.2 L749.4,42 L719.4,47.4 C719.4,47.4 727.2,49.8 727.2,65.4 L727.2,139.2 C736.2,148.8 750,151.200006 760.8,151.200006 C787.2,151.200006 802.2,133.8 802.2,110.4 C802.2,88.2 789,75.6 772.2,75.6 Z M761.4,146.4 C761.4,146.4 751.8,146.4 748.8,141 L748.8,89.4 C751.8,86.4 755.4,84.6 760.2,84.6 C772.2,84.6 780.6,97.2 780.6,117.6 C780.6,134.4 774.6,146.4 761.4,146.4 Z" id="Fill-12"></path>
                <path d="M1027.2,134.4 L1027.2,42 L998.4,48 L1000.2,50.4 C1003.2,54 1005,58.8 1005,63.6 L1005,135.6 C1005,138.6 1003.8,141.6 1001.4,144 L996,149.4 L996,150 L1035.6,150 L1035.6,148.8 L1030.8,144 C1028.4,141.6 1027.2,138 1027.2,134.4 Z" id="Fill-13"></path>
                <path d="M436.8,66 C444,66 449.4,61.2 449.4,54 C449.4,48 445.2,43.2 439.2,42 C438.6,42 437.4,42 436.8,42 C436.8,42 436.8,42 436.8,42 C436.8,42 436.8,42 436.8,42 C429.6,42 424.2,46.8 424.2,54 C424.2,61.2 429.6,66 436.8,66 Z" id="Fill-14"></path>
                <path d="M155.4,111.6 C134.4,112.8 114.6,122.4 105,127.8 C103.2,128.4 102,129.6 100.2,130.8 C87,138.6 69.6,148.8 39,152.4 C43.8,155.4 57,160.200006 79.8,154.200006 C91.2,151.200006 103.2,144.6 115.8,138 C134.4,127.8 154.8,117 178.8,114.6 C174.6,113.4 167.4,111 155.4,111.6 Z" id="Fill-15"></path>
                <path d="M126.6,84.6 C115.8,87 105,92.4 93.6,98.4 C75.6,107.4 55.2,117.6 28.8,120.6 C55.8,133.8 90,117.6 115.8,103.8 C141.6,90 162,85.8 171,84.6 C163.8,81 150,79.2 126.6,84.6 Z" id="Fill-16"></path>
                <path d="M135.6,150 C126,151.799994 116.4,156 105.6,161.4 C93,167.4 79.8,174 65.4,175.799994 C72.6,178.200006 89.4,182.4 108.6,174.6 C117,171 123.6,168 130.2,165 C142.8,159 153,154.200006 165.6,152.4 C160.8,150 150.6,147.6 135.6,150 Z" id="Fill-17"></path>
                <path d="M103.2,0 C46.2,0 0,46.2 0,103.2 C0,160.200006 46.2,206.4 103.2,206.4 C160.2,206.4 206.4,160.200006 206.4,103.2 C206.4,46.2 160.2,0 103.2,0 Z M103.2,196.2 C52.2,196.2 10.8,154.799994 10.8,103.8 C10.8,52.8 52.2,11.4 103.2,11.4 C154.2,11.4 195.6,52.8 195.6,103.8 C196.2,154.200006 154.2,196.2 103.2,196.2 Z" id="Fill-18"></path>
            </g>
        </g>
    </g>
</svg>