<?xml version="1.0" encoding="UTF-8"?>
<svg width="563px" height="750px" viewBox="0 0 563 750" version="1.1" xmlns="http://www.w3.org/2000/svg" xmlns:xlink="http://www.w3.org/1999/xlink">
    <title>vaay</title>
    <g id="vaay" stroke="none" stroke-width="1" fill="none" fill-rule="evenodd">
        <g id="Group" transform="translate(0.000000, 124.000000)" fill="#ffffff">
            <path d="M562.20016,97.3038738 L562.20016,501.655527 L-1.13686838e-13,501.655527 L-1.13686838e-13,97.3038738 L562.20016,97.3038738 Z M465.761209,116.332187 L417.757965,116.332187 L459.706746,214.068522 L459.706746,285.857158 L505.547682,285.857158 L505.547682,214.068522 L545.334155,116.332187 L497.763372,116.332187 L489.546601,141.847425 C488.249216,144.442195 487.384292,148.33435 486.086907,152.658966 C484.789523,156.983583 483.492138,162.605585 481.762291,168.660048 C480.897368,164.767893 479.599983,160.443276 478.302598,155.686198 C477.005213,150.92912 475.707828,146.172042 473.977981,141.414963 L473.977981,141.414963 L465.761209,116.332187 Z M241.313607,116.332187 L185.093591,116.332187 L144.442195,285.857158 L192.012978,285.857158 L195.905133,264.234075 L226.609911,264.234075 L230.069604,285.857158 L277.207925,285.857158 L241.313607,116.332187 Z M387.485649,116.332187 L331.265633,116.332187 L290.614237,285.857158 L337.752558,285.857158 L341.644713,264.234075 L372.349491,264.234075 L375.809184,285.857158 L423.379967,285.857158 L387.485649,116.332187 Z M67.0315575,116.332187 L19.0283131,116.332187 L57.9498626,285.857158 L104.655722,285.857158 L150.92912,116.332187 L101.196029,116.332187 L90.3844872,172.552203 C88.6546406,181.201436 87.3572556,189.850669 86.0598706,198.499903 C84.7624856,207.149136 83.8975623,216.663292 83.032639,227.042372 C80.8703307,204.121904 78.2755607,183.363744 75.2483291,164.767893 L75.2483291,164.767893 L67.0315575,116.332187 Z" id="Combined-Shape"></path>
            <path d="M212.771137,156.983583 C212.771137,158.136814 209.16729,181.778052 201.959596,227.907296 L221.420371,227.907296 L212.771137,156.983583 Z" id="Fill-3"></path>
            <path d="M358.943179,156.983583 C358.943179,158.136814 355.339332,181.778052 348.131637,227.907296 L367.592412,227.907296 L358.943179,156.983583 Z" id="Fill-4"></path>
            <path d="M88.2221789,87.7897173 C96.4389505,87.7897173 105.520645,85.627409 115.467264,81.735254 L118.062034,32.8670863 C110.277724,40.2189345 102.060952,43.6786278 94.2766422,43.6786278 C89.5195639,43.6786278 85.627409,42.8137045 82.1677157,40.6513962 C78.7080224,38.4890879 75.6807908,35.8943179 73.0860208,32.0021629 C70.4912508,28.110008 68.7614042,23.7853914 67.4640192,18.1633898 C66.1666342,12.9738498 65.3017109,6.48692492 65.3017109,2.39808173e-13 L19.0283131,2.39808173e-13 C19.0283131,0.432461661 19.0283131,0.432461661 19.0283131,0.864923323 C19.0283131,29.407393 26.3801613,51.4629377 40.6513962,67.0315575 C53.1927844,80.8703307 69.1938658,87.7897173 88.2221789,87.7897173 Z" id="Fill-6"></path>
            <path d="M195.472671,63.1394026 L226.177449,63.1394026 L229.637142,84.7624856 L276.775463,84.7624856 L259.044535,1.37033242e-13 L217.095754,1.37033242e-13 C217.528216,2.16230831 217.528216,3.45969329 217.528216,4.32461661 C217.960677,6.05446326 217.960677,7.35184825 217.960677,7.35184825 L220.987909,27.2450847 L201.527134,27.2450847 L206.284213,0.864923323 L206.284213,0.432461661 L164.767893,0.432461661 L144.442195,85.1949473 L191.580516,85.1949473 L195.472671,63.1394026 Z" id="Fill-7"></path>
            <path d="M348.564099,25.515238 L348.131637,14.2712348 C348.996561,16.4335431 349.429022,18.5958514 350.293946,20.3256981 C350.726407,22.0555447 351.158869,23.3529297 351.591331,24.217853 L374.079337,84.7624856 L423.379967,84.7624856 L389.647957,14.2712348 C397.432267,10.8115415 403.48673,6.05446326 407.811347,-1.25613805e-13 L303.588086,-1.25613805e-13 L303.588086,84.7624856 L348.996561,84.7624856 L348.996561,25.515238 L348.564099,25.515238 Z" id="Fill-8"></path>
            <polygon id="Fill-9" points="544.901693 44.1110895 505.547682 44.1110895 505.547682 18.1633898 540.577077 18.1633898 540.577077 -1.25613805e-13 460.139208 -1.25613805e-13 460.139208 84.7624856 544.901693 84.7624856"></polygon>
        </g>
    </g>
</svg>